{
.appVersion = "983";
DisplayStrings = (
"ABCDEFGJKL HO\012HOHOHOH\012HHHOOO\012HHAHHOOAOO\012HHBHHOOBOO\012HHCHHOOCOO\012HHDHHOODOO\012HHEHHOOEOO\012HHFHHOOFOO\012HHJHHOOJOO\012HHLHHOOLOO\012HHKHHOOKOO\012HHMHHOOMOO"
);
copyright = "Copyright 2012 The Cutive Project Authors (vern@newtypography.co.uk)";
customParameters = (
{
name = vendorID;
value = newt;
},
{
name = license;
value = "This Font Software is licensed under the SIL Open Font License, Version 1.1. This license is available with a FAQ at: http://scripts.sil.org/OFL";
},
{
name = licenseURL;
value = "http://scripts.sil.org/OFL";
},
{
name = fsType;
value = (
);
}
);
date = "2012-09-19 19:30:31 +0000";
designer = "Vernon Adams";
designerURL = "http://www.newtypography.co.uk";
disablesAutomaticAlignment = 1;
disablesNiceNames = 1;
familyName = "Cutive Mono";
featurePrefixes = (
{
automatic = 1;
code = "languagesystem DFLT dflt;\012languagesystem latn dflt;\012languagesystem latn CAT;\012languagesystem latn ROM;\012languagesystem latn MOL;\012";
name = Languagesystems;
}
);
features = (
{
automatic = 1;
code = "feature locl;\012feature frac;\012feature ordn;\012feature salt;\012feature ss01;\012feature ss02;\012";
name = aalt;
},
{
automatic = 1;
code = "script latn;\012language CAT;\012sub  l' periodcentered' l by ldot;\012sub  L' periodcentered' L by Ldot;\012language ROM;\012sub Scedilla by Scommaaccent;\012sub scedilla by scommaaccent;\012language MOL;\012sub Scedilla by Scommaaccent;\012sub scedilla by scommaaccent;\012";
name = locl;
},
{
automatic = 1;
code = "sub one slash four by onequarter;\012sub one slash two by onehalf;\012sub three slash four by threequarters;\012";
name = frac;
},
{
automatic = 1;
code = "sub [zero one two three four five six seven eight nine] [A a]' by ordfeminine;\012sub [zero one two three four five six seven eight nine] [O o]' by ordmasculine;\012";
name = ordn;
},
{
automatic = 1;

glyphs = (
{
glyphname = A;
lastChange = "2017-05-31 20:30:22 +0000";
layers = (
{
layerId = "840BD324-B0A6-42B0-BD23-CB5E8C19394F";
paths = (
{
closed = 1;
nodes = (
"646 1074 LINE",
"983 86 LINE",
"796 86 LINE SMOOTH",
"763 86 OFFCURVE",
"747 65 OFFCURVE",
"747 44 CURVE SMOOTH",
"747 22 OFFCURVE",
"764 0 OFFCURVE",
"798 0 CURVE SMOOTH",
"1164 0 LINE SMOOTH",
"1197 0 OFFCURVE",
"1214 22 OFFCURVE",
"1214 44 CURVE SMOOTH",
"1214 65 OFFCURVE",
"1198 86 OFFCURVE",
"1166 86 CURVE SMOOTH",
"1085 86 LINE",
"725 1106 LINE SMOOTH",
"713 1140 OFFCURVE",
"690 1171 OFFCURVE",
"644 1171 CURVE SMOOTH",
"341 1171 LINE SMOOTH",
"308 1171 OFFCURVE",
"292 1149 OFFCURVE",
"292 1128 CURVE SMOOTH",
"292 1106 OFFCURVE",
"309 1085 OFFCURVE",
"342 1085 CURVE SMOOTH",
"559 1085 LINE",
"176 86 LINE",
"89 86 LINE SMOOTH",
"56 86 OFFCURVE",
"40 64 OFFCURVE",
"40 43 CURVE SMOOTH",
"40 21 OFFCURVE",
"57 0 OFFCURVE",
"90 0 CURVE SMOOTH",
"438 0 LINE SMOOTH",
"472 0 OFFCURVE",
"489 21 OFFCURVE",
"489 43 CURVE SMOOTH",
"489 64 OFFCURVE",
"472 86 OFFCURVE",
"439 86 CURVE SMOOTH",
"279 86 LINE"
);
},
{
closed = 1;
nodes = (
"865 475 LINE",
"415 475 LINE",
"382 392 LINE",
"895 392 LINE"
);
}
);
width = 1240;
}
);
unicode = 0041;
},
{
glyphname = AE;
lastChange = "2016-08-10 13:30:31 +0000";
layers = (
{
layerId = "840BD324-B0A6-42B0-BD23-CB5E8C19394F";
paths = (
{
closed = 1;
nodes = (
"88 0 LINE SMOOTH",
"55 0 OFFCURVE",
"38 21 OFFCURVE",
"38 43 CURVE SMOOTH",
"38 64 OFFCURVE",
"54 86 OFFCURVE",
"87 86 CURVE SMOOTH",
"138 86 LINE",
"463 1085 LINE",
"301 1085 LINE SMOOTH",
"268 1085 OFFCURVE",
"251 1106 OFFCURVE",
"251 1128 CURVE SMOOTH",
"251 1149 OFFCURVE",
"267 1171 OFFCURVE",
"300 1171 CURVE SMOOTH",
"1050 1171 LINE SMOOTH",
"1083 1171 OFFCURVE",
"1106 1151 OFFCURVE",
"1106 1117 CURVE SMOOTH",
"1106 893 LINE SMOOTH",
"1106 863 OFFCURVE",
"1086 849 OFFCURVE",
"1066 849 CURVE SMOOTH",
"1046 849 OFFCURVE",
"1028 862 OFFCURVE",
"1027 887 CURVE SMOOTH",
"1013 1085 LINE",
"729 1085 LINE",
"729 637 LINE",
"871 637 LINE",
"884 740 LINE SMOOTH",
"887 770 OFFCURVE",
"906 785 OFFCURVE",
"924 785 CURVE SMOOTH",
"943 785 OFFCURVE",
"962 769 OFFCURVE",
"962 732 CURVE SMOOTH",
"962 460 LINE SMOOTH",
"962 425 OFFCURVE",
"943 409 OFFCURVE",
"924 409 CURVE SMOOTH",
"905 409 OFFCURVE",
"886 424 OFFCURVE",
"884 452 CURVE",
"871 560 LINE",
"729 560 LINE",
"729 85 LINE",
"1016 85 LINE",
"1032 296 LINE SMOOTH",
"1033 320 OFFCURVE",
"1052 335 OFFCURVE",
"1073 335 CURVE SMOOTH",
"1094 335 OFFCURVE",
"1115 319 OFFCURVE",
"1115 283 CURVE SMOOTH",
"1115 53 LINE SMOOTH",
"1115 19 OFFCURVE",
"1092 0 OFFCURVE",
"1059 0 CURVE SMOOTH",
"613 0 LINE SMOOTH",
"579 0 OFFCURVE",
"562 22 OFFCURVE",
"562 43 CURVE SMOOTH",
"562 64 OFFCURVE",
"579 85 OFFCURVE",
"612 85 CURVE SMOOTH",
"642 85 LINE",
"642 392 LINE",
"327 392 LINE",
"231 86 LINE",
"398 86 LINE SMOOTH",
"431 86 OFFCURVE",
"448 64 OFFCURVE",
"448 43 CURVE SMOOTH",
"448 21 OFFCURVE",
"431 0 OFFCURVE",
"397 0 CURVE SMOOTH"
);
},
{
closed = 1;
nodes = (
"642 475 LINE",
"642 1085 LINE",
"545 1085 LINE",
"354 475 LINE"
);
}
);
width = 1240;
}
);
unicode = 00C6;
},
{
glyphname = B;
lastChange = "2017-05-31 21:06:13 +0000";
layers = (
{
layerId = "840BD324-B0A6-42B0-BD23-CB5E8C19394F";
paths = (
{
closed = 1;
nodes = (
"925 889 CURVE SMOOTH",
"925 1011 OFFCURVE",
"797 1085 OFFCURVE",
"569 1085 CURVE SMOOTH",
"443 1085 LINE",
"443 673 LINE",
"593 673 LINE SMOOTH",
"780 673 OFFCURVE",
"925 733 OFFCURVE"
);
},
{
closed = 1;
nodes = (
"1012 333 CURVE SMOOTH",
"1012 517 OFFCURVE",
"830 587 OFFCURVE",
"593 587 CURVE SMOOTH",
"443 587 LINE",
"443 86 LINE",
"569 86 LINE SMOOTH",
"845 86 OFFCURVE",
"1012 150 OFFCURVE"
);
},
{
closed = 1;
nodes = (
"1108 333 CURVE SMOOTH",
"1108 94 OFFCURVE",
"915 0 OFFCURVE",
"546 0 CURVE SMOOTH",
"188 0 LINE SMOOTH",
"154 0 OFFCURVE",
"137 21 OFFCURVE",
"137 43 CURVE SMOOTH",
"137 64 OFFCURVE",
"154 86 OFFCURVE",
"187 86 CURVE SMOOTH",
"347 86 LINE",
"347 1085 LINE",
"181 1085 LINE SMOOTH",
"148 1085 OFFCURVE",
"132 1107 OFFCURVE",
"132 1129 CURVE SMOOTH",
"132 1150 OFFCURVE",
"148 1171 OFFCURVE",
"180 1171 CURVE SMOOTH",
"546 1171 LINE SMOOTH",
"851 1171 OFFCURVE",
"1011 1076 OFFCURVE",
"1011 889 CURVE SMOOTH",
"1011 761 OFFCURVE",
"936 673 OFFCURVE",
"847 642 CURVE",
"978 614 OFFCURVE",
"1108 508 OFFCURVE"
);
}
);
width = 1240;
}
);
unicode = 0042;
},
{
glyphname = C;
lastChange = "2017-05-31 20:43:59 +0000";
layers = (
{
layerId = "840BD324-B0A6-42B0-BD23-CB5E8C19394F";
paths = (
{
closed = 1;
nodes = (
"946 -17 OFFCURVE",
"669 -17 CURVE SMOOTH",
"361 -17 OFFCURVE",
"132 225 OFFCURVE",
"132 607 CURVE SMOOTH",
"132 954 OFFCURVE",
"360 1187 OFFCURVE",
"668 1187 CURVE SMOOTH",
"827 1187 OFFCURVE",
"968 1113 OFFCURVE",
"1022 1015 CURVE",
"1022 1121 LINE SMOOTH",
"1022 1154 OFFCURVE",
"1047 1171 OFFCURVE",
"1071 1171 CURVE SMOOTH",
"1096 1171 OFFCURVE",
"1120 1154 OFFCURVE",
"1120 1120 CURVE SMOOTH",
"1120 827 LINE SMOOTH",
"1120 795 OFFCURVE",
"1097 780 OFFCURVE",
"1074 780 CURVE SMOOTH",
"1050 780 OFFCURVE",
"1031 797 OFFCURVE",
"1026 827 CURVE SMOOTH",
"995 991 OFFCURVE",
"850 1101 OFFCURVE",
"671 1101 CURVE SMOOTH",
"396 1101 OFFCURVE",
"228 890 OFFCURVE",
"228 600 CURVE SMOOTH",
"228 263 OFFCURVE",
"435 69 OFFCURVE",
"670 69 CURVE SMOOTH",
"893 69 OFFCURVE",
"1010 239 OFFCURVE",
"1036 345 CURVE SMOOTH",
"1044 380 OFFCURVE",
"1062 393 OFFCURVE",
"1083 393 CURVE SMOOTH",
"1106 393 OFFCURVE",
"1135 377 OFFCURVE",
"1135 343 CURVE SMOOTH",
"1135 184 OFFCURVE"
);
}
);
width = 1240;
}
);
unicode = 0043;
},
{
glyphname = C;
lastChange = "2017-05-31 22:38:13 +0000";
layers = (
{
layerId = "840BD324-B0A6-42B0-BD23-CB5E8C19394F";
paths = (
{
closed = 1;
nodes = (
"946 -17 OFFCURVE",
"669 -17 CURVE SMOOTH",
"361 -17 OFFCURVE",
"132 225 OFFCURVE",
"132 607 CURVE SMOOTH",
"132 954 OFFCURVE",
"360 1187 OFFCURVE",
"668 1187 CURVE SMOOTH",
"827 1187 OFFCURVE",
"968 1113 OFFCURVE",
"1022 1015 CURVE",
"1022 1121 LINE SMOOTH",
"1022 1154 OFFCURVE",
"1047 1171 OFFCURVE",
"1071 1171 CURVE SMOOTH",
"1096 1171 OFFCURVE",
"1120 1154 OFFCURVE",
"1120 1120 CURVE SMOOTH",
"1120 827 LINE SMOOTH",
"1120 795 OFFCURVE",
"1097 780 OFFCURVE",
"1074 780 CURVE SMOOTH",
"1050 780 OFFCURVE",
"1031 797 OFFCURVE",
"1026 827 CURVE SMOOTH",
"995 991 OFFCURVE",
"850 1101 OFFCURVE",
"671 1101 CURVE SMOOTH",
"396 1101 OFFCURVE",
"228 890 OFFCURVE",
"228 600 CURVE SMOOTH",
"228 263 OFFCURVE",
"435 69 OFFCURVE",
"670 69 CURVE SMOOTH",
"893 69 OFFCURVE",
"1010 239 OFFCURVE",
"1036 345 CURVE SMOOTH",
"1044 380 OFFCURVE",
"1062 393 OFFCURVE",
"1083 393 CURVE SMOOTH",
"1106 393 OFFCURVE",
"1135 377 OFFCURVE",
"1135 343 CURVE SMOOTH",
"1135 184 OFFCURVE"
);
}
);
width = 1240;
}
);
unicode = 0043;
},
{
glyphname = D;
lastChange = "2017-05-31 20:47:23 +0000";
layers = (
{
layerId = "840BD324-B0A6-42B0-BD23-CB5E8C19394F";
paths = (
{
closed = 1;
nodes = (
"1108 591 CURVE SMOOTH",
"1108 188 OFFCURVE",
"888 0 OFFCURVE",
"517 0 CURVE SMOOTH",
"156 0 LINE SMOOTH",
"122 0 OFFCURVE",
"105 21 OFFCURVE",
"105 43 CURVE SMOOTH",
"105 64 OFFCURVE",
"122 86 OFFCURVE",
"155 86 CURVE SMOOTH",
"318 86 LINE",
"318 1085 LINE",
"159 1085 LINE SMOOTH",
"127 1085 OFFCURVE",
"111 1106 OFFCURVE",
"111 1127 CURVE SMOOTH",
"111 1149 OFFCURVE",
"128 1171 OFFCURVE",
"161 1171 CURVE SMOOTH",
"519 1171 LINE SMOOTH",
"872 1171 OFFCURVE",
"1108 973 OFFCURVE"
);
},
{
closed = 1;
nodes = (
"1012 591 CURVE SMOOTH",
"1012 887 OFFCURVE",
"841 1085 OFFCURVE",
"538 1085 CURVE SMOOTH",
"414 1085 LINE",
"414 86 LINE",
"524 86 LINE SMOOTH",
"865 86 OFFCURVE",
"1012 276 OFFCURVE"
);
}
);
width = 1240;
}
);
unicode = 0044;
},
{
glyphname = Eth;
lastChange = "2016-08-10 13:30:31 +0000";
layers = (
{
layerId = "840BD324-B0A6-42B0-BD23-CB5E8C19394F";
paths = (
{
closed = 1;
nodes = (
"172 572 LINE SMOOTH",
"135 572 OFFCURVE",
"126 592 OFFCURVE",
"126 611 CURVE SMOOTH",
"126 630 OFFCURVE",
"133 648 OFFCURVE",
"168 648 CURVE SMOOTH",
"314 648 LINE",
"314 1085 LINE",
"155 1085 LINE SMOOTH",
"123 1085 OFFCURVE",
"107 1106 OFFCURVE",
"107 1127 CURVE SMOOTH",
"107 1149 OFFCURVE",
"124 1171 OFFCURVE",
"157 1171 CURVE SMOOTH",
"515 1171 LINE SMOOTH",
"858 1171 OFFCURVE",
"1084 993 OFFCURVE",
"1084 591 CURVE SMOOTH",
"1084 168 OFFCURVE",
"874 0 OFFCURVE",
"513 0 CURVE SMOOTH",
"152 0 LINE SMOOTH",
"118 0 OFFCURVE",
"101 21 OFFCURVE",
"101 43 CURVE SMOOTH",
"101 64 OFFCURVE",
"118 86 OFFCURVE",
"151 86 CURVE SMOOTH",
"314 86 LINE",
"314 572 LINE"
);
},
{
closed = 1;
nodes = (
"978 591 CURVE SMOOTH",
"978 907 OFFCURVE",
"827 1085 OFFCURVE",
"534 1085 CURVE SMOOTH",
"420 1085 LINE",
"420 648 LINE",
"607 648 LINE SMOOTH",
"640 648 OFFCURVE",
"646 630 OFFCURVE",
"646 611 CURVE SMOOTH",
"646 592 OFFCURVE",
"638 572 OFFCURVE",
"605 572 CURVE SMOOTH",
"420 572 LINE",
"420 86 LINE",
"520 86 LINE SMOOTH",
"851 86 OFFCURVE",
"978 256 OFFCURVE"
);
}
);
width = 1240;
}
);
unicode = 00D0;
},
{
glyphname = Dcroat;
lastChange = "2016-08-10 13:30:31 +0000";
layers = (
{
layerId = "840BD324-B0A6-42B0-BD23-CB5E8C19394F";
paths = (
{
closed = 1;
nodes = (
"172 572 LINE SMOOTH",
"135 572 OFFCURVE",
"126 592 OFFCURVE",
"126 611 CURVE SMOOTH",
"126 630 OFFCURVE",
"133 648 OFFCURVE",
"168 648 CURVE SMOOTH",
"314 648 LINE",
"314 1085 LINE",
"155 1085 LINE SMOOTH",
"123 1085 OFFCURVE",
"107 1106 OFFCURVE",
"107 1127 CURVE SMOOTH",
"107 1149 OFFCURVE",
"124 1171 OFFCURVE",
"157 1171 CURVE SMOOTH",
"515 1171 LINE SMOOTH",
"858 1171 OFFCURVE",
"1084 993 OFFCURVE",
"1084 591 CURVE SMOOTH",
"1084 168 OFFCURVE",
"874 0 OFFCURVE",
"513 0 CURVE SMOOTH",
"152 0 LINE SMOOTH",
"118 0 OFFCURVE",
"101 21 OFFCURVE",
"101 43 CURVE SMOOTH",
"101 64 OFFCURVE",
"118 86 OFFCURVE",
"151 86 CURVE SMOOTH",
"314 86 LINE",
"314 572 LINE"
);
},
{
closed = 1;
nodes = (
"978 591 CURVE SMOOTH",
"978 907 OFFCURVE",
"827 1085 OFFCURVE",
"534 1085 CURVE SMOOTH",
"420 1085 LINE",
"420 648 LINE",
"607 648 LINE SMOOTH",
"640 648 OFFCURVE",
"646 630 OFFCURVE",
"646 611 CURVE SMOOTH",
"646 592 OFFCURVE",
"638 572 OFFCURVE",
"605 572 CURVE SMOOTH",
"420 572 LINE",
"420 86 LINE",
"520 86 LINE SMOOTH",
"851 86 OFFCURVE",
"978 256 OFFCURVE"
);
}
);
width = 1240;
}
);
unicode = 0110;
},
{
glyphname = E;
lastChange = "2017-05-31 21:04:10 +0000";
layers = (
{
layerId = "840BD324-B0A6-42B0-BD23-CB5E8C19394F";
paths = (
{
closed = 1;
nodes = (
"827 437 LINE SMOOTH",
"827 402 OFFCURVE",
"808 386 OFFCURVE",
"789 386 CURVE SMOOTH",
"770 386 OFFCURVE",
"751 401 OFFCURVE",
"749 429 CURVE SMOOTH",
"736 577 LINE",
"410 577 LINE",
"410 85 LINE",
"1025 85 LINE",
"1041 336 LINE SMOOTH",
"1043 360 OFFCURVE",
"1064 375 OFFCURVE",
"1085 375 CURVE SMOOTH",
"1106 375 OFFCURVE",
"1127 359 OFFCURVE",
"1127 323 CURVE SMOOTH",
"1127 53 LINE SMOOTH",
"1127 19 OFFCURVE",
"1104 0 OFFCURVE",
"1071 0 CURVE SMOOTH",
"145 0 LINE SMOOTH",
"111 0 OFFCURVE",
"94 22 OFFCURVE",
"94 43 CURVE SMOOTH",
"94 64 OFFCURVE",
"111 85 OFFCURVE",
"144 85 CURVE SMOOTH",
"314 85 LINE",
"314 1085 LINE",
"179 1085 LINE SMOOTH",
"147 1085 OFFCURVE",
"131 1106 OFFCURVE",
"131 1127 CURVE SMOOTH",
"131 1149 OFFCURVE",
"148 1171 OFFCURVE",
"181 1171 CURVE SMOOTH",
"1059 1171 LINE SMOOTH",
"1092 1171 OFFCURVE",
"1115 1151 OFFCURVE",
"1115 1117 CURVE SMOOTH",
"1115 847 LINE SMOOTH",
"1115 817 OFFCURVE",
"1095 803 OFFCURVE",
"1075 803 CURVE SMOOTH",
"1055 803 OFFCURVE",
"1034 816 OFFCURVE",
"1033 841 CURVE SMOOTH",
"1019 1085 LINE",
"410 1085 LINE",
"410 654 LINE",
"736 654 LINE",
"749 787 LINE SMOOTH",
"752 817 OFFCURVE",
"771 832 OFFCURVE",
"789 832 CURVE SMOOTH",
"808 832 OFFCURVE",
"827 816 OFFCURVE",
"827 779 CURVE SMOOTH"
);
}
);
width = 1240;
}
);
unicode = 0045;
},
{
glyphname = F;
lastChange = "2016-08-10 13:30:31 +0000";
layers = (
{
layerId = "840BD324-B0A6-42B0-BD23-CB5E8C19394F";
paths = (
{
closed = 1;
nodes = (
"848 437 LINE SMOOTH",
"848 402 OFFCURVE",
"829 386 OFFCURVE",
"810 386 CURVE SMOOTH",
"791 386 OFFCURVE",
"772 401 OFFCURVE",
"770 429 CURVE SMOOTH",
"757 577 LINE",
"420 577 LINE",
"420 85 LINE",
"770 85 LINE SMOOTH",
"801 85 OFFCURVE",
"816 64 OFFCURVE",
"816 43 CURVE SMOOTH",
"816 21 OFFCURVE",
"800 0 OFFCURVE",
"771 0 CURVE SMOOTH",
"155 0 LINE SMOOTH",
"121 0 OFFCURVE",
"104 22 OFFCURVE",
"104 43 CURVE SMOOTH",
"104 64 OFFCURVE",
"121 85 OFFCURVE",
"154 85 CURVE SMOOTH",
"324 85 LINE",
"324 1085 LINE",
"189 1085 LINE SMOOTH",
"157 1085 OFFCURVE",
"141 1106 OFFCURVE",
"141 1127 CURVE SMOOTH",
"141 1149 OFFCURVE",
"158 1171 OFFCURVE",
"191 1171 CURVE SMOOTH",
"1082 1171 LINE SMOOTH",
"1115 1171 OFFCURVE",
"1138 1151 OFFCURVE",
"1138 1117 CURVE SMOOTH",
"1138 847 LINE SMOOTH",
"1138 817 OFFCURVE",
"1118 803 OFFCURVE",
"1098 803 CURVE SMOOTH",
"1078 803 OFFCURVE",
"1057 816 OFFCURVE",
"1056 841 CURVE SMOOTH",
"1042 1085 LINE",
"420 1085 LINE",
"420 654 LINE",
"757 654 LINE",
"770 787 LINE SMOOTH",
"773 817 OFFCURVE",
"792 832 OFFCURVE",
"810 832 CURVE SMOOTH",
"829 832 OFFCURVE",
"848 816 OFFCURVE",
"848 779 CURVE SMOOTH"
);
}
);
width = 1240;
}
);
unicode = 0046;
},
{
glyphname = G;
lastChange = "2017-05-31 21:43:31 +0000";
layers = (
{
layerId = "840BD324-B0A6-42B0-BD23-CB5E8C19394F";
paths = (
{
closed = 1;
nodes = (
"937 62 OFFCURVE",
"784 -17 OFFCURVE",
"606 -17 CURVE SMOOTH",
"298 -17 OFFCURVE",
"90 225 OFFCURVE",
"90 607 CURVE SMOOTH",
"90 954 OFFCURVE",
"297 1187 OFFCURVE",
"605 1187 CURVE SMOOTH",
"764 1187 OFFCURVE",
"905 1113 OFFCURVE",
"959 1015 CURVE",
"959 1121 LINE SMOOTH",
"959 1154 OFFCURVE",
"983 1171 OFFCURVE",
"1007 1171 CURVE SMOOTH",
"1032 1171 OFFCURVE",
"1055 1154 OFFCURVE",
"1055 1120 CURVE SMOOTH",
"1055 837 LINE SMOOTH",
"1055 805 OFFCURVE",
"1033 790 OFFCURVE",
"1010 790 CURVE SMOOTH",
"986 790 OFFCURVE",
"968 807 OFFCURVE",
"962 837 CURVE SMOOTH",
"932 978 OFFCURVE",
"787 1101 OFFCURVE",
"608 1101 CURVE SMOOTH",
"333 1101 OFFCURVE",
"186 890 OFFCURVE",
"186 600 CURVE SMOOTH",
"186 263 OFFCURVE",
"372 69 OFFCURVE",
"607 69 CURVE SMOOTH",
"815 69 OFFCURVE",
"939 182 OFFCURVE",
"987 299 CURVE",
"987 154 LINE"
);
},
{
closed = 1;
nodes = (
"962 332 LINE",
"962 470 LINE",
"778 470 LINE SMOOTH",
"745 470 OFFCURVE",
"728 492 OFFCURVE",
"728 514 CURVE SMOOTH",
"728 535 OFFCURVE",
"744 556 OFFCURVE",
"777 556 CURVE SMOOTH",
"1121 556 LINE SMOOTH",
"1154 556 OFFCURVE",
"1170 535 OFFCURVE",
"1170 514 CURVE SMOOTH",
"1170 492 OFFCURVE",
"1153 470 OFFCURVE",
"1119 470 CURVE SMOOTH",
"1058 470 LINE",
"1058 49 LINE SMOOTH",
"1058 11 OFFCURVE",
"1035 -8 OFFCURVE",
"1011 -8 CURVE SMOOTH",
"987 -8 OFFCURVE",
"962 12 OFFCURVE",
"962 51 CURVE SMOOTH",
"962 175 LINE"
);
}
);
width = 1240;
}
);
unicode = 0047;
},
{
glyphname = H;
lastChange = "2016-08-10 13:30:31 +0000";
layers = (
{
layerId = "840BD324-B0A6-42B0-BD23-CB5E8C19394F";
paths = (
{
closed = 1;
nodes = (
"143 0 LINE SMOOTH",
"110 0 OFFCURVE",
"93 22 OFFCURVE",
"93 44 CURVE SMOOTH",
"93 65 OFFCURVE",
"109 86 OFFCURVE",
"141 86 CURVE SMOOTH",
"265 86 LINE",
"265 1085 LINE",
"157 1085 LINE SMOOTH",
"124 1085 OFFCURVE",
"107 1106 OFFCURVE",
"107 1128 CURVE SMOOTH",
"107 1149 OFFCURVE",
"124 1171 OFFCURVE",
"157 1171 CURVE SMOOTH",
"459 1171 LINE SMOOTH",
"492 1171 OFFCURVE",
"509 1149 OFFCURVE",
"509 1127 CURVE SMOOTH",
"509 1106 OFFCURVE",
"494 1085 OFFCURVE",
"461 1085 CURVE SMOOTH",
"361 1085 LINE",
"361 638 LINE",
"901 638 LINE",
"901 1085 LINE",
"801 1085 LINE SMOOTH",
"768 1085 OFFCURVE",
"753 1106 OFFCURVE",
"753 1127 CURVE SMOOTH",
"753 1149 OFFCURVE",
"770 1171 OFFCURVE",
"803 1171 CURVE SMOOTH",
"1097 1171 LINE SMOOTH",
"1130 1171 OFFCURVE",
"1147 1150 OFFCURVE",
"1147 1130 CURVE SMOOTH",
"1147 1107 OFFCURVE",
"1130 1085 OFFCURVE",
"1097 1085 CURVE SMOOTH",
"997 1085 LINE",
"997 86 LINE",
"1097 86 LINE SMOOTH",
"1130 86 OFFCURVE",
"1147 65 OFFCURVE",
"1147 43 CURVE SMOOTH",
"1147 22 OFFCURVE",
"1130 0 OFFCURVE",
"1097 0 CURVE SMOOTH",
"803 0 LINE SMOOTH",
"770 0 OFFCURVE",
"753 22 OFFCURVE",
"753 44 CURVE SMOOTH",
"753 65 OFFCURVE",
"769 86 OFFCURVE",
"801 86 CURVE SMOOTH",
"901 86 LINE",
"901 558 LINE",
"361 558 LINE",
"361 86 LINE",
"461 86 LINE SMOOTH",
"493 86 OFFCURVE",
"509 66 OFFCURVE",
"509 46 CURVE SMOOTH",
"509 23 OFFCURVE",
"492 0 OFFCURVE",
"459 0 CURVE SMOOTH"
);
}
);
width = 1240;
}
);
unicode = 0048;
},
{
glyphname = Hbar;
lastChange = "2016-08-10 13:30:31 +0000";
layers = (
{
components = (
{
name = H;
}
);
layerId = "840BD324-B0A6-42B0-BD23-CB5E8C19394F";
paths = (
{
closed = 1;
nodes = (
"153 855 LINE SMOOTH",
"116 855 OFFCURVE",
"107 875 OFFCURVE",
"107 894 CURVE SMOOTH",
"107 913 OFFCURVE",
"114 931 OFFCURVE",
"149 931 CURVE SMOOTH",
"1108 931 LINE SMOOTH",
"1141 931 OFFCURVE",
"1147 913 OFFCURVE",
"1147 894 CURVE SMOOTH",
"1147 875 OFFCURVE",
"1139 855 OFFCURVE",
"1106 855 CURVE SMOOTH"
);
}
);
width = 1240;
}
);
unicode = 0126;
},
{
glyphname = I;
lastChange = "2016-08-10 13:30:31 +0000";
layers = (
{
layerId = "840BD324-B0A6-42B0-BD23-CB5E8C19394F";
paths = (
{
closed = 1;
nodes = (
"310 0 LINE SMOOTH",
"277 0 OFFCURVE",
"259 21 OFFCURVE",
"259 43 CURVE SMOOTH",
"259 64 OFFCURVE",
"276 86 OFFCURVE",
"309 86 CURVE SMOOTH",
"614 86 LINE",
"614 1085 LINE",
"309 1085 LINE SMOOTH",
"276 1085 OFFCURVE",
"259 1106 OFFCURVE",
"259 1127 CURVE SMOOTH",
"259 1149 OFFCURVE",
"277 1171 OFFCURVE",
"310 1171 CURVE SMOOTH",
"995 1171 LINE SMOOTH",
"1028 1171 OFFCURVE",
"1045 1149 OFFCURVE",
"1045 1127 CURVE SMOOTH",
"1045 1106 OFFCURVE",
"1029 1085 OFFCURVE",
"996 1085 CURVE SMOOTH",
"710 1085 LINE",
"710 86 LINE",
"996 86 LINE SMOOTH",
"1029 86 OFFCURVE",
"1045 64 OFFCURVE",
"1045 43 CURVE SMOOTH",
"1045 21 OFFCURVE",
"1028 0 OFFCURVE",
"995 0 CURVE SMOOTH"
);
}
);
width = 1240;
}
);
unicode = 0049;
},
{
glyphname = IJ;
lastChange = "2016-08-10 13:30:31 +0000";
layers = (
{
layerId = "840BD324-B0A6-42B0-BD23-CB5E8C19394F";
paths = (
{
closed = 1;
nodes = (
"1040 307 LINE SMOOTH",
"1040 74 OFFCURVE",
"963 0 OFFCURVE",
"676 0 CURVE SMOOTH",
"655 0 OFFCURVE",
"644 20 OFFCURVE",
"644 41 CURVE SMOOTH",
"644 61 OFFCURVE",
"654 81 OFFCURVE",
"676 81 CURVE SMOOTH",
"919 81 OFFCURVE",
"944 125 OFFCURVE",
"944 304 CURVE SMOOTH",
"944 1085 LINE",
"348 1085 LINE",
"348 86 LINE",
"479 86 LINE SMOOTH",
"512 86 OFFCURVE",
"528 64 OFFCURVE",
"528 43 CURVE SMOOTH",
"528 21 OFFCURVE",
"511 0 OFFCURVE",
"478 0 CURVE SMOOTH",
"118 0 LINE SMOOTH",
"85 0 OFFCURVE",
"67 21 OFFCURVE",
"67 43 CURVE SMOOTH",
"67 64 OFFCURVE",
"84 86 OFFCURVE",
"117 86 CURVE SMOOTH",
"252 86 LINE",
"252 1085 LINE",
"97 1085 LINE SMOOTH",
"64 1085 OFFCURVE",
"47 1106 OFFCURVE",
"47 1127 CURVE SMOOTH",
"47 1149 OFFCURVE",
"65 1171 OFFCURVE",
"98 1171 CURVE SMOOTH",
"1142 1171 LINE SMOOTH",
"1175 1171 OFFCURVE",
"1192 1150 OFFCURVE",
"1192 1128 CURVE SMOOTH",
"1192 1107 OFFCURVE",
"1176 1085 OFFCURVE",
"1143 1085 CURVE SMOOTH",
"1040 1085 LINE"
);
}
);
width = 1240;
}
);
unicode = 0132;
},
{
glyphname = J;
lastChange = "2017-05-31 22:34:40 +0000";
layers = (
{
layerId = "840BD324-B0A6-42B0-BD23-CB5E8C19394F";
paths = (
{
closed = 1;
nodes = (
"855 437 LINE SMOOTH",
"855 142 OFFCURVE",
"742 -13 OFFCURVE",
"490 -13 CURVE SMOOTH",
"268 -13 OFFCURVE",
"138 107 OFFCURVE",
"138 320 CURVE SMOOTH",
"138 349 OFFCURVE",
"159 368 OFFCURVE",
"188 368 CURVE SMOOTH",
"214 368 OFFCURVE",
"236 352 OFFCURVE",
"236 320 CURVE SMOOTH",
"236 160 OFFCURVE",
"331 70 OFFCURVE",
"490 70 CURVE SMOOTH",
"672 70 OFFCURVE",
"759 194 OFFCURVE",
"759 434 CURVE SMOOTH",
"759 1085 LINE",
"389 1085 LINE SMOOTH",
"357 1085 OFFCURVE",
"341 1106 OFFCURVE",
"341 1127 CURVE SMOOTH",
"341 1149 OFFCURVE",
"357 1171 OFFCURVE",
"390 1171 CURVE SMOOTH",
"1025 1171 LINE SMOOTH",
"1058 1171 OFFCURVE",
"1075 1150 OFFCURVE",
"1075 1128 CURVE SMOOTH",
"1075 1107 OFFCURVE",
"1059 1085 OFFCURVE",
"1026 1085 CURVE SMOOTH",
"855 1085 LINE"
);
}
);
width = 1240;
}
);
unicode = 004A;
},
{
glyphname = K;
lastChange = "2017-05-31 22:48:35 +0000";
layers = (
{
layerId = "840BD324-B0A6-42B0-BD23-CB5E8C19394F";
paths = (
{
closed = 1;
nodes = (
"352 405 LINE",
"352 86 LINE",
"510 86 LINE SMOOTH",
"543 86 OFFCURVE",
"559 64 OFFCURVE",
"559 43 CURVE SMOOTH",
"559 21 OFFCURVE",
"542 0 OFFCURVE",
"509 0 CURVE SMOOTH",
"84 0 LINE SMOOTH",
"50 0 OFFCURVE",
"33 21 OFFCURVE",
"33 43 CURVE SMOOTH",
"33 64 OFFCURVE",
"50 86 OFFCURVE",
"83 86 CURVE SMOOTH",
"252 86 LINE",
"252 1084 LINE",
"83 1084 LINE SMOOTH",
"50 1084 OFFCURVE",
"33 1105 OFFCURVE",
"33 1127 CURVE SMOOTH",
"33 1149 OFFCURVE",
"50 1171 OFFCURVE",
"84 1171 CURVE SMOOTH",
"509 1171 LINE SMOOTH",
"542 1171 OFFCURVE",
"559 1148 OFFCURVE",
"559 1126 CURVE SMOOTH",
"559 1105 OFFCURVE",
"544 1084 OFFCURVE",
"511 1084 CURVE SMOOTH",
"348 1084 LINE",
"348 519 LINE",
"891 1085 LINE",
"891 1085 OFFCURVE",
"887 1085 OFFCURVE",
"872 1085 CURVE SMOOTH",
"783 1085 LINE SMOOTH",
"750 1085 OFFCURVE",
"734 1108 OFFCURVE",
"734 1127 CURVE SMOOTH",
"734 1147 OFFCURVE",
"752 1171 OFFCURVE",
"784 1171 CURVE SMOOTH",
"1146 1171 LINE SMOOTH",
"1179 1171 OFFCURVE",
"1195 1149 OFFCURVE",
"1195 1127 CURVE SMOOTH",
"1195 1105 OFFCURVE",
"1179 1085 OFFCURVE",
"1147 1085 CURVE SMOOTH",
"1009 1085 LINE"
);
},
{
closed = 1;
nodes = (
"601 676 LINE",
"1062 86 LINE",
"1189 86 LINE SMOOTH",
"1221 86 OFFCURVE",
"1237 64 OFFCURVE",
"1237 43 CURVE SMOOTH",
"1237 21 OFFCURVE",
"1221 0 OFFCURVE",
"1188 0 CURVE SMOOTH",
"770 0 LINE SMOOTH",
"737 0 OFFCURVE",
"720 21 OFFCURVE",
"720 43 CURVE SMOOTH",
"720 64 OFFCURVE",
"736 86 OFFCURVE",
"769 86 CURVE SMOOTH",
"945 86 LINE",
"527 621 LINE"
);
}
);
width = 1240;
}
);
unicode = 004B;
},
{
glyphname = L;
lastChange = "2017-05-31 22:39:37 +0000";
layers = (
{
layerId = "840BD324-B0A6-42B0-BD23-CB5E8C19394F";
paths = (
{
closed = 1;
nodes = (
"640 1171 LINE SMOOTH",
"674 1171 OFFCURVE",
"691 1149 OFFCURVE",
"691 1127 CURVE SMOOTH",
"691 1106 OFFCURVE",
"674 1085 OFFCURVE",
"641 1085 CURVE SMOOTH",
"489 1085 LINE",
"489 86 LINE",
"1012 86 LINE",
"1030 399 LINE",
"1034 428 OFFCURVE",
"1055 442 OFFCURVE",
"1077 442 CURVE SMOOTH",
"1102 442 OFFCURVE",
"1122 425 OFFCURVE",
"1122 393 CURVE SMOOTH",
"1122 66 LINE SMOOTH",
"1122 29 OFFCURVE",
"1093 0 OFFCURVE",
"1050 0 CURVE SMOOTH",
"168 0 LINE SMOOTH",
"134 0 OFFCURVE",
"117 21 OFFCURVE",
"117 43 CURVE SMOOTH",
"117 64 OFFCURVE",
"134 86 OFFCURVE",
"167 86 CURVE SMOOTH",
"393 86 LINE",
"393 1085 LINE",
"166 1085 LINE SMOOTH",
"133 1085 OFFCURVE",
"117 1106 OFFCURVE",
"117 1127 CURVE SMOOTH",
"117 1149 OFFCURVE",
"134 1171 OFFCURVE",
"167 1171 CURVE SMOOTH"
);
}
);
width = 1240;
}
);
unicode = 004C;
},
{
glyphname = Lslash;
lastChange = "2016-08-10 13:30:31 +0000";
layers = (
{
components = (
{
name = L;
}
);
layerId = "840BD324-B0A6-42B0-BD23-CB5E8C19394F";
paths = (
{
closed = 1;
nodes = (
"777 768 CURVE SMOOTH",
"802 768 OFFCURVE",
"818 750 OFFCURVE",
"818 722 CURVE SMOOTH",
"818 703 OFFCURVE",
"806 692 OFFCURVE",
"780 685 CURVE SMOOTH",
"245 551 LINE SMOOTH",
"237 549 OFFCURVE",
"229 548 OFFCURVE",
"223 548 CURVE SMOOTH",
"198 548 OFFCURVE",
"183 566 OFFCURVE",
"183 594 CURVE SMOOTH",
"183 613 OFFCURVE",
"196 627 OFFCURVE",
"223 634 CURVE SMOOTH",
"758 765 LINE SMOOTH",
"765 767 OFFCURVE",
"771 768 OFFCURVE"
);
}
);
width = 1240;
}
);
unicode = 0141;
},
{
glyphname = M;
lastChange = "2017-05-31 23:00:20 +0000";
layers = (
{
layerId = "840BD324-B0A6-42B0-BD23-CB5E8C19394F";
paths = (
{
closed = 1;
nodes = (
"817 0 LINE SMOOTH",
"783 0 OFFCURVE",
"766 22 OFFCURVE",
"766 44 CURVE SMOOTH",
"766 65 OFFCURVE",
"782 86 OFFCURVE",
"815 86 CURVE SMOOTH",
"951 86 LINE",
"951 979 LINE",
"684 385 LINE SMOOTH",
"670 353 OFFCURVE",
"650 342 OFFCURVE",
"625 342 CURVE SMOOTH",
"601 342 OFFCURVE",
"581 355 OFFCURVE",
"567 385 CURVE SMOOTH",
"295 978 LINE",
"295 86 LINE",
"418 86 LINE SMOOTH",
"452 86 OFFCURVE",
"468 65 OFFCURVE",
"468 44 CURVE SMOOTH",
"468 22 OFFCURVE",
"451 0 OFFCURVE",
"417 0 CURVE SMOOTH",
"70 0 LINE SMOOTH",
"37 0 OFFCURVE",
"20 21 OFFCURVE",
"20 43 CURVE SMOOTH",
"20 64 OFFCURVE",
"36 86 OFFCURVE",
"69 86 CURVE SMOOTH",
"203 86 LINE",
"203 1085 LINE",
"83 1085 LINE SMOOTH",
"50 1085 OFFCURVE",
"34 1106 OFFCURVE",
"34 1127 CURVE SMOOTH",
"34 1149 OFFCURVE",
"51 1171 OFFCURVE",
"84 1171 CURVE SMOOTH",
"272 1171 LINE SMOOTH",
"296 1171 OFFCURVE",
"310 1154 OFFCURVE",
"318 1136 CURVE SMOOTH",
"630 470 LINE",
"929 1141 LINE SMOOTH",
"937 1158 OFFCURVE",
"952 1171 OFFCURVE",
"974 1171 CURVE SMOOTH",
"1156 1171 LINE SMOOTH",
"1190 1171 OFFCURVE",
"1207 1149 OFFCURVE",
"1207 1127 CURVE SMOOTH",
"1207 1106 OFFCURVE",
"1190 1085 OFFCURVE",
"1157 1085 CURVE SMOOTH",
"1044 1085 LINE",
"1044 86 LINE",
"1172 86 LINE SMOOTH",
"1204 86 OFFCURVE",
"1220 65 OFFCURVE",
"1220 44 CURVE SMOOTH",
"1220 22 OFFCURVE",
"1203 0 OFFCURVE",
"1170 0 CURVE SMOOTH"
);
}
);
width = 1240;
}
);
unicode = 004D;
},
{
glyphname = N;
lastChange = "2016-08-10 13:30:31 +0000";
layers = (
{
layerId = "840BD324-B0A6-42B0-BD23-CB5E8C19394F";
paths = (
{
closed = 1;
nodes = (
"129 1085 LINE SMOOTH",
"96 1085 OFFCURVE",
"80 1106 OFFCURVE",
"80 1127 CURVE SMOOTH",
"80 1149 OFFCURVE",
"97 1171 OFFCURVE",
"130 1171 CURVE SMOOTH",
"417 1171 LINE SMOOTH",
"439 1171 OFFCURVE",
"449 1163 OFFCURVE",
"457 1147 CURVE SMOOTH",
"943 194 LINE",
"943 1085 LINE",
"794 1085 LINE SMOOTH",
"761 1085 OFFCURVE",
"745 1106 OFFCURVE",
"745 1127 CURVE SMOOTH",
"745 1149 OFFCURVE",
"762 1171 OFFCURVE",
"796 1171 CURVE SMOOTH",
"1133 1171 LINE SMOOTH",
"1166 1171 OFFCURVE",
"1183 1149 OFFCURVE",
"1183 1127 CURVE SMOOTH",
"1183 1106 OFFCURVE",
"1167 1085 OFFCURVE",
"1135 1085 CURVE SMOOTH",
"1039 1085 LINE",
"1039 47 LINE SMOOTH",
"1039 4 OFFCURVE",
"1016 -16 OFFCURVE",
"990 -16 CURVE SMOOTH",
"969 -16 OFFCURVE",
"947 -3 OFFCURVE",
"934 22 CURVE SMOOTH",
"381 1084 LINE",
"381 86 LINE",
"519 86 LINE SMOOTH",
"552 86 OFFCURVE",
"568 64 OFFCURVE",
"568 43 CURVE SMOOTH",
"568 21 OFFCURVE",
"551 0 OFFCURVE",
"518 0 CURVE SMOOTH",
"160 0 LINE SMOOTH",
"127 0 OFFCURVE",
"110 21 OFFCURVE",
"110 43 CURVE SMOOTH",
"110 64 OFFCURVE",
"126 86 OFFCURVE",
"159 86 CURVE SMOOTH",
"285 86 LINE",
"285 1085 LINE"
);
}
);
width = 1240;
}
);
unicode = 004E;
},
{
glyphname = Eng;
lastChange = "2016-08-10 13:30:31 +0000";
layers = (
{
layerId = "840BD324-B0A6-42B0-BD23-CB5E8C19394F";
paths = (
{
closed = 1;
nodes = (
"629 -401 CURVE SMOOTH",
"603 -401 OFFCURVE",
"589 -380 OFFCURVE",
"589 -359 CURVE SMOOTH",
"589 -339 OFFCURVE",
"602 -320 OFFCURVE",
"630 -320 CURVE SMOOTH",
"782 -320 OFFCURVE",
"943 -211 OFFCURVE",
"943 -32 CURVE SMOOTH",
"943 52 LINE",
"875 177 OFFCURVE",
"506 844 OFFCURVE",
"381 1084 CURVE",
"381 86 LINE",
"519 86 LINE SMOOTH",
"552 86 OFFCURVE",
"568 64 OFFCURVE",
"568 43 CURVE SMOOTH",
"568 21 OFFCURVE",
"551 0 OFFCURVE",
"518 0 CURVE SMOOTH",
"160 0 LINE SMOOTH",
"127 0 OFFCURVE",
"110 21 OFFCURVE",
"110 43 CURVE SMOOTH",
"110 64 OFFCURVE",
"126 86 OFFCURVE",
"159 86 CURVE SMOOTH",
"285 86 LINE",
"285 1085 LINE",
"129 1085 LINE SMOOTH",
"96 1085 OFFCURVE",
"80 1106 OFFCURVE",
"80 1127 CURVE SMOOTH",
"80 1149 OFFCURVE",
"97 1171 OFFCURVE",
"130 1171 CURVE SMOOTH",
"407 1171 LINE SMOOTH",
"429 1171 OFFCURVE",
"439 1163 OFFCURVE",
"447 1147 CURVE SMOOTH",
"943 224 LINE",
"943 1085 LINE",
"794 1085 LINE SMOOTH",
"761 1085 OFFCURVE",
"745 1106 OFFCURVE",
"745 1127 CURVE SMOOTH",
"745 1149 OFFCURVE",
"762 1171 OFFCURVE",
"796 1171 CURVE SMOOTH",
"1133 1171 LINE SMOOTH",
"1166 1171 OFFCURVE",
"1183 1149 OFFCURVE",
"1183 1127 CURVE SMOOTH",
"1183 1106 OFFCURVE",
"1167 1085 OFFCURVE",
"1135 1085 CURVE SMOOTH",
"1039 1085 LINE",
"1039 -19 LINE SMOOTH",
"1039 -252 OFFCURVE",
"841 -401 OFFCURVE"
);
}
);
width = 1240;
}
);
unicode = 014A;
},
{
glyphname = O;
lastChange = "2017-05-31 21:49:50 +0000";
layers = (
{
layerId = "840BD324-B0A6-42B0-BD23-CB5E8C19394F";
paths = (
{
closed = 1;
nodes = (
"620 -17 CURVE SMOOTH",
"279 -17 OFFCURVE",
"105 291 OFFCURVE",
"105 582 CURVE SMOOTH",
"105 883 OFFCURVE",
"279 1187 OFFCURVE",
"620 1187 CURVE SMOOTH",
"961 1187 OFFCURVE",
"1135 883 OFFCURVE",
"1135 582 CURVE SMOOTH",
"1135 291 OFFCURVE",
"961 -17 OFFCURVE"
);
},
{
closed = 1;
nodes = (
"620 1101 CURVE SMOOTH",
"344 1101 OFFCURVE",
"201 842 OFFCURVE",
"201 582 CURVE SMOOTH",
"201 336 OFFCURVE",
"340 69 OFFCURVE",
"620 69 CURVE SMOOTH",
"900 69 OFFCURVE",
"1039 336 OFFCURVE",
"1039 582 CURVE SMOOTH",
"1039 842 OFFCURVE",
"896 1101 OFFCURVE"
);
}
);
width = 1240;
}
);
unicode = 004F;
},
{
glyphname = Oslash;
lastChange = "2016-08-10 13:30:31 +0000";
layers = (
{
components = (
{
name = O;
}
);
layerId = "840BD324-B0A6-42B0-BD23-CB5E8C19394F";
paths = (
{
closed = 1;
nodes = (
"295 -172 LINE SMOOTH",
"288 -187 OFFCURVE",
"277 -192 OFFCURVE",
"265 -192 CURVE SMOOTH",
"246 -192 OFFCURVE",
"226 -176 OFFCURVE",
"226 -158 CURVE SMOOTH",
"226 -154 OFFCURVE",
"227 -150 OFFCURVE",
"229 -146 CURVE SMOOTH",
"972 1305 LINE SMOOTH",
"978 1316 OFFCURVE",
"988 1321 OFFCURVE",
"999 1321 CURVE SMOOTH",
"1017 1321 OFFCURVE",
"1037 1308 OFFCURVE",
"1037 1289 CURVE SMOOTH",
"1037 1284 OFFCURVE",
"1036 1279 OFFCURVE",
"1033 1274 CURVE SMOOTH"
);
}
);
width = 1240;
}
);
unicode = 00D8;
},
{
glyphname = OE;
lastChange = "2016-08-10 13:30:31 +0000";
layers = (
{
layerId = "840BD324-B0A6-42B0-BD23-CB5E8C19394F";
paths = (
{
closed = 1;
nodes = (
"924 437 LINE SMOOTH",
"924 402 OFFCURVE",
"905 386 OFFCURVE",
"886 386 CURVE SMOOTH",
"867 386 OFFCURVE",
"848 401 OFFCURVE",
"846 429 CURVE SMOOTH",
"833 577 LINE",
"677 577 LINE",
"677 85 LINE",
"1012 85 LINE",
"1028 336 LINE SMOOTH",
"1029 360 OFFCURVE",
"1051 375 OFFCURVE",
"1072 375 CURVE SMOOTH",
"1093 375 OFFCURVE",
"1114 359 OFFCURVE",
"1114 323 CURVE SMOOTH",
"1114 53 LINE SMOOTH",
"1114 19 OFFCURVE",
"1091 0 OFFCURVE",
"1058 0 CURVE SMOOTH",
"564 0 LINE SMOOTH",
"563 0 LINE SMOOTH",
"340 0 OFFCURVE",
"118 200 OFFCURVE",
"118 582 CURVE SMOOTH",
"118 965 OFFCURVE",
"342 1172 OFFCURVE",
"566 1172 CURVE SMOOTH",
"726 1172 OFFCURVE",
"886 1171 OFFCURVE",
"1046 1171 CURVE SMOOTH",
"1079 1171 OFFCURVE",
"1102 1151 OFFCURVE",
"1102 1117 CURVE SMOOTH",
"1102 847 LINE SMOOTH",
"1102 817 OFFCURVE",
"1082 803 OFFCURVE",
"1062 803 CURVE SMOOTH",
"1042 803 OFFCURVE",
"1021 816 OFFCURVE",
"1020 841 CURVE SMOOTH",
"1006 1084 LINE",
"677 1084 LINE",
"677 654 LINE",
"833 654 LINE",
"846 787 LINE SMOOTH",
"849 817 OFFCURVE",
"868 832 OFFCURVE",
"886 832 CURVE SMOOTH",
"905 832 OFFCURVE",
"924 816 OFFCURVE",
"924 779 CURVE SMOOTH"
);
},
{
closed = 1;
nodes = (
"214 582 CURVE SMOOTH",
"214 260 OFFCURVE",
"387 82 OFFCURVE",
"561 82 CURVE SMOOTH",
"579 82 LINE",
"579 1084 LINE",
"564 1084 LINE SMOOTH",
"389 1084 OFFCURVE",
"214 913 OFFCURVE"
);
}
);
width = 1240;
}
);
unicode = 0152;
},
{
glyphname = P;
lastChange = "2016-08-10 13:30:31 +0000";
layers = (
{
layerId = "840BD324-B0A6-42B0-BD23-CB5E8C19394F";
paths = (
{
closed = 1;
nodes = (
"1068 847 CURVE SMOOTH",
"1068 540 OFFCURVE",
"815 527 OFFCURVE",
"558 527 CURVE SMOOTH",
"442 527 LINE",
"442 86 LINE",
"771 86 LINE SMOOTH",
"804 86 OFFCURVE",
"820 64 OFFCURVE",
"820 43 CURVE SMOOTH",
"820 21 OFFCURVE",
"803 0 OFFCURVE",
"770 0 CURVE SMOOTH",
"174 0 LINE SMOOTH",
"140 0 OFFCURVE",
"123 21 OFFCURVE",
"123 43 CURVE SMOOTH",
"123 64 OFFCURVE",
"140 86 OFFCURVE",
"173 86 CURVE SMOOTH",
"346 86 LINE",
"346 1085 LINE",
"187 1085 LINE SMOOTH",
"154 1085 OFFCURVE",
"138 1106 OFFCURVE",
"138 1127 CURVE SMOOTH",
"138 1149 OFFCURVE",
"155 1171 OFFCURVE",
"188 1171 CURVE SMOOTH",
"532 1171 LINE SMOOTH",
"802 1171 OFFCURVE",
"1068 1154 OFFCURVE"
);
},
{
closed = 1;
nodes = (
"972 843 CURVE SMOOTH",
"972 1085 OFFCURVE",
"742 1085 OFFCURVE",
"552 1085 CURVE SMOOTH",
"442 1085 LINE",
"442 607 LINE",
"594 607 LINE SMOOTH",
"788 607 OFFCURVE",
"972 616 OFFCURVE"
);
}
);
width = 1240;
}
);
unicode = 0050;
},
{
glyphname = Thorn;
lastChange = "2016-08-10 13:30:31 +0000";
layers = (
{
layerId = "840BD324-B0A6-42B0-BD23-CB5E8C19394F";
paths = (
{
closed = 1;
nodes = (
"971 626 CURVE SMOOTH",
"971 802 OFFCURVE",
"856 851 OFFCURVE",
"429 851 CURVE",
"429 392 LINE",
"830 392 OFFCURVE",
"971 433 OFFCURVE"
);
},
{
closed = 1;
nodes = (
"1067 619 CURVE SMOOTH",
"1067 321 OFFCURVE",
"724 318 OFFCURVE",
"429 318 CURVE",
"429 82 LINE",
"656 82 LINE SMOOTH",
"689 82 OFFCURVE",
"695 61 OFFCURVE",
"695 41 CURVE SMOOTH",
"695 20 OFFCURVE",
"688 0 OFFCURVE",
"655 0 CURVE SMOOTH",
"109 0 LINE SMOOTH",
"75 0 OFFCURVE",
"68 20 OFFCURVE",
"68 41 CURVE SMOOTH",
"68 61 OFFCURVE",
"75 82 OFFCURVE",
"108 82 CURVE SMOOTH",
"333 82 LINE",
"333 1085 LINE",
"121 1085 LINE SMOOTH",
"88 1085 OFFCURVE",
"82 1106 OFFCURVE",
"82 1127 CURVE SMOOTH",
"82 1149 OFFCURVE",
"89 1171 OFFCURVE",
"123 1171 CURVE SMOOTH",
"600 1171 LINE SMOOTH",
"627 1171 OFFCURVE",
"631 1151 OFFCURVE",
"631 1130 CURVE SMOOTH",
"631 1108 OFFCURVE",
"625 1085 OFFCURVE",
"592 1085 CURVE SMOOTH",
"429 1085 LINE",
"429 928 LINE",
"743 928 OFFCURVE",
"1067 927 OFFCURVE"
);
}
);
width = 1240;
}
);
unicode = 00DE;
},
{
glyphname = Q;
lastChange = "2016-08-10 13:31:20 +0000";
layers = (
{
layerId = "840BD324-B0A6-42B0-BD23-CB5E8C19394F";
paths = (
{
closed = 1;
nodes = (
"1036 842 OFFCURVE",
"896 1101 OFFCURVE",
"620 1101 CURVE SMOOTH",
"344 1101 OFFCURVE",
"204 842 OFFCURVE",
"204 582 CURVE SMOOTH",
"204 326 OFFCURVE",
"340 69 OFFCURVE",
"620 69 CURVE SMOOTH",
"900 69 OFFCURVE",
"1036 326 OFFCURVE",
"1036 582 CURVE SMOOTH"
);
},
{
closed = 1;
nodes = (
"241 53 OFFCURVE",
"108 316 OFFCURVE",
"108 582 CURVE SMOOTH",
"108 883 OFFCURVE",
"279 1187 OFFCURVE",
"620 1187 CURVE SMOOTH",
"961 1187 OFFCURVE",
"1132 883 OFFCURVE",
"1132 582 CURVE SMOOTH",
"1132 286 OFFCURVE",
"967 -8 OFFCURVE",
"636 -17 CURVE",
"722 -108 LINE SMOOTH",
"754 -141 OFFCURVE",
"790 -162 OFFCURVE",
"836 -162 CURVE SMOOTH",
"882 -162 OFFCURVE",
"938 -142 OFFCURVE",
"1008 -95 CURVE SMOOTH",
"1018 -88 OFFCURVE",
"1028 -86 OFFCURVE",
"1037 -86 CURVE SMOOTH",
"1059 -86 OFFCURVE",
"1077 -108 OFFCURVE",
"1077 -130 CURVE SMOOTH",
"1077 -144 OFFCURVE",
"1070 -159 OFFCURVE",
"1054 -169 CURVE",
"1002 -218 OFFCURVE",
"901 -246 OFFCURVE",
"854 -246 CURVE SMOOTH",
"696 -246 OFFCURVE",
"646 -177 OFFCURVE",
"506 -5 CURVE"
);
}
);
width = 1240;
}
);
unicode = 0051;
},
{
glyphname = R;
lastChange = "2016-08-10 13:30:31 +0000";
layers = (
{
layerId = "840BD324-B0A6-42B0-BD23-CB5E8C19394F";
paths = (
{
closed = 1;
nodes = (
"658 41 CURVE SMOOTH",
"658 21 OFFCURVE",
"642 0 OFFCURVE",
"608 0 CURVE SMOOTH",
"209 0 LINE SMOOTH",
"175 0 OFFCURVE",
"158 21 OFFCURVE",
"158 41 CURVE SMOOTH",
"158 62 OFFCURVE",
"175 82 OFFCURVE",
"208 82 CURVE SMOOTH",
"333 82 LINE",
"333 1085 LINE",
"236 1085 LINE SMOOTH",
"203 1085 OFFCURVE",
"186 1106 OFFCURVE",
"186 1127 CURVE SMOOTH",
"186 1149 OFFCURVE",
"203 1171 OFFCURVE",
"237 1171 CURVE SMOOTH",
"557 1171 LINE SMOOTH",
"847 1171 OFFCURVE",
"1047 1124 OFFCURVE",
"1047 853 CURVE SMOOTH",
"1047 699 OFFCURVE",
"945 616 OFFCURVE",
"841 578 CURVE",
"1045 82 LINE",
"1129 82 LINE SMOOTH",
"1179 82 OFFCURVE",
"1193 62 OFFCURVE",
"1193 42 CURVE SMOOTH",
"1193 21 OFFCURVE",
"1177 0 OFFCURVE",
"1130 0 CURVE SMOOTH",
"895 0 LINE SMOOTH",
"861 0 OFFCURVE",
"844 21 OFFCURVE",
"844 42 CURVE SMOOTH",
"844 62 OFFCURVE",
"860 82 OFFCURVE",
"893 82 CURVE SMOOTH",
"944 82 LINE",
"764 556 LINE",
"750 551 OFFCURVE",
"651 542 OFFCURVE",
"604 542 CURVE SMOOTH",
"429 542 LINE",
"429 82 LINE",
"609 82 LINE SMOOTH",
"642 82 OFFCURVE",
"658 62 OFFCURVE"
);
},
{
closed = 1;
nodes = (
"429 619 LINE",
"536 619 LINE SMOOTH",
"784 619 OFFCURVE",
"951 647 OFFCURVE",
"951 846 CURVE SMOOTH",
"951 1050 OFFCURVE",
"838 1085 OFFCURVE",
"556 1085 CURVE SMOOTH",
"429 1085 LINE"
);
}
);
width = 1240;
}
);
unicode = 0052;
},
{
glyphname = S;
lastChange = "2016-08-10 13:30:31 +0000";
layers = (
{
layerId = "840BD324-B0A6-42B0-BD23-CB5E8C19394F";
paths = (
{
closed = 1;
nodes = (
"650 1101 CURVE SMOOTH",
"479 1101 OFFCURVE",
"378 1018 OFFCURVE",
"378 886 CURVE SMOOTH",
"378 748 OFFCURVE",
"453 724 OFFCURVE",
"615 668 CURVE SMOOTH",
"751 621 LINE SMOOTH",
"945 554 OFFCURVE",
"1057 479 OFFCURVE",
"1057 308 CURVE SMOOTH",
"1057 71 OFFCURVE",
"881 -17 OFFCURVE",
"689 -17 CURVE SMOOTH",
"582 -17 OFFCURVE",
"437 27 OFFCURVE",
"363 105 CURVE",
"363 28 OFFCURVE",
"347 -17 OFFCURVE",
"316 -17 CURVE SMOOTH",
"283 -17 OFFCURVE",
"268 0 OFFCURVE",
"268 57 CURVE SMOOTH",
"268 371 LINE SMOOTH",
"268 403 OFFCURVE",
"288 418 OFFCURVE",
"312 418 CURVE SMOOTH",
"336 418 OFFCURVE",
"358 402 OFFCURVE",
"358 369 CURVE SMOOTH",
"358 250 LINE SMOOTH",
"358 164 OFFCURVE",
"526 69 OFFCURVE",
"692 69 CURVE SMOOTH",
"838 69 OFFCURVE",
"961 133 OFFCURVE",
"961 304 CURVE SMOOTH",
"961 433 OFFCURVE",
"877 480 OFFCURVE",
"731 530 CURVE SMOOTH",
"567 586 LINE SMOOTH",
"410 640 OFFCURVE",
"282 697 OFFCURVE",
"282 881 CURVE SMOOTH",
"282 1081 OFFCURVE",
"439 1187 OFFCURVE",
"627 1187 CURVE SMOOTH",
"723 1187 OFFCURVE",
"848 1171 OFFCURVE",
"917 1095 CURVE",
"917 1154 OFFCURVE",
"931 1187 OFFCURVE",
"969 1187 CURVE SMOOTH",
"996 1187 OFFCURVE",
"1009 1169 OFFCURVE",
"1009 1117 CURVE SMOOTH",
"1009 864 LINE SMOOTH",
"1009 828 OFFCURVE",
"988 811 OFFCURVE",
"963 811 CURVE SMOOTH",
"940 811 OFFCURVE",
"918 827 OFFCURVE",
"918 858 CURVE SMOOTH",
"918 949 LINE",
"906 1053 OFFCURVE",
"767 1101 OFFCURVE"
);
}
);
width = 1240;
}
);
unicode = 0053;
},
{
glyphname = T;
lastChange = "2016-08-10 13:30:31 +0000";
layers = (
{
layerId = "840BD324-B0A6-42B0-BD23-CB5E8C19394F";
paths = (
{
closed = 1;
nodes = (
"210 814 LINE SMOOTH",
"208 783 OFFCURVE",
"189 769 OFFCURVE",
"169 769 CURVE SMOOTH",
"145 769 OFFCURVE",
"120 788 OFFCURVE",
"120 823 CURVE SMOOTH",
"120 1117 LINE SMOOTH",
"120 1153 OFFCURVE",
"131 1171 OFFCURVE",
"162 1171 CURVE SMOOTH",
"1078 1171 LINE SMOOTH",
"1107 1171 OFFCURVE",
"1118 1152 OFFCURVE",
"1118 1117 CURVE SMOOTH",
"1118 823 LINE SMOOTH",
"1118 788 OFFCURVE",
"1095 771 OFFCURVE",
"1072 771 CURVE SMOOTH",
"1051 771 OFFCURVE",
"1030 786 OFFCURVE",
"1028 814 CURVE SMOOTH",
"1018 1085 LINE",
"666 1085 LINE",
"666 86 LINE",
"908 86 LINE SMOOTH",
"940 86 OFFCURVE",
"957 65 OFFCURVE",
"957 44 CURVE SMOOTH",
"957 22 OFFCURVE",
"939 0 OFFCURVE",
"906 0 CURVE SMOOTH",
"330 0 LINE SMOOTH",
"296 0 OFFCURVE",
"278 22 OFFCURVE",
"278 44 CURVE SMOOTH",
"278 65 OFFCURVE",
"295 86 OFFCURVE",
"328 86 CURVE SMOOTH",
"570 86 LINE",
"570 1085 LINE",
"222 1085 LINE"
);
}
);
width = 1240;
}
);
unicode = 0054;
},
{
glyphname = Tbar;
lastChange = "2016-08-10 13:30:31 +0000";
layers = (
{
components = (
{
name = T;
}
);
layerId = "840BD324-B0A6-42B0-BD23-CB5E8C19394F";
paths = (
{
closed = 1;
nodes = (
"839 648 LINE SMOOTH",
"872 648 OFFCURVE",
"878 630 OFFCURVE",
"878 611 CURVE SMOOTH",
"878 592 OFFCURVE",
"870 572 OFFCURVE",
"837 572 CURVE SMOOTH",
"404 572 LINE SMOOTH",
"367 572 OFFCURVE",
"358 592 OFFCURVE",
"358 611 CURVE SMOOTH",
"358 630 OFFCURVE",
"365 648 OFFCURVE",
"400 648 CURVE SMOOTH"
);
}
);
width = 1240;
}
);
unicode = 0166;
},
{
glyphname = U;
lastChange = "2016-08-10 13:30:31 +0000";
layers = (
{
layerId = "840BD324-B0A6-42B0-BD23-CB5E8C19394F";
paths = (
{
closed = 1;
nodes = (
"654 -17 CURVE SMOOTH",
"415 -17 OFFCURVE",
"249 142 OFFCURVE",
"249 413 CURVE SMOOTH",
"249 1085 LINE",
"104 1085 LINE SMOOTH",
"71 1085 OFFCURVE",
"55 1106 OFFCURVE",
"55 1127 CURVE SMOOTH",
"55 1149 OFFCURVE",
"72 1171 OFFCURVE",
"105 1171 CURVE SMOOTH",
"506 1171 LINE SMOOTH",
"539 1171 OFFCURVE",
"556 1149 OFFCURVE",
"556 1127 CURVE SMOOTH",
"556 1106 OFFCURVE",
"540 1085 OFFCURVE",
"507 1085 CURVE SMOOTH",
"345 1085 LINE",
"345 413 LINE SMOOTH",
"345 195 OFFCURVE",
"455 69 OFFCURVE",
"654 69 CURVE SMOOTH",
"840 69 OFFCURVE",
"960 211 OFFCURVE",
"960 411 CURVE SMOOTH",
"960 1085 LINE",
"839 1085 LINE SMOOTH",
"806 1085 OFFCURVE",
"789 1106 OFFCURVE",
"789 1127 CURVE SMOOTH",
"789 1149 OFFCURVE",
"806 1171 OFFCURVE",
"840 1171 CURVE SMOOTH",
"1173 1171 LINE SMOOTH",
"1220 1171 OFFCURVE",
"1243 1149 OFFCURVE",
"1243 1127 CURVE SMOOTH",
"1243 1106 OFFCURVE",
"1220 1085 OFFCURVE",
"1174 1085 CURVE SMOOTH",
"1056 1085 LINE",
"1056 411 LINE SMOOTH",
"1056 157 OFFCURVE",
"893 -17 OFFCURVE"
);
}
);
width = 1240;
}
);
unicode = 0055;
},
{
glyphname = V;
lastChange = "2016-08-10 13:30:31 +0000";
layers = (
{
layerId = "840BD324-B0A6-42B0-BD23-CB5E8C19394F";
paths = (
{
closed = 1;
nodes = (
"1131 1171 LINE SMOOTH",
"1164 1171 OFFCURVE",
"1181 1150 OFFCURVE",
"1181 1128 CURVE SMOOTH",
"1181 1107 OFFCURVE",
"1165 1085 OFFCURVE",
"1132 1085 CURVE SMOOTH",
"1046 1085 LINE",
"730 20 LINE",
"714 -16 OFFCURVE",
"702 -36 OFFCURVE",
"666 -36 CURVE SMOOTH",
"630 -36 OFFCURVE",
"613 -13 OFFCURVE",
"602 20 CURVE SMOOTH",
"260 1085 LINE",
"156 1085 LINE SMOOTH",
"124 1085 OFFCURVE",
"108 1106 OFFCURVE",
"108 1127 CURVE SMOOTH",
"108 1149 OFFCURVE",
"125 1171 OFFCURVE",
"158 1171 CURVE SMOOTH",
"498 1171 LINE SMOOTH",
"531 1171 OFFCURVE",
"548 1150 OFFCURVE",
"548 1128 CURVE SMOOTH",
"548 1107 OFFCURVE",
"532 1085 OFFCURVE",
"499 1085 CURVE SMOOTH",
"368 1085 LINE",
"671 119 LINE",
"946 1085 LINE",
"826 1085 LINE SMOOTH",
"793 1085 OFFCURVE",
"776 1107 OFFCURVE",
"776 1128 CURVE SMOOTH",
"776 1150 OFFCURVE",
"793 1171 OFFCURVE",
"827 1171 CURVE SMOOTH"
);
}
);
width = 1240;
}
);
unicode = 0056;
},
{
glyphname = W;
lastChange = "2016-08-10 13:30:31 +0000";
layers = (
{
layerId = "840BD324-B0A6-42B0-BD23-CB5E8C19394F";
paths = (
{
closed = 1;
nodes = (
"873 1085 LINE SMOOTH",
"840 1085 OFFCURVE",
"823 1107 OFFCURVE",
"823 1129 CURVE SMOOTH",
"823 1150 OFFCURVE",
"839 1171 OFFCURVE",
"872 1171 CURVE SMOOTH",
"1151 1171 LINE SMOOTH",
"1184 1171 OFFCURVE",
"1201 1150 OFFCURVE",
"1201 1129 CURVE SMOOTH",
"1201 1107 OFFCURVE",
"1184 1085 OFFCURVE",
"1150 1085 CURVE SMOOTH",
"1080 1085 LINE",
"916 27 LINE SMOOTH",
"911 -3 OFFCURVE",
"889 -17 OFFCURVE",
"864 -17 CURVE SMOOTH",
"843 -17 OFFCURVE",
"820 1 OFFCURVE",
"811 35 CURVE SMOOTH",
"641 701 LINE",
"454 27 LINE SMOOTH",
"446 -3 OFFCURVE",
"425 -17 OFFCURVE",
"403 -17 CURVE SMOOTH",
"379 -17 OFFCURVE",
"355 1 OFFCURVE",
"351 35 CURVE",
"185 1085 LINE",
"101 1085 LINE SMOOTH",
"68 1085 OFFCURVE",
"51 1107 OFFCURVE",
"51 1129 CURVE SMOOTH",
"51 1150 OFFCURVE",
"67 1171 OFFCURVE",
"100 1171 CURVE SMOOTH",
"402 1171 LINE SMOOTH",
"435 1171 OFFCURVE",
"451 1150 OFFCURVE",
"451 1129 CURVE SMOOTH",
"451 1107 OFFCURVE",
"434 1085 OFFCURVE",
"400 1085 CURVE SMOOTH",
"286 1085 LINE",
"424 199 LINE",
"601 850 LINE SMOOTH",
"607 874 OFFCURVE",
"627 886 OFFCURVE",
"646 886 CURVE SMOOTH",
"665 886 OFFCURVE",
"683 874 OFFCURVE",
"689 850 CURVE SMOOTH",
"858 196 LINE",
"980 1085 LINE"
);
}
);
width = 1240;
}
);
unicode = 0057;
},
{
glyphname = X;
lastChange = "2016-08-10 13:30:31 +0000";
layers = (
{
layerId = "840BD324-B0A6-42B0-BD23-CB5E8C19394F";
paths = (
{
closed = 1;
nodes = (
"1094 1171 LINE SMOOTH",
"1127 1171 OFFCURVE",
"1134 1149 OFFCURVE",
"1134 1127 CURVE SMOOTH",
"1134 1106 OFFCURVE",
"1128 1085 OFFCURVE",
"1095 1085 CURVE SMOOTH",
"1022 1085 LINE",
"686 589 LINE",
"1027 82 LINE",
"1100 82 LINE SMOOTH",
"1133 82 OFFCURVE",
"1139 62 OFFCURVE",
"1139 42 CURVE SMOOTH",
"1139 21 OFFCURVE",
"1132 0 OFFCURVE",
"1098 0 CURVE SMOOTH",
"766 0 LINE SMOOTH",
"733 0 OFFCURVE",
"716 20 OFFCURVE",
"716 41 CURVE SMOOTH",
"716 61 OFFCURVE",
"732 82 OFFCURVE",
"765 82 CURVE SMOOTH",
"921 82 LINE",
"632 510 LINE",
"342 82 LINE",
"491 82 LINE SMOOTH",
"524 82 OFFCURVE",
"530 61 OFFCURVE",
"530 41 CURVE SMOOTH",
"530 20 OFFCURVE",
"523 0 OFFCURVE",
"490 0 CURVE SMOOTH",
"142 0 LINE SMOOTH",
"109 0 OFFCURVE",
"102 20 OFFCURVE",
"102 41 CURVE SMOOTH",
"102 61 OFFCURVE",
"108 82 OFFCURVE",
"141 82 CURVE SMOOTH",
"226 82 LINE",
"574 596 LINE",
"245 1085 LINE",
"163 1085 LINE SMOOTH",
"130 1085 OFFCURVE",
"124 1106 OFFCURVE",
"124 1127 CURVE SMOOTH",
"124 1149 OFFCURVE",
"131 1171 OFFCURVE",
"164 1171 CURVE SMOOTH",
"500 1171 LINE SMOOTH",
"533 1171 OFFCURVE",
"540 1149 OFFCURVE",
"540 1127 CURVE SMOOTH",
"540 1106 OFFCURVE",
"534 1085 OFFCURVE",
"501 1085 CURVE SMOOTH",
"353 1085 LINE",
"628 676 LINE",
"905 1085 LINE",
"804 1085 LINE SMOOTH",
"771 1085 OFFCURVE",
"765 1106 OFFCURVE",
"765 1127 CURVE SMOOTH",
"765 1149 OFFCURVE",
"772 1171 OFFCURVE",
"805 1171 CURVE SMOOTH"
);
}
);
width = 1240;
}
);
unicode = 0058;
},
{
glyphname = Y;
lastChange = "2016-08-10 13:30:31 +0000";
layers = (
{
layerId = "840BD324-B0A6-42B0-BD23-CB5E8C19394F";
paths = (
{
closed = 1;
nodes = (
"1065 1171 LINE SMOOTH",
"1099 1171 OFFCURVE",
"1116 1151 OFFCURVE",
"1116 1132 CURVE SMOOTH",
"1116 1113 OFFCURVE",
"1100 1095 OFFCURVE",
"1067 1095 CURVE SMOOTH",
"1012 1095 LINE",
"689 548 LINE",
"689 86 LINE",
"921 86 LINE SMOOTH",
"953 86 OFFCURVE",
"969 65 OFFCURVE",
"969 44 CURVE SMOOTH",
"969 22 OFFCURVE",
"952 0 OFFCURVE",
"919 0 CURVE SMOOTH",
"334 0 LINE SMOOTH",
"300 0 OFFCURVE",
"282 22 OFFCURVE",
"282 44 CURVE SMOOTH",
"282 65 OFFCURVE",
"299 86 OFFCURVE",
"332 86 CURVE SMOOTH",
"593 86 LINE",
"593 553 LINE",
"258 1095 LINE",
"174 1095 LINE SMOOTH",
"141 1095 OFFCURVE",
"124 1114 OFFCURVE",
"124 1133 CURVE SMOOTH",
"124 1152 OFFCURVE",
"142 1171 OFFCURVE",
"175 1171 CURVE SMOOTH",
"505 1171 LINE SMOOTH",
"539 1171 OFFCURVE",
"556 1152 OFFCURVE",
"556 1133 CURVE SMOOTH",
"556 1114 OFFCURVE",
"539 1095 OFFCURVE",
"506 1095 CURVE SMOOTH",
"370 1095 LINE",
"646 633 LINE",
"914 1095 LINE",
"803 1095 LINE SMOOTH",
"770 1095 OFFCURVE",
"753 1114 OFFCURVE",
"753 1133 CURVE SMOOTH",
"753 1152 OFFCURVE",
"771 1171 OFFCURVE",
"804 1171 CURVE SMOOTH"
);
}
);
width = 1240;
}
);
unicode = 0059;
},
{
glyphname = Z;
lastChange = "2016-08-10 13:30:31 +0000";
layers = (
{
layerId = "840BD324-B0A6-42B0-BD23-CB5E8C19394F";
paths = (
{
closed = 1;
nodes = (
"254 806 CURVE SMOOTH",
"254 1116 LINE",
"255 1144 OFFCURVE",
"271 1171 OFFCURVE",
"322 1171 CURVE SMOOTH",
"952 1171 LINE SMOOTH",
"984 1171 OFFCURVE",
"1001 1144 OFFCURVE",
"1001 1116 CURVE SMOOTH",
"1001 1104 OFFCURVE",
"998 1092 OFFCURVE",
"991 1081 CURVE SMOOTH",
"369 86 LINE",
"942 86 LINE",
"942 384 LINE",
"944 416 OFFCURVE",
"970 435 OFFCURVE",
"993 435 CURVE SMOOTH",
"1014 435 OFFCURVE",
"1034 420 OFFCURVE",
"1034 385 CURVE",
"1044 53 LINE SMOOTH",
"1045 19 OFFCURVE",
"1022 0 OFFCURVE",
"993 0 CURVE SMOOTH",
"271 0 LINE SMOOTH",
"232 0 OFFCURVE",
"219 14 OFFCURVE",
"219 31 CURVE SMOOTH",
"219 53 OFFCURVE",
"239 81 OFFCURVE",
"247 95 CURVE SMOOTH",
"880 1085 LINE",
"366 1085 LINE",
"350 797 LINE SMOOTH",
"349 770 OFFCURVE",
"327 757 OFFCURVE",
"305 757 CURVE SMOOTH",
"280 757 OFFCURVE",
"254 774 OFFCURVE"
);
}
);
width = 1240;
}
);
unicode = 005A;
},
{
glyphname = uni01C4;
lastChange = "2016-08-10 13:30:31 +0000";
layers = (
{
layerId = "840BD324-B0A6-42B0-BD23-CB5E8C19394F";
paths = (
{
closed = 1;
nodes = (
"235 86 LINE",
"496 86 OFFCURVE",
"553 256 OFFCURVE",
"553 591 CURVE SMOOTH",
"553 907 OFFCURVE",
"488 1085 OFFCURVE",
"235 1085 CURVE"
);
},
{
closed = 1;
nodes = (
"1111 0 CURVE SMOOTH",
"739 0 LINE SMOOTH",
"715 0 OFFCURVE",
"704 14 OFFCURVE",
"704 39 CURVE SMOOTH",
"704 54 OFFCURVE",
"708 73 OFFCURVE",
"715 95 CURVE SMOOTH",
"1038 1085 LINE",
"818 1085 LINE",
"818 857 LINE SMOOTH",
"818 830 OFFCURVE",
"795 817 OFFCURVE",
"773 817 CURVE SMOOTH",
"748 817 OFFCURVE",
"732 834 OFFCURVE",
"732 866 CURVE SMOOTH",
"732 1116 LINE",
"733 1144 OFFCURVE",
"739 1171 OFFCURVE",
"790 1171 CURVE SMOOTH",
"1090 1171 LINE SMOOTH",
"1125 1171 OFFCURVE",
"1132 1137 OFFCURVE",
"1132 1111 CURVE SMOOTH",
"1132 1097 OFFCURVE",
"1130 1085 OFFCURVE",
"1129 1081 CURVE SMOOTH",
"811 86 LINE",
"1070 86 LINE",
"1070 314 LINE",
"1072 346 OFFCURVE",
"1093 363 OFFCURVE",
"1116 363 CURVE SMOOTH",
"1137 363 OFFCURVE",
"1162 350 OFFCURVE",
"1162 315 CURVE SMOOTH",
"1162 53 LINE",
"1163 19 OFFCURVE",
"1140 0 OFFCURVE"
);
},
{
closed = 1;
nodes = (
"228 0 CURVE SMOOTH",
"115 0 LINE SMOOTH",
"81 0 OFFCURVE",
"64 21 OFFCURVE",
"64 43 CURVE SMOOTH",
"64 64 OFFCURVE",
"81 86 OFFCURVE",
"114 86 CURVE SMOOTH",
"139 86 LINE",
"139 1085 LINE",
"118 1085 LINE SMOOTH",
"86 1085 OFFCURVE",
"70 1106 OFFCURVE",
"70 1127 CURVE SMOOTH",
"70 1149 OFFCURVE",
"87 1171 OFFCURVE",
"120 1171 CURVE SMOOTH",
"230 1171 LINE SMOOTH",
"525 1171 OFFCURVE",
"649 993 OFFCURVE",
"649 591 CURVE SMOOTH",
"649 168 OFFCURVE",
"519 0 OFFCURVE"
);
},
{
closed = 1;
nodes = (
"985 1320 LINE",
"980 1312 OFFCURVE",
"966 1309 OFFCURVE",
"953 1309 CURVE SMOOTH",
"940 1309 OFFCURVE",
"927 1312 OFFCURVE",
"922 1320 CURVE SMOOTH",
"758 1603 LINE",
"753 1608 OFFCURVE",
"751 1615 OFFCURVE",
"751 1620 CURVE SMOOTH",
"751 1636 OFFCURVE",
"770 1650 OFFCURVE",
"788 1650 CURVE SMOOTH",
"796 1650 OFFCURVE",
"806 1649 OFFCURVE",
"811 1641 CURVE SMOOTH",
"953 1432 LINE",
"1066 1641 LINE SMOOTH",
"1071 1649 OFFCURVE",
"1081 1650 OFFCURVE",
"1089 1650 CURVE SMOOTH",
"1107 1650 OFFCURVE",
"1126 1636 OFFCURVE",
"1126 1620 CURVE SMOOTH",
"1126 1615 OFFCURVE",
"1124 1608 OFFCURVE",
"1119 1603 CURVE"
);
}
);
width = 1240;
}
);
unicode = 01C4;
},
{
glyphname = uni01C5;
lastChange = "2016-08-10 13:30:31 +0000";
layers = (
{
components = (
{
name = caron;
transform = "{1, 0, 0, 1, 258, -44}";
}
);
layerId = "840BD324-B0A6-42B0-BD23-CB5E8C19394F";
paths = (
{
closed = 1;
nodes = (
"1089 772 LINE SMOOTH",
"1135 772 OFFCURVE",
"1150 750 OFFCURVE",
"1150 727 CURVE SMOOTH",
"1150 710 OFFCURVE",
"1138 695 OFFCURVE",
"1132 682 CURVE SMOOTH",
"860 82 LINE",
"1065 82 LINE",
"1076 259 LINE SMOOTH",
"1077 283 OFFCURVE",
"1099 297 OFFCURVE",
"1120 297 CURVE SMOOTH",
"1141 297 OFFCURVE",
"1161 284 OFFCURVE",
"1161 255 CURVE SMOOTH",
"1161 46 LINE SMOOTH",
"1161 21 OFFCURVE",
"1134 0 OFFCURVE",
"1110 0 CURVE SMOOTH",
"806 0 LINE SMOOTH",
"768 0 OFFCURVE",
"750 24 OFFCURVE",
"750 59 CURVE SMOOTH",
"750 81 OFFCURVE",
"761 97 OFFCURVE",
"767 109 CURVE SMOOTH",
"1034 692 LINE",
"831 692 LINE",
"823 535 LINE SMOOTH",
"822 505 OFFCURVE",
"802 490 OFFCURVE",
"781 490 CURVE SMOOTH",
"759 490 OFFCURVE",
"736 507 OFFCURVE",
"736 540 CURVE SMOOTH",
"736 726 LINE SMOOTH",
"736 750 OFFCURVE",
"758 772 OFFCURVE",
"782 772 CURVE SMOOTH"
);
},
{
closed = 1;
nodes = (
"235 86 LINE",
"496 86 OFFCURVE",
"553 256 OFFCURVE",
"553 591 CURVE SMOOTH",
"553 907 OFFCURVE",
"488 1085 OFFCURVE",
"235 1085 CURVE"
);
},
{
closed = 1;
nodes = (
"228 0 CURVE SMOOTH",
"115 0 LINE SMOOTH",
"81 0 OFFCURVE",
"64 21 OFFCURVE",
"64 43 CURVE SMOOTH",
"64 64 OFFCURVE",
"81 86 OFFCURVE",
"114 86 CURVE SMOOTH",
"139 86 LINE",
"139 1085 LINE",
"118 1085 LINE SMOOTH",
"86 1085 OFFCURVE",
"70 1106 OFFCURVE",
"70 1127 CURVE SMOOTH",
"70 1149 OFFCURVE",
"87 1171 OFFCURVE",
"120 1171 CURVE SMOOTH",
"230 1171 LINE SMOOTH",
"525 1171 OFFCURVE",
"649 993 OFFCURVE",
"649 591 CURVE SMOOTH",
"649 168 OFFCURVE",
"519 0 OFFCURVE"
);
}
);
width = 1240;
}
);
unicode = 01C5;
},
{
glyphname = uni01C7;
lastChange = "2016-08-10 13:30:31 +0000";
layers = (
{
layerId = "840BD324-B0A6-42B0-BD23-CB5E8C19394F";
paths = (
{
closed = 1;
nodes = (
"349 1171 LINE SMOOTH",
"383 1171 OFFCURVE",
"400 1149 OFFCURVE",
"400 1127 CURVE SMOOTH",
"400 1106 OFFCURVE",
"383 1085 OFFCURVE",
"350 1085 CURVE SMOOTH",
"198 1085 LINE",
"198 86 LINE",
"475 86 LINE SMOOTH",
"483 86 OFFCURVE",
"482 88 OFFCURVE",
"483 99 CURVE SMOOTH",
"490 389 LINE",
"494 418 OFFCURVE",
"517 432 OFFCURVE",
"540 432 CURVE SMOOTH",
"566 432 OFFCURVE",
"591 415 OFFCURVE",
"591 383 CURVE SMOOTH",
"591 66 LINE",
"586 29 OFFCURVE",
"562 0 OFFCURVE",
"519 0 CURVE SMOOTH",
"64 0 LINE SMOOTH",
"30 0 OFFCURVE",
"13 21 OFFCURVE",
"13 43 CURVE SMOOTH",
"13 64 OFFCURVE",
"30 86 OFFCURVE",
"63 86 CURVE SMOOTH",
"102 86 LINE",
"102 1085 LINE",
"55 1085 LINE SMOOTH",
"22 1085 OFFCURVE",
"6 1106 OFFCURVE",
"6 1127 CURVE SMOOTH",
"6 1149 OFFCURVE",
"23 1171 OFFCURVE",
"56 1171 CURVE SMOOTH"
);
},
{
closed = 1;
nodes = (
"1154 367 LINE SMOOTH",
"1154 72 OFFCURVE",
"1083 -13 OFFCURVE",
"890 -13 CURVE SMOOTH",
"758 -13 OFFCURVE",
"677 56 OFFCURVE",
"677 171 CURVE SMOOTH",
"677 283 LINE SMOOTH",
"677 312 OFFCURVE",
"702 328 OFFCURVE",
"726 328 CURVE SMOOTH",
"750 328 OFFCURVE",
"773 313 OFFCURVE",
"773 283 CURVE SMOOTH",
"773 170 LINE SMOOTH",
"773 102 OFFCURVE",
"811 68 OFFCURVE",
"899 68 CURVE SMOOTH",
"1030 68 OFFCURVE",
"1058 134 OFFCURVE",
"1058 364 CURVE SMOOTH",
"1058 1085 LINE",
"778 1085 LINE SMOOTH",
"746 1085 OFFCURVE",
"730 1106 OFFCURVE",
"730 1127 CURVE SMOOTH",
"730 1149 OFFCURVE",
"746 1171 OFFCURVE",
"779 1171 CURVE SMOOTH",
"1224 1171 LINE SMOOTH",
"1257 1171 OFFCURVE",
"1274 1150 OFFCURVE",
"1274 1128 CURVE SMOOTH",
"1274 1107 OFFCURVE",
"1258 1085 OFFCURVE",
"1225 1085 CURVE SMOOTH",
"1154 1085 LINE"
);
}
);
width = 1240;
}
);
unicode = 01C7;
},
{
glyphname = uni01C8;
lastChange = "2016-08-10 13:30:31 +0000";
layers = (
{
layerId = "840BD324-B0A6-42B0-BD23-CB5E8C19394F";
paths = (
{
closed = 1;
nodes = (
"1022 1171 CURVE SMOOTH",
"1068 1171 OFFCURVE",
"1104 1134 OFFCURVE",
"1104 1088 CURVE SMOOTH",
"1104 1042 OFFCURVE",
"1068 1006 OFFCURVE",
"1022 1006 CURVE SMOOTH",
"976 1006 OFFCURVE",
"939 1042 OFFCURVE",
"939 1088 CURVE SMOOTH",
"939 1134 OFFCURVE",
"976 1171 OFFCURVE"
);
},
{
closed = 1;
nodes = (
"464 1171 LINE SMOOTH",
"498 1171 OFFCURVE",
"515 1149 OFFCURVE",
"515 1127 CURVE SMOOTH",
"515 1106 OFFCURVE",
"498 1085 OFFCURVE",
"465 1085 CURVE SMOOTH",
"353 1085 LINE",
"353 86 LINE",
"645 86 LINE",
"667 88 OFFCURVE",
"683 92 OFFCURVE",
"686 123 CURVE SMOOTH",
"720 399 LINE SMOOTH",
"724 428 OFFCURVE",
"747 442 OFFCURVE",
"770 442 CURVE SMOOTH",
"796 442 OFFCURVE",
"821 425 OFFCURVE",
"821 393 CURVE SMOOTH",
"821 387 LINE",
"791 66 LINE",
"786 29 OFFCURVE",
"762 0 OFFCURVE",
"719 0 CURVE SMOOTH",
"113 0 LINE SMOOTH",
"79 0 OFFCURVE",
"62 21 OFFCURVE",
"62 43 CURVE SMOOTH",
"62 64 OFFCURVE",
"79 86 OFFCURVE",
"112 86 CURVE SMOOTH",
"257 86 LINE",
"257 1085 LINE",
"154 1085 LINE SMOOTH",
"121 1085 OFFCURVE",
"105 1106 OFFCURVE",
"105 1127 CURVE SMOOTH",
"105 1149 OFFCURVE",
"122 1171 OFFCURVE",
"155 1171 CURVE SMOOTH"
);
},
{
closed = 1;
nodes = (
"728 -309 CURVE SMOOTH",
"695 -309 OFFCURVE",
"677 -287 OFFCURVE",
"677 -265 CURVE SMOOTH",
"677 -243 OFFCURVE",
"696 -220 OFFCURVE",
"735 -220 CURVE SMOOTH",
"910 -220 OFFCURVE",
"1020 -155 OFFCURVE",
"1020 0 CURVE SMOOTH",
"1020 732 LINE",
"754 732 LINE SMOOTH",
"725 732 OFFCURVE",
"710 754 OFFCURVE",
"710 775 CURVE SMOOTH",
"710 795 OFFCURVE",
"724 814 OFFCURVE",
"750 814 CURVE SMOOTH",
"1080 814 LINE SMOOTH",
"1100 814 OFFCURVE",
"1116 806 OFFCURVE",
"1116 785 CURVE SMOOTH",
"1116 -10 LINE SMOOTH",
"1116 -198 OFFCURVE",
"973 -309 OFFCURVE"
);
}
);
width = 1240;
}
);
unicode = 01C8;
},
{
glyphname = uni01CA;
lastChange = "2016-08-10 13:30:31 +0000";
layers = (
{
layerId = "840BD324-B0A6-42B0-BD23-CB5E8C19394F";
paths = (
{
closed = 1;
nodes = (
"79 1085 LINE SMOOTH",
"46 1085 OFFCURVE",
"30 1106 OFFCURVE",
"30 1127 CURVE SMOOTH",
"30 1149 OFFCURVE",
"47 1171 OFFCURVE",
"80 1171 CURVE SMOOTH",
"262 1171 LINE SMOOTH",
"284 1171 OFFCURVE",
"296 1164 OFFCURVE",
"302 1147 CURVE SMOOTH",
"583 282 LINE",
"583 1085 LINE",
"504 1085 LINE SMOOTH",
"471 1085 OFFCURVE",
"455 1106 OFFCURVE",
"455 1127 CURVE SMOOTH",
"455 1149 OFFCURVE",
"472 1171 OFFCURVE",
"506 1171 CURVE SMOOTH",
"1224 1171 LINE SMOOTH",
"1257 1171 OFFCURVE",
"1274 1150 OFFCURVE",
"1274 1128 CURVE SMOOTH",
"1274 1107 OFFCURVE",
"1258 1085 OFFCURVE",
"1225 1085 CURVE SMOOTH",
"1154 1085 LINE",
"1154 307 LINE SMOOTH",
"1154 48 OFFCURVE",
"1055 -14 OFFCURVE",
"951 -14 CURVE SMOOTH",
"876 -14 OFFCURVE",
"787 48 OFFCURVE",
"787 181 CURVE SMOOTH",
"787 233 LINE SMOOTH",
"787 262 OFFCURVE",
"812 278 OFFCURVE",
"836 278 CURVE SMOOTH",
"860 278 OFFCURVE",
"883 263 OFFCURVE",
"883 233 CURVE SMOOTH",
"883 180 LINE SMOOTH",
"883 86 OFFCURVE",
"933 68 OFFCURVE",
"964 68 CURVE SMOOTH",
"1015 68 OFFCURVE",
"1058 103 OFFCURVE",
"1058 304 CURVE SMOOTH",
"1058 1085 LINE",
"679 1085 LINE",
"679 47 LINE SMOOTH",
"679 4 OFFCURVE",
"656 -16 OFFCURVE",
"630 -16 CURVE SMOOTH",
"609 -16 OFFCURVE",
"583 -3 OFFCURVE",
"574 22 CURVE SMOOTH",
"231 1064 LINE",
"231 86 LINE",
"299 86 LINE SMOOTH",
"332 86 OFFCURVE",
"348 64 OFFCURVE",
"348 43 CURVE SMOOTH",
"348 21 OFFCURVE",
"331 0 OFFCURVE",
"298 0 CURVE SMOOTH",
"100 0 LINE SMOOTH",
"67 0 OFFCURVE",
"50 21 OFFCURVE",
"50 43 CURVE SMOOTH",
"50 64 OFFCURVE",
"66 86 OFFCURVE",
"99 86 CURVE SMOOTH",
"135 86 LINE",
"135 1085 LINE"
);
}
);
width = 1240;
}
);
unicode = 01CA;
},
{
glyphname = uni01CB;
lastChange = "2016-08-10 13:30:31 +0000";
layers = (
{
layerId = "840BD324-B0A6-42B0-BD23-CB5E8C19394F";
paths = (
{
closed = 1;
nodes = (
"1052 1171 CURVE SMOOTH",
"1098 1171 OFFCURVE",
"1134 1134 OFFCURVE",
"1134 1088 CURVE SMOOTH",
"1134 1042 OFFCURVE",
"1098 1006 OFFCURVE",
"1052 1006 CURVE SMOOTH",
"1006 1006 OFFCURVE",
"969 1042 OFFCURVE",
"969 1088 CURVE SMOOTH",
"969 1134 OFFCURVE",
"1006 1171 OFFCURVE"
);
},
{
closed = 1;
nodes = (
"748 -309 CURVE SMOOTH",
"715 -309 OFFCURVE",
"697 -287 OFFCURVE",
"697 -265 CURVE SMOOTH",
"697 -243 OFFCURVE",
"716 -220 OFFCURVE",
"755 -220 CURVE SMOOTH",
"930 -220 OFFCURVE",
"1040 -155 OFFCURVE",
"1040 0 CURVE SMOOTH",
"1040 732 LINE",
"854 732 LINE SMOOTH",
"825 732 OFFCURVE",
"810 754 OFFCURVE",
"810 775 CURVE SMOOTH",
"810 795 OFFCURVE",
"824 814 OFFCURVE",
"850 814 CURVE SMOOTH",
"1100 814 LINE SMOOTH",
"1120 814 OFFCURVE",
"1136 806 OFFCURVE",
"1136 785 CURVE SMOOTH",
"1136 -10 LINE SMOOTH",
"1136 -198 OFFCURVE",
"993 -309 OFFCURVE"
);
},
{
closed = 1;
nodes = (
"79 1085 LINE SMOOTH",
"46 1085 OFFCURVE",
"30 1106 OFFCURVE",
"30 1127 CURVE SMOOTH",
"30 1149 OFFCURVE",
"47 1171 OFFCURVE",
"80 1171 CURVE SMOOTH",
"292 1171 LINE SMOOTH",
"314 1171 OFFCURVE",
"326 1164 OFFCURVE",
"332 1147 CURVE SMOOTH",
"643 282 LINE",
"643 1085 LINE",
"564 1085 LINE SMOOTH",
"531 1085 OFFCURVE",
"515 1106 OFFCURVE",
"515 1127 CURVE SMOOTH",
"515 1149 OFFCURVE",
"532 1171 OFFCURVE",
"566 1171 CURVE SMOOTH",
"793 1171 LINE SMOOTH",
"826 1171 OFFCURVE",
"843 1149 OFFCURVE",
"843 1127 CURVE SMOOTH",
"843 1106 OFFCURVE",
"827 1085 OFFCURVE",
"795 1085 CURVE SMOOTH",
"739 1085 LINE",
"739 47 LINE SMOOTH",
"739 4 OFFCURVE",
"716 -16 OFFCURVE",
"690 -16 CURVE SMOOTH",
"669 -16 OFFCURVE",
"643 -3 OFFCURVE",
"634 22 CURVE SMOOTH",
"261 1064 LINE",
"261 86 LINE",
"329 86 LINE SMOOTH",
"362 86 OFFCURVE",
"378 64 OFFCURVE",
"378 43 CURVE SMOOTH",
"378 21 OFFCURVE",
"361 0 OFFCURVE",
"328 0 CURVE SMOOTH",
"100 0 LINE SMOOTH",
"67 0 OFFCURVE",
"50 21 OFFCURVE",
"50 43 CURVE SMOOTH",
"50 64 OFFCURVE",
"66 86 OFFCURVE",
"99 86 CURVE SMOOTH",
"165 86 LINE",
"165 1085 LINE"
);
}
);
width = 1240;
}
);
unicode = 01CB;
},
{
glyphname = uni01F1;
lastChange = "2016-08-10 13:30:31 +0000";
layers = (
{
layerId = "840BD324-B0A6-42B0-BD23-CB5E8C19394F";
paths = (
{
closed = 1;
nodes = (
"235 86 LINE",
"496 86 OFFCURVE",
"553 256 OFFCURVE",
"553 591 CURVE SMOOTH",
"553 907 OFFCURVE",
"488 1085 OFFCURVE",
"235 1085 CURVE"
);
},
{
closed = 1;
nodes = (
"1111 0 CURVE SMOOTH",
"739 0 LINE SMOOTH",
"715 0 OFFCURVE",
"704 14 OFFCURVE",
"704 39 CURVE SMOOTH",
"704 54 OFFCURVE",
"708 73 OFFCURVE",
"715 95 CURVE SMOOTH",
"1038 1085 LINE",
"818 1085 LINE",
"818 857 LINE SMOOTH",
"818 830 OFFCURVE",
"795 817 OFFCURVE",
"773 817 CURVE SMOOTH",
"748 817 OFFCURVE",
"732 834 OFFCURVE",
"732 866 CURVE SMOOTH",
"732 1116 LINE",
"733 1144 OFFCURVE",
"739 1171 OFFCURVE",
"790 1171 CURVE SMOOTH",
"1090 1171 LINE SMOOTH",
"1125 1171 OFFCURVE",
"1132 1137 OFFCURVE",
"1132 1111 CURVE SMOOTH",
"1132 1097 OFFCURVE",
"1130 1085 OFFCURVE",
"1129 1081 CURVE SMOOTH",
"811 86 LINE",
"1070 86 LINE",
"1070 314 LINE",
"1072 346 OFFCURVE",
"1093 363 OFFCURVE",
"1116 363 CURVE SMOOTH",
"1137 363 OFFCURVE",
"1162 350 OFFCURVE",
"1162 315 CURVE SMOOTH",
"1162 53 LINE",
"1163 19 OFFCURVE",
"1140 0 OFFCURVE"
);
},
{
closed = 1;
nodes = (
"228 0 CURVE SMOOTH",
"115 0 LINE SMOOTH",
"81 0 OFFCURVE",
"64 21 OFFCURVE",
"64 43 CURVE SMOOTH",
"64 64 OFFCURVE",
"81 86 OFFCURVE",
"114 86 CURVE SMOOTH",
"139 86 LINE",
"139 1085 LINE",
"118 1085 LINE SMOOTH",
"86 1085 OFFCURVE",
"70 1106 OFFCURVE",
"70 1127 CURVE SMOOTH",
"70 1149 OFFCURVE",
"87 1171 OFFCURVE",
"120 1171 CURVE SMOOTH",
"230 1171 LINE SMOOTH",
"525 1171 OFFCURVE",
"649 993 OFFCURVE",
"649 591 CURVE SMOOTH",
"649 168 OFFCURVE",
"519 0 OFFCURVE"
);
}
);
width = 1240;
}
);
unicode = 01F1;
},
{
glyphname = uni01F2;
lastChange = "2016-08-10 13:30:31 +0000";
layers = (
{
layerId = "840BD324-B0A6-42B0-BD23-CB5E8C19394F";
paths = (
{
closed = 1;
nodes = (
"1089 772 LINE SMOOTH",
"1135 772 OFFCURVE",
"1150 750 OFFCURVE",
"1150 727 CURVE SMOOTH",
"1150 710 OFFCURVE",
"1138 695 OFFCURVE",
"1132 682 CURVE SMOOTH",
"860 82 LINE",
"1065 82 LINE",
"1076 259 LINE SMOOTH",
"1077 283 OFFCURVE",
"1099 297 OFFCURVE",
"1120 297 CURVE SMOOTH",
"1141 297 OFFCURVE",
"1161 284 OFFCURVE",
"1161 255 CURVE SMOOTH",
"1161 46 LINE SMOOTH",
"1161 21 OFFCURVE",
"1134 0 OFFCURVE",
"1110 0 CURVE SMOOTH",
"806 0 LINE SMOOTH",
"768 0 OFFCURVE",
"750 24 OFFCURVE",
"750 59 CURVE SMOOTH",
"750 81 OFFCURVE",
"761 97 OFFCURVE",
"767 109 CURVE SMOOTH",
"1034 692 LINE",
"831 692 LINE",
"823 535 LINE SMOOTH",
"822 505 OFFCURVE",
"802 490 OFFCURVE",
"781 490 CURVE SMOOTH",
"759 490 OFFCURVE",
"736 507 OFFCURVE",
"736 540 CURVE SMOOTH",
"736 726 LINE SMOOTH",
"736 750 OFFCURVE",
"758 772 OFFCURVE",
"782 772 CURVE SMOOTH"
);
},
{
closed = 1;
nodes = (
"235 86 LINE",
"496 86 OFFCURVE",
"553 256 OFFCURVE",
"553 591 CURVE SMOOTH",
"553 907 OFFCURVE",
"488 1085 OFFCURVE",
"235 1085 CURVE"
);
},
{
closed = 1;
nodes = (
"228 0 CURVE SMOOTH",
"115 0 LINE SMOOTH",
"81 0 OFFCURVE",
"64 21 OFFCURVE",
"64 43 CURVE SMOOTH",
"64 64 OFFCURVE",
"81 86 OFFCURVE",
"114 86 CURVE SMOOTH",
"139 86 LINE",
"139 1085 LINE",
"118 1085 LINE SMOOTH",
"86 1085 OFFCURVE",
"70 1106 OFFCURVE",
"70 1127 CURVE SMOOTH",
"70 1149 OFFCURVE",
"87 1171 OFFCURVE",
"120 1171 CURVE SMOOTH",
"230 1171 LINE SMOOTH",
"525 1171 OFFCURVE",
"649 993 OFFCURVE",
"649 591 CURVE SMOOTH",
"649 168 OFFCURVE",
"519 0 OFFCURVE"
);
}
);
width = 1240;
}
);
unicode = 01F2;
},
{
glyphname = E.ss01;
lastChange = "2017-05-31 21:28:42 +0000";
layers = (
{
layerId = "840BD324-B0A6-42B0-BD23-CB5E8C19394F";
paths = (
{
closed = 1;
nodes = (
"827 437 LINE SMOOTH",
"827 402 OFFCURVE",
"808 386 OFFCURVE",
"789 386 CURVE SMOOTH",
"770 386 OFFCURVE",
"751 401 OFFCURVE",
"749 429 CURVE SMOOTH",
"736 577 LINE",
"410 577 LINE",
"410 85 LINE",
"986 85 LINE",
"1000 85 OFFCURVE",
"1007 99 OFFCURVE",
"1008 108 CURVE SMOOTH",
"1041 336 LINE SMOOTH",
"1044 360 OFFCURVE",
"1064 375 OFFCURVE",
"1085 375 CURVE SMOOTH",
"1106 375 OFFCURVE",
"1130 359 OFFCURVE",
"1127 323 CURVE SMOOTH",
"1107 53 LINE SMOOTH",
"1104 19 OFFCURVE",
"1084 0 OFFCURVE",
"1051 0 CURVE SMOOTH",
"145 0 LINE SMOOTH",
"111 0 OFFCURVE",
"94 22 OFFCURVE",
"94 43 CURVE SMOOTH",
"94 64 OFFCURVE",
"111 85 OFFCURVE",
"144 85 CURVE SMOOTH",
"314 85 LINE",
"314 1085 LINE",
"179 1085 LINE SMOOTH",
"147 1085 OFFCURVE",
"131 1106 OFFCURVE",
"131 1127 CURVE SMOOTH",
"131 1149 OFFCURVE",
"148 1171 OFFCURVE",
"181 1171 CURVE SMOOTH",
"1039 1171 LINE SMOOTH",
"1072 1171 OFFCURVE",
"1092 1151 OFFCURVE",
"1095 1117 CURVE SMOOTH",
"1115 847 LINE SMOOTH",
"1117 817 OFFCURVE",
"1095 803 OFFCURVE",
"1075 803 CURVE SMOOTH",
"1055 803 OFFCURVE",
"1036 816 OFFCURVE",
"1033 841 CURVE SMOOTH",
"1003 1062 LINE SMOOTH",
"1001 1073 OFFCURVE",
"992 1085 OFFCURVE",
"981 1085 CURVE",
"410 1085 LINE",
"410 654 LINE",
"736 654 LINE",
"749 787 LINE SMOOTH",
"752 817 OFFCURVE",
"771 832 OFFCURVE",
"789 832 CURVE SMOOTH",
"808 832 OFFCURVE",
"827 816 OFFCURVE",
"827 779 CURVE SMOOTH"
);
}
);
width = 1240;
}
);
},
{
glyphname = F.ss01;
lastChange = "2017-05-31 21:33:37 +0000";
layers = (
{
layerId = "840BD324-B0A6-42B0-BD23-CB5E8C19394F";
paths = (
{
closed = 1;
nodes = (
"848 437 LINE SMOOTH",
"848 402 OFFCURVE",
"829 386 OFFCURVE",
"810 386 CURVE SMOOTH",
"791 386 OFFCURVE",
"772 401 OFFCURVE",
"770 429 CURVE SMOOTH",
"757 577 LINE",
"420 577 LINE",
"420 85 LINE",
"770 85 LINE SMOOTH",
"801 85 OFFCURVE",
"816 64 OFFCURVE",
"816 43 CURVE SMOOTH",
"816 21 OFFCURVE",
"800 0 OFFCURVE",
"771 0 CURVE SMOOTH",
"155 0 LINE SMOOTH",
"121 0 OFFCURVE",
"104 22 OFFCURVE",
"104 43 CURVE SMOOTH",
"104 64 OFFCURVE",
"121 85 OFFCURVE",
"154 85 CURVE SMOOTH",
"324 85 LINE",
"324 1085 LINE",
"189 1085 LINE SMOOTH",
"157 1085 OFFCURVE",
"141 1106 OFFCURVE",
"141 1127 CURVE SMOOTH",
"141 1149 OFFCURVE",
"158 1171 OFFCURVE",
"191 1171 CURVE SMOOTH",
"1062 1171 LINE",
"1042 1085 LINE",
"420 1085 LINE",
"420 654 LINE",
"757 654 LINE",
"770 787 LINE SMOOTH",
"773 817 OFFCURVE",
"792 832 OFFCURVE",
"810 832 CURVE SMOOTH",
"829 832 OFFCURVE",
"848 816 OFFCURVE",
"848 779 CURVE SMOOTH"
);
},
{
closed = 1;
nodes = (
"1095 1171 OFFCURVE",
"1115 1151 OFFCURVE",
"1118 1117 CURVE SMOOTH",
"1138 847 LINE SMOOTH",
"1140 817 OFFCURVE",
"1118 803 OFFCURVE",
"1098 803 CURVE SMOOTH",
"1078 803 OFFCURVE",
"1059 816 OFFCURVE",
"1056 841 CURVE SMOOTH",
"1026 1062 LINE SMOOTH",
"1024 1073 OFFCURVE",
"1015 1085 OFFCURVE",
"1004 1085 CURVE",
"1062 1171 LINE"
);
}
);
width = 1240;
}
);
},
{
glyphname = L.ss01;
lastChange = "2017-05-31 21:18:45 +0000";
layers = (
{
layerId = "840BD324-B0A6-42B0-BD23-CB5E8C19394F";
paths = (
{
closed = 1;
nodes = (
"640 1171 LINE SMOOTH",
"674 1171 OFFCURVE",
"691 1149 OFFCURVE",
"691 1127 CURVE SMOOTH",
"691 1106 OFFCURVE",
"674 1085 OFFCURVE",
"641 1085 CURVE SMOOTH",
"489 1085 LINE",
"489 86 LINE",
"946 86 LINE",
"968 88 OFFCURVE",
"984 92 OFFCURVE",
"987 123 CURVE SMOOTH",
"1021 399 LINE SMOOTH",
"1025 428 OFFCURVE",
"1048 442 OFFCURVE",
"1071 442 CURVE SMOOTH",
"1097 442 OFFCURVE",
"1122 425 OFFCURVE",
"1122 393 CURVE SMOOTH",
"1122 387 LINE",
"1092 66 LINE",
"1087 29 OFFCURVE",
"1063 0 OFFCURVE",
"1020 0 CURVE SMOOTH",
"125 0 LINE SMOOTH",
"91 0 OFFCURVE",
"74 21 OFFCURVE",
"74 43 CURVE SMOOTH",
"74 64 OFFCURVE",
"91 86 OFFCURVE",
"124 86 CURVE SMOOTH",
"393 86 LINE",
"393 1085 LINE",
"166 1085 LINE SMOOTH",
"133 1085 OFFCURVE",
"117 1106 OFFCURVE",
"117 1127 CURVE SMOOTH",
"117 1149 OFFCURVE",
"134 1171 OFFCURVE",
"167 1171 CURVE SMOOTH"
);
}
);
width = 1240;
}
);
},
{
glyphname = a;
lastChange = "2016-08-10 13:30:31 +0000";
layers = (
{
layerId = "840BD324-B0A6-42B0-BD23-CB5E8C19394F";
paths = (
{
closed = 1;
nodes = (
"814 401 LINE",
"525 373 OFFCURVE",
"350 364 OFFCURVE",
"350 210 CURVE SMOOTH",
"350 103 OFFCURVE",
"417 65 OFFCURVE",
"502 65 CURVE SMOOTH",
"621 65 OFFCURVE",
"742 113 OFFCURVE",
"814 189 CURVE"
);
},
{
closed = 1;
nodes = (
"611 731 CURVE SMOOTH",
"527 731 OFFCURVE",
"461 718 OFFCURVE",
"390 686 CURVE",
"385 593 OFFCURVE",
"372 531 OFFCURVE",
"324 531 CURVE SMOOTH",
"283 531 OFFCURVE",
"264 563 OFFCURVE",
"264 603 CURVE SMOOTH",
"264 725 OFFCURVE",
"405 813 OFFCURVE",
"612 813 CURVE SMOOTH",
"849 813 OFFCURVE",
"910 674 OFFCURVE",
"910 444 CURVE SMOOTH",
"910 132 LINE SMOOTH",
"910 80 OFFCURVE",
"936 72 OFFCURVE",
"962 72 CURVE SMOOTH",
"999 72 OFFCURVE",
"1043 99 OFFCURVE",
"1063 121 CURVE SMOOTH",
"1070 129 OFFCURVE",
"1079 133 OFFCURVE",
"1087 133 CURVE SMOOTH",
"1107 133 OFFCURVE",
"1124 112 OFFCURVE",
"1124 91 CURVE SMOOTH",
"1124 82 OFFCURVE",
"1121 73 OFFCURVE",
"1114 66 CURVE SMOOTH",
"1072 22 OFFCURVE",
"1015 -7 OFFCURVE",
"954 -7 CURVE SMOOTH",
"898 -7 OFFCURVE",
"838 9 OFFCURVE",
"821 113 CURVE",
"760 44 OFFCURVE",
"637 -16 OFFCURVE",
"491 -16 CURVE SMOOTH",
"340 -16 OFFCURVE",
"253 74 OFFCURVE",
"253 210 CURVE SMOOTH",
"253 455 OFFCURVE",
"547 450 OFFCURVE",
"814 470 CURVE",
"814 490 LINE SMOOTH",
"814 635 OFFCURVE",
"769 731 OFFCURVE"
);
}
);
width = 1240;
}
);
unicode = 0061;
},
{
glyphname = ae;
lastChange = "2016-08-10 13:30:31 +0000";
layers = (
{
layerId = "840BD324-B0A6-42B0-BD23-CB5E8C19394F";
paths = (
{
closed = 1;
nodes = (
"352 60 CURVE SMOOTH",
"449 60 OFFCURVE",
"558 103 OFFCURVE",
"603 193 CURVE",
"585 249 OFFCURVE",
"574 316 OFFCURVE",
"573 391 CURVE",
"292 375 OFFCURVE",
"210 355 OFFCURVE",
"210 203 CURVE SMOOTH",
"210 116 OFFCURVE",
"272 60 OFFCURVE"
);
},
{
closed = 1;
nodes = (
"658 461 CURVE",
"1033 474 LINE",
"1027 572 OFFCURVE",
"1005 731 OFFCURVE",
"870 731 CURVE SMOOTH",
"688 731 OFFCURVE",
"666 566 OFFCURVE"
);
},
{
closed = 1;
nodes = (
"628 129 CURVE",
"575 36 OFFCURVE",
"459 -17 OFFCURVE",
"335 -17 CURVE SMOOTH",
"226 -17 OFFCURVE",
"119 69 OFFCURVE",
"119 203 CURVE SMOOTH",
"119 433 OFFCURVE",
"308 445 OFFCURVE",
"572 459 CURVE",
"572 496 LINE SMOOTH",
"572 631 OFFCURVE",
"547 731 OFFCURVE",
"405 731 CURVE SMOOTH",
"327 731 OFFCURVE",
"270 711 OFFCURVE",
"247 701 CURVE",
"242 608 OFFCURVE",
"230 531 OFFCURVE",
"185 531 CURVE SMOOTH",
"147 531 OFFCURVE",
"129 563 OFFCURVE",
"129 603 CURVE SMOOTH",
"129 725 OFFCURVE",
"213 813 OFFCURVE",
"406 813 CURVE SMOOTH",
"520 813 OFFCURVE",
"606 747 OFFCURVE",
"624 642 CURVE",
"669 748 OFFCURVE",
"758 813 OFFCURVE",
"869 813 CURVE SMOOTH",
"1002 813 OFFCURVE",
"1112 707 OFFCURVE",
"1112 488 CURVE SMOOTH",
"1112 438 OFFCURVE",
"1084 408 OFFCURVE",
"1040 408 CURVE",
"655 394 LINE",
"662 176 OFFCURVE",
"739 61 OFFCURVE",
"884 61 CURVE SMOOTH",
"953 61 OFFCURVE",
"975 72 OFFCURVE",
"1048 146 CURVE",
"1062 158 OFFCURVE",
"1075 163 OFFCURVE",
"1086 163 CURVE SMOOTH",
"1109 163 OFFCURVE",
"1122 151 OFFCURVE",
"1122 127 CURVE SMOOTH",
"1122 113 OFFCURVE",
"1117 98 OFFCURVE",
"1106 85 CURVE SMOOTH",
"1033 1 OFFCURVE",
"938 -17 OFFCURVE",
"876 -17 CURVE SMOOTH",
"762 -17 OFFCURVE",
"674 44 OFFCURVE"
);
}
);
width = 1240;
}
);
unicode = 00E6;
},
{
glyphname = b;
lastChange = "2016-08-10 13:30:31 +0000";
layers = (
{
layerId = "840BD324-B0A6-42B0-BD23-CB5E8C19394F";
paths = (
{
closed = 1;
nodes = (
"386 1141 CURVE SMOOTH",
"386 707 LINE",
"460 771 OFFCURVE",
"541 813 OFFCURVE",
"670 813 CURVE SMOOTH",
"904 813 OFFCURVE",
"1048 636 OFFCURVE",
"1048 398 CURVE SMOOTH",
"1048 156 OFFCURVE",
"909 -17 OFFCURVE",
"674 -17 CURVE SMOOTH",
"547 -17 OFFCURVE",
"446 37 OFFCURVE",
"382 102 CURVE",
"382 0 OFFCURVE",
"356 -4 OFFCURVE",
"331 -4 CURVE SMOOTH",
"310 -4 OFFCURVE",
"290 7 OFFCURVE",
"290 74 CURVE SMOOTH",
"290 1091 LINE",
"162 1083 LINE SMOOTH",
"155 1082 OFFCURVE",
"148 1080 OFFCURVE",
"142 1080 CURVE SMOOTH",
"118 1080 OFFCURVE",
"103 1098 OFFCURVE",
"103 1118 CURVE SMOOTH",
"103 1134 OFFCURVE",
"112 1154 OFFCURVE",
"136 1159 CURVE",
"325 1178 LINE SMOOTH",
"333 1179 OFFCURVE",
"339 1180 OFFCURVE",
"345 1180 CURVE SMOOTH",
"374 1180 OFFCURVE",
"386 1164 OFFCURVE"
);
},
{
closed = 1;
nodes = (
"952 398 CURVE SMOOTH",
"952 575 OFFCURVE",
"855 731 OFFCURVE",
"664 731 CURVE SMOOTH",
"537 731 OFFCURVE",
"449 681 OFFCURVE",
"386 602 CURVE",
"386 210 LINE",
"444 127 OFFCURVE",
"537 65 OFFCURVE",
"672 65 CURVE SMOOTH",
"858 65 OFFCURVE",
"952 219 OFFCURVE"
);
}
);
width = 1240;
}
);
unicode = 0062;
},
{
glyphname = c;
lastChange = "2016-08-10 13:30:31 +0000";
layers = (
{
layerId = "840BD324-B0A6-42B0-BD23-CB5E8C19394F";
paths = (
{
closed = 1;
nodes = (
"635 813 CURVE SMOOTH",
"833 813 OFFCURVE",
"979 744 OFFCURVE",
"979 564 CURVE SMOOTH",
"979 519 OFFCURVE",
"960 484 OFFCURVE",
"919 484 CURVE SMOOTH",
"871 484 OFFCURVE",
"868 564 OFFCURVE",
"853 686 CURVE",
"782 721 OFFCURVE",
"717 731 OFFCURVE",
"650 731 CURVE SMOOTH",
"416 731 OFFCURVE",
"279 609 OFFCURVE",
"279 407 CURVE SMOOTH",
"279 175 OFFCURVE",
"421 65 OFFCURVE",
"624 65 CURVE SMOOTH",
"751 65 OFFCURVE",
"823 99 OFFCURVE",
"902 172 CURVE SMOOTH",
"914 183 OFFCURVE",
"930 188 OFFCURVE",
"943 188 CURVE SMOOTH",
"962 188 OFFCURVE",
"978 176 OFFCURVE",
"978 147 CURVE SMOOTH",
"978 133 OFFCURVE",
"972 118 OFFCURVE",
"960 105 CURVE SMOOTH",
"886 25 OFFCURVE",
"736 -17 OFFCURVE",
"632 -17 CURVE SMOOTH",
"365 -17 OFFCURVE",
"183 141 OFFCURVE",
"183 407 CURVE SMOOTH",
"183 663 OFFCURVE",
"387 813 OFFCURVE"
);
}
);
width = 1240;
}
);
unicode = 0063;
},
{
glyphname = d;
lastChange = "2016-08-10 13:30:31 +0000";
layers = (
{
layerId = "840BD324-B0A6-42B0-BD23-CB5E8C19394F";
paths = (
{
closed = 1;
nodes = (
"867 47 CURVE SMOOTH",
"864 107 LINE",
"805 36 OFFCURVE",
"698 -17 OFFCURVE",
"571 -17 CURVE SMOOTH",
"336 -17 OFFCURVE",
"193 156 OFFCURVE",
"193 398 CURVE SMOOTH",
"193 636 OFFCURVE",
"337 813 OFFCURVE",
"571 813 CURVE SMOOTH",
"700 813 OFFCURVE",
"781 771 OFFCURVE",
"855 707 CURVE",
"855 1091 LINE",
"727 1083 LINE SMOOTH",
"720 1082 OFFCURVE",
"713 1080 OFFCURVE",
"707 1080 CURVE SMOOTH",
"683 1080 OFFCURVE",
"668 1098 OFFCURVE",
"668 1118 CURVE SMOOTH",
"668 1134 OFFCURVE",
"677 1154 OFFCURVE",
"701 1159 CURVE",
"890 1178 LINE SMOOTH",
"898 1179 OFFCURVE",
"904 1180 OFFCURVE",
"910 1180 CURVE SMOOTH",
"939 1180 OFFCURVE",
"951 1164 OFFCURVE",
"951 1141 CURVE SMOOTH",
"951 85 LINE",
"1099 96 LINE",
"1105 96 LINE SMOOTH",
"1133 96 OFFCURVE",
"1145 79 OFFCURVE",
"1145 61 CURVE SMOOTH",
"1145 42 OFFCURVE",
"1132 22 OFFCURVE",
"1107 17 CURVE",
"921 -3 LINE",
"914 -3 LINE SMOOTH",
"888 -3 OFFCURVE",
"869 13 OFFCURVE"
);
},
{
closed = 1;
nodes = (
"289 398 CURVE SMOOTH",
"289 219 OFFCURVE",
"387 65 OFFCURVE",
"573 65 CURVE SMOOTH",
"708 65 OFFCURVE",
"797 127 OFFCURVE",
"855 210 CURVE",
"855 602 LINE",
"792 681 OFFCURVE",
"704 731 OFFCURVE",
"577 731 CURVE SMOOTH",
"386 731 OFFCURVE",
"289 575 OFFCURVE"
);
}
);
width = 1240;
}
);
unicode = 0064;
},
{
glyphname = eth;
lastChange = "2016-08-10 13:30:31 +0000";
layers = (
{
layerId = "840BD324-B0A6-42B0-BD23-CB5E8C19394F";
paths = (
{
closed = 1;
nodes = (
"602 65 CURVE SMOOTH",
"801 65 OFFCURVE",
"914 192 OFFCURVE",
"914 391 CURVE SMOOTH",
"914 617 OFFCURVE",
"770 731 OFFCURVE",
"608 731 CURVE SMOOTH",
"414 731 OFFCURVE",
"308 607 OFFCURVE",
"308 391 CURVE SMOOTH",
"308 182 OFFCURVE",
"433 65 OFFCURVE"
);
},
{
closed = 1;
nodes = (
"703 1116 LINE",
"944 892 OFFCURVE",
"1010 670 OFFCURVE",
"1010 453 CURVE SMOOTH",
"1010 167 OFFCURVE",
"881 -17 OFFCURVE",
"602 -17 CURVE SMOOTH",
"366 -17 OFFCURVE",
"212 144 OFFCURVE",
"212 394 CURVE SMOOTH",
"212 643 OFFCURVE",
"360 813 OFFCURVE",
"607 813 CURVE SMOOTH",
"701 813 OFFCURVE",
"832 780 OFFCURVE",
"919 615 CURVE",
"869 809 OFFCURVE",
"741 962 OFFCURVE",
"629 1065 CURVE",
"492 971 LINE SMOOTH",
"485 966 OFFCURVE",
"478 964 OFFCURVE",
"471 964 CURVE SMOOTH",
"449 964 OFFCURVE",
"430 986 OFFCURVE",
"430 1008 CURVE SMOOTH",
"430 1019 OFFCURVE",
"435 1030 OFFCURVE",
"446 1038 CURVE SMOOTH",
"565 1121 LINE",
"501 1174 OFFCURVE",
"449 1206 OFFCURVE",
"434 1218 CURVE SMOOTH",
"430 1221 OFFCURVE",
"428 1225 OFFCURVE",
"428 1231 CURVE SMOOTH",
"428 1253 OFFCURVE",
"453 1288 OFFCURVE",
"474 1288 CURVE SMOOTH",
"477 1288 OFFCURVE",
"480 1287 OFFCURVE",
"483 1285 CURVE SMOOTH",
"541 1248 OFFCURVE",
"592 1210 OFFCURVE",
"638 1172 CURVE",
"777 1269 LINE SMOOTH",
"783 1273 OFFCURVE",
"789 1275 OFFCURVE",
"795 1275 CURVE SMOOTH",
"818 1275 OFFCURVE",
"839 1249 OFFCURVE",
"839 1226 CURVE SMOOTH",
"839 1216 OFFCURVE",
"835 1206 OFFCURVE",
"825 1199 CURVE SMOOTH"
);
}
);
width = 1240;
}
);
unicode = 00F0;
},
{
glyphname = dcroat;
lastChange = "2016-08-10 13:30:31 +0000";
layers = (
{
components = (
{
name = d;
}
);
layerId = "840BD324-B0A6-42B0-BD23-CB5E8C19394F";
paths = (
{
closed = 1;
nodes = (
"1023 907 CURVE SMOOTH",
"661 907 LINE SMOOTH",
"623 907 OFFCURVE",
"610 917 OFFCURVE",
"610 944 CURVE SMOOTH",
"610 971 OFFCURVE",
"626 979 OFFCURVE",
"660 979 CURVE SMOOTH",
"1021 979 LINE SMOOTH",
"1054 979 OFFCURVE",
"1070 971 OFFCURVE",
"1070 944 CURVE SMOOTH",
"1070 917 OFFCURVE",
"1056 907 OFFCURVE"
);
}
);
width = 1240;
}
);
unicode = 0111;
},
{
glyphname = e;
lastChange = "2016-08-10 13:30:31 +0000";
layers = (
{
layerId = "840BD324-B0A6-42B0-BD23-CB5E8C19394F";
paths = (
{
closed = 1;
nodes = (
"311 461 CURVE",
"929 465 LINE",
"923 563 OFFCURVE",
"893 731 OFFCURVE",
"656 731 CURVE SMOOTH",
"461 731 OFFCURVE",
"335 631 OFFCURVE"
);
},
{
closed = 1;
nodes = (
"654 813 CURVE SMOOTH",
"860 813 OFFCURVE",
"1014 698 OFFCURVE",
"1014 479 CURVE SMOOTH",
"1014 429 OFFCURVE",
"984 392 OFFCURVE",
"937 392 CURVE SMOOTH",
"308 387 LINE",
"315 169 OFFCURVE",
"459 65 OFFCURVE",
"657 65 CURVE SMOOTH",
"754 65 OFFCURVE",
"856 100 OFFCURVE",
"934 174 CURVE",
"949 186 OFFCURVE",
"963 191 OFFCURVE",
"975 191 CURVE SMOOTH",
"999 191 OFFCURVE",
"1015 171 OFFCURVE",
"1015 147 CURVE SMOOTH",
"1015 133 OFFCURVE",
"1009 118 OFFCURVE",
"997 105 CURVE SMOOTH",
"923 25 OFFCURVE",
"769 -17 OFFCURVE",
"665 -17 CURVE SMOOTH",
"398 -17 OFFCURVE",
"212 141 OFFCURVE",
"212 407 CURVE SMOOTH",
"212 663 OFFCURVE",
"413 813 OFFCURVE"
);
}
);
width = 1240;
}
);
unicode = 0065;
},
{
glyphname = f;
lastChange = "2016-08-10 13:30:31 +0000";
layers = (
{
layerId = "840BD324-B0A6-42B0-BD23-CB5E8C19394F";
paths = (
{
closed = 1;
nodes = (
"1036 1020 LINE SMOOTH",
"1036 982 OFFCURVE",
"1011 964 OFFCURVE",
"987 964 CURVE SMOOTH",
"963 964 OFFCURVE",
"940 981 OFFCURVE",
"940 1016 CURVE SMOOTH",
"940 1109 LINE",
"707 1093 OFFCURVE",
"641 1018 OFFCURVE",
"641 832 CURVE SMOOTH",
"641 766 LINE",
"950 766 LINE SMOOTH",
"977 766 OFFCURVE",
"990 745 OFFCURVE",
"990 725 CURVE SMOOTH",
"990 704 OFFCURVE",
"976 684 OFFCURVE",
"949 684 CURVE SMOOTH",
"640 684 LINE",
"641 82 LINE",
"1003 82 LINE SMOOTH",
"1029 82 OFFCURVE",
"1042 61 OFFCURVE",
"1042 41 CURVE SMOOTH",
"1042 20 OFFCURVE",
"1029 0 OFFCURVE",
"1002 0 CURVE SMOOTH",
"327 0 LINE SMOOTH",
"296 0 OFFCURVE",
"281 21 OFFCURVE",
"281 42 CURVE SMOOTH",
"281 62 OFFCURVE",
"295 82 OFFCURVE",
"323 82 CURVE SMOOTH",
"544 82 LINE",
"544 684 LINE",
"352 684 LINE SMOOTH",
"321 684 OFFCURVE",
"306 705 OFFCURVE",
"306 726 CURVE SMOOTH",
"306 746 OFFCURVE",
"320 766 OFFCURVE",
"348 766 CURVE SMOOTH",
"544 766 LINE",
"544 838 LINE SMOOTH",
"544 1079 OFFCURVE",
"705 1188 OFFCURVE",
"979 1188 CURVE SMOOTH",
"1009 1188 OFFCURVE",
"1036 1169 OFFCURVE",
"1036 1137 CURVE SMOOTH"
);
}
);
width = 1240;
}
);
unicode = 0066;
},
{
glyphname = g;
lastChange = "2016-08-10 13:30:31 +0000";
layers = (
{
layerId = "840BD324-B0A6-42B0-BD23-CB5E8C19394F";
paths = (
{
closed = 1;
nodes = (
"828 534 CURVE SMOOTH",
"828 679 OFFCURVE",
"719 731 OFFCURVE",
"597 731 CURVE SMOOTH",
"474 731 OFFCURVE",
"372 676 OFFCURVE",
"372 542 CURVE SMOOTH",
"372 420 OFFCURVE",
"470 361 OFFCURVE",
"591 361 CURVE SMOOTH",
"713 361 OFFCURVE",
"828 397 OFFCURVE"
);
},
{
closed = 1;
nodes = (
"460 37 LINE",
"421 22 OFFCURVE",
"374 -65 OFFCURVE",
"374 -122 CURVE SMOOTH",
"374 -238 OFFCURVE",
"447 -268 OFFCURVE",
"583 -268 CURVE SMOOTH",
"725 -268 OFFCURVE",
"898 -232 OFFCURVE",
"898 -118 CURVE SMOOTH",
"898 4 OFFCURVE",
"837 37 OFFCURVE",
"644 37 CURVE SMOOTH"
);
},
{
closed = 1;
nodes = (
"548 109 CURVE SMOOTH",
"641 109 LINE SMOOTH",
"866 109 OFFCURVE",
"994 75 OFFCURVE",
"994 -114 CURVE SMOOTH",
"994 -278 OFFCURVE",
"789 -350 OFFCURVE",
"585 -350 CURVE SMOOTH",
"428 -350 OFFCURVE",
"278 -306 OFFCURVE",
"278 -147 CURVE SMOOTH",
"278 -47 OFFCURVE",
"331 25 OFFCURVE",
"397 58 CURVE",
"337 87 OFFCURVE",
"303 123 OFFCURVE",
"303 185 CURVE SMOOTH",
"303 262 OFFCURVE",
"393 324 OFFCURVE",
"448 331 CURVE",
"344 374 OFFCURVE",
"276 428 OFFCURVE",
"276 545 CURVE SMOOTH",
"276 729 OFFCURVE",
"427 813 OFFCURVE",
"599 813 CURVE SMOOTH",
"687 813 OFFCURVE",
"774 787 OFFCURVE",
"838 734 CURVE",
"990 835 LINE SMOOTH",
"1036 866 OFFCURVE",
"1078 877 OFFCURVE",
"1111 877 CURVE SMOOTH",
"1159 877 OFFCURVE",
"1169 851 OFFCURVE",
"1169 826 CURVE SMOOTH",
"1169 798 OFFCURVE",
"1136 775 OFFCURVE",
"1036 775 CURVE",
"867 701 LINE",
"903 656 OFFCURVE",
"924 603 OFFCURVE",
"924 540 CURVE SMOOTH",
"924 362 OFFCURVE",
"809 287 OFFCURVE",
"588 287 CURVE SMOOTH",
"485 287 OFFCURVE",
"399 244 OFFCURVE",
"399 190 CURVE SMOOTH",
"399 146 OFFCURVE",
"417 109 OFFCURVE"
);
}
);
width = 1240;
}
);
unicode = 0067;
},
{
glyphname = h;
lastChange = "2016-08-10 13:30:31 +0000";
layers = (
{
layerId = "840BD324-B0A6-42B0-BD23-CB5E8C19394F";
paths = (
{
closed = 1;
nodes = (
"716 731 CURVE SMOOTH",
"524 731 OFFCURVE",
"396 601 OFFCURVE",
"396 497 CURVE SMOOTH",
"396 82 LINE",
"501 82 LINE SMOOTH",
"533 82 OFFCURVE",
"549 62 OFFCURVE",
"549 42 CURVE SMOOTH",
"549 21 OFFCURVE",
"532 0 OFFCURVE",
"499 0 CURVE SMOOTH",
"196 0 LINE SMOOTH",
"165 0 OFFCURVE",
"150 22 OFFCURVE",
"150 43 CURVE SMOOTH",
"150 63 OFFCURVE",
"164 82 OFFCURVE",
"192 82 CURVE SMOOTH",
"300 82 LINE",
"300 1091 LINE",
"152 1082 LINE SMOOTH",
"128 1081 OFFCURVE",
"113 1098 OFFCURVE",
"113 1118 CURVE SMOOTH",
"113 1134 OFFCURVE",
"122 1157 OFFCURVE",
"146 1159 CURVE SMOOTH",
"335 1178 LINE SMOOTH",
"343 1179 OFFCURVE",
"349 1180 OFFCURVE",
"355 1180 CURVE SMOOTH",
"384 1180 OFFCURVE",
"396 1164 OFFCURVE",
"396 1141 CURVE SMOOTH",
"396 639 LINE",
"446 737 OFFCURVE",
"573 813 OFFCURVE",
"711 813 CURVE SMOOTH",
"904 813 OFFCURVE",
"992 707 OFFCURVE",
"992 533 CURVE SMOOTH",
"992 82 LINE",
"1101 82 LINE SMOOTH",
"1128 82 OFFCURVE",
"1141 62 OFFCURVE",
"1141 42 CURVE SMOOTH",
"1141 21 OFFCURVE",
"1127 0 OFFCURVE",
"1099 0 CURVE SMOOTH",
"754 0 LINE SMOOTH",
"723 0 OFFCURVE",
"708 22 OFFCURVE",
"708 43 CURVE SMOOTH",
"708 63 OFFCURVE",
"722 82 OFFCURVE",
"750 82 CURVE SMOOTH",
"896 82 LINE",
"896 540 LINE SMOOTH",
"896 659 OFFCURVE",
"837 731 OFFCURVE"
);
}
);
width = 1240;
}
);
unicode = 0068;
},
{
glyphname = hbar;
lastChange = "2016-08-10 13:30:31 +0000";
layers = (
{
components = (
{
name = h;
}
);
layerId = "840BD324-B0A6-42B0-BD23-CB5E8C19394F";
paths = (
{
closed = 1;
nodes = (
"542 907 CURVE SMOOTH",
"180 907 LINE SMOOTH",
"142 907 OFFCURVE",
"129 917 OFFCURVE",
"129 944 CURVE SMOOTH",
"129 971 OFFCURVE",
"145 979 OFFCURVE",
"179 979 CURVE SMOOTH",
"540 979 LINE SMOOTH",
"573 979 OFFCURVE",
"589 971 OFFCURVE",
"589 944 CURVE SMOOTH",
"589 917 OFFCURVE",
"575 907 OFFCURVE"
);
}
);
width = 1240;
}
);
unicode = 0127;
},
{
glyphname = i;
lastChange = "2016-08-10 13:30:31 +0000";
layers = (
{
layerId = "840BD324-B0A6-42B0-BD23-CB5E8C19394F";
paths = (
{
closed = 1;
nodes = (
"295 0 LINE SMOOTH",
"264 0 OFFCURVE",
"249 22 OFFCURVE",
"249 43 CURVE SMOOTH",
"249 63 OFFCURVE",
"263 82 OFFCURVE",
"291 82 CURVE SMOOTH",
"663 82 LINE",
"663 719 LINE",
"330 674 LINE SMOOTH",
"327 674 OFFCURVE",
"325 673 OFFCURVE",
"323 673 CURVE SMOOTH",
"296 673 OFFCURVE",
"282 694 OFFCURVE",
"282 715 CURVE SMOOTH",
"282 734 OFFCURVE",
"292 752 OFFCURVE",
"314 755 CURVE SMOOTH",
"712 810 LINE SMOOTH",
"715 811 OFFCURVE",
"718 811 OFFCURVE",
"723 811 CURVE SMOOTH",
"744 811 OFFCURVE",
"759 799 OFFCURVE",
"759 779 CURVE SMOOTH",
"759 82 LINE",
"1092 82 LINE SMOOTH",
"1119 82 OFFCURVE",
"1132 61 OFFCURVE",
"1132 41 CURVE SMOOTH",
"1132 20 OFFCURVE",
"1118 0 OFFCURVE",
"1091 0 CURVE SMOOTH"
);
},
{
closed = 1;
nodes = (
"692 1171 CURVE SMOOTH",
"738 1171 OFFCURVE",
"774 1134 OFFCURVE",
"774 1088 CURVE SMOOTH",
"774 1042 OFFCURVE",
"738 1006 OFFCURVE",
"692 1006 CURVE SMOOTH",
"646 1006 OFFCURVE",
"609 1042 OFFCURVE",
"609 1088 CURVE SMOOTH",
"609 1134 OFFCURVE",
"646 1171 OFFCURVE"
);
}
);
width = 1240;
}
);
unicode = 0069;
},
{
glyphname = idotless;
lastChange = "2017-05-31 19:05:13 +0000";
layers = (
{
layerId = "840BD324-B0A6-42B0-BD23-CB5E8C19394F";
paths = (
{
closed = 1;
nodes = (
"299 0 LINE SMOOTH",
"268 0 OFFCURVE",
"253 22 OFFCURVE",
"253 43 CURVE SMOOTH",
"253 63 OFFCURVE",
"267 82 OFFCURVE",
"295 82 CURVE SMOOTH",
"667 82 LINE",
"667 719 LINE",
"334 674 LINE SMOOTH",
"331 674 OFFCURVE",
"329 673 OFFCURVE",
"327 673 CURVE SMOOTH",
"300 673 OFFCURVE",
"286 694 OFFCURVE",
"286 715 CURVE SMOOTH",
"286 734 OFFCURVE",
"296 752 OFFCURVE",
"318 755 CURVE SMOOTH",
"716 810 LINE SMOOTH",
"719 811 OFFCURVE",
"722 811 OFFCURVE",
"727 811 CURVE SMOOTH",
"748 811 OFFCURVE",
"763 799 OFFCURVE",
"763 779 CURVE SMOOTH",
"763 82 LINE",
"1096 82 LINE SMOOTH",
"1123 82 OFFCURVE",
"1136 61 OFFCURVE",
"1136 41 CURVE SMOOTH",
"1136 20 OFFCURVE",
"1122 0 OFFCURVE",
"1095 0 CURVE SMOOTH"
);
}
);
width = 1240;
}
);
unicode = 0131;
},
{
glyphname = ij;
lastChange = "2016-08-10 13:30:31 +0000";
layers = (
{
layerId = "840BD324-B0A6-42B0-BD23-CB5E8C19394F";
paths = (
{
closed = 1;
nodes = (
"537 1171 CURVE SMOOTH",
"583 1171 OFFCURVE",
"619 1134 OFFCURVE",
"619 1088 CURVE SMOOTH",
"619 1042 OFFCURVE",
"583 1006 OFFCURVE",
"537 1006 CURVE SMOOTH",
"491 1006 OFFCURVE",
"454 1042 OFFCURVE",
"454 1088 CURVE SMOOTH",
"454 1134 OFFCURVE",
"491 1171 OFFCURVE"
);
},
{
closed = 1;
nodes = (
"955 1171 CURVE SMOOTH",
"1001 1171 OFFCURVE",
"1037 1134 OFFCURVE",
"1037 1088 CURVE SMOOTH",
"1037 1042 OFFCURVE",
"1001 1006 OFFCURVE",
"955 1006 CURVE SMOOTH",
"909 1006 OFFCURVE",
"872 1042 OFFCURVE",
"872 1088 CURVE SMOOTH",
"872 1134 OFFCURVE",
"909 1171 OFFCURVE"
);
},
{
closed = 1;
nodes = (
"576 -310 CURVE SMOOTH",
"543 -310 OFFCURVE",
"525 -288 OFFCURVE",
"525 -266 CURVE SMOOTH",
"525 -244 OFFCURVE",
"544 -221 OFFCURVE",
"583 -221 CURVE SMOOTH",
"758 -221 OFFCURVE",
"946 -156 OFFCURVE",
"946 -1 CURVE SMOOTH",
"946 731 LINE",
"583 731 LINE",
"583 82 LINE",
"701 82 LINE SMOOTH",
"728 82 OFFCURVE",
"741 61 OFFCURVE",
"741 41 CURVE SMOOTH",
"741 20 OFFCURVE",
"727 0 OFFCURVE",
"700 0 CURVE SMOOTH",
"185 0 LINE SMOOTH",
"154 0 OFFCURVE",
"139 22 OFFCURVE",
"139 43 CURVE SMOOTH",
"139 63 OFFCURVE",
"153 82 OFFCURVE",
"181 82 CURVE SMOOTH",
"487 82 LINE",
"487 731 LINE",
"307 731 LINE SMOOTH",
"280 731 OFFCURVE",
"266 753 OFFCURVE",
"266 774 CURVE SMOOTH",
"266 793 OFFCURVE",
"276 813 OFFCURVE",
"298 813 CURVE SMOOTH",
"1006 813 LINE SMOOTH",
"1026 813 OFFCURVE",
"1042 805 OFFCURVE",
"1042 784 CURVE SMOOTH",
"1042 -11 LINE SMOOTH",
"1042 -199 OFFCURVE",
"821 -310 OFFCURVE"
);
}
);
width = 1240;
}
);
unicode = 0133;
},
{
glyphname = j;
lastChange = "2016-08-10 13:30:31 +0000";
layers = (
{
layerId = "840BD324-B0A6-42B0-BD23-CB5E8C19394F";
paths = (
{
closed = 1;
nodes = (
"802 1171 CURVE SMOOTH",
"848 1171 OFFCURVE",
"884 1134 OFFCURVE",
"884 1088 CURVE SMOOTH",
"884 1042 OFFCURVE",
"848 1006 OFFCURVE",
"802 1006 CURVE SMOOTH",
"756 1006 OFFCURVE",
"719 1042 OFFCURVE",
"719 1088 CURVE SMOOTH",
"719 1134 OFFCURVE",
"756 1171 OFFCURVE"
);
},
{
closed = 1;
nodes = (
"367 -310 CURVE SMOOTH",
"334 -310 OFFCURVE",
"316 -288 OFFCURVE",
"316 -266 CURVE SMOOTH",
"316 -244 OFFCURVE",
"335 -221 OFFCURVE",
"374 -221 CURVE SMOOTH",
"549 -221 OFFCURVE",
"799 -156 OFFCURVE",
"799 -1 CURVE SMOOTH",
"799 731 LINE",
"343 731 LINE SMOOTH",
"314 731 OFFCURVE",
"299 753 OFFCURVE",
"299 774 CURVE SMOOTH",
"299 794 OFFCURVE",
"313 813 OFFCURVE",
"339 813 CURVE SMOOTH",
"859 813 LINE SMOOTH",
"879 813 OFFCURVE",
"895 805 OFFCURVE",
"895 784 CURVE SMOOTH",
"895 -11 LINE SMOOTH",
"895 -199 OFFCURVE",
"612 -310 OFFCURVE"
);
}
);
width = 1240;
}
);
unicode = 006A;
},
{
glyphname = uni0237;
lastChange = "2016-08-10 13:30:31 +0000";
layers = (
{
layerId = "840BD324-B0A6-42B0-BD23-CB5E8C19394F";
paths = (
{
closed = 1;
nodes = (
"367 -310 CURVE SMOOTH",
"334 -310 OFFCURVE",
"316 -288 OFFCURVE",
"316 -266 CURVE SMOOTH",
"316 -244 OFFCURVE",
"335 -221 OFFCURVE",
"374 -221 CURVE SMOOTH",
"549 -221 OFFCURVE",
"799 -156 OFFCURVE",
"799 -1 CURVE SMOOTH",
"799 731 LINE",
"343 731 LINE SMOOTH",
"314 731 OFFCURVE",
"299 753 OFFCURVE",
"299 774 CURVE SMOOTH",
"299 794 OFFCURVE",
"313 813 OFFCURVE",
"339 813 CURVE SMOOTH",
"859 813 LINE SMOOTH",
"879 813 OFFCURVE",
"895 805 OFFCURVE",
"895 784 CURVE SMOOTH",
"895 -11 LINE SMOOTH",
"895 -199 OFFCURVE",
"612 -310 OFFCURVE"
);
}
);
width = 1240;
}
);
unicode = 0237;
},
{
glyphname = k;
lastChange = "2016-08-10 13:30:31 +0000";
layers = (
{
layerId = "840BD324-B0A6-42B0-BD23-CB5E8C19394F";
paths = (
{
closed = 1;
nodes = (
"464 399 LINE",
"847 692 LINE",
"744 692 LINE SMOOTH",
"716 692 OFFCURVE",
"702 712 OFFCURVE",
"702 733 CURVE SMOOTH",
"702 754 OFFCURVE",
"717 775 OFFCURVE",
"748 775 CURVE SMOOTH",
"1065 775 LINE SMOOTH",
"1094 775 OFFCURVE",
"1106 753 OFFCURVE",
"1106 729 CURVE SMOOTH",
"1106 711 OFFCURVE",
"1088 692 OFFCURVE",
"1066 692 CURVE SMOOTH",
"977 692 LINE",
"660 446 LINE",
"1001 82 LINE",
"1088 82 LINE SMOOTH",
"1115 82 OFFCURVE",
"1128 61 OFFCURVE",
"1128 41 CURVE SMOOTH",
"1128 20 OFFCURVE",
"1114 0 OFFCURVE",
"1088 0 CURVE SMOOTH",
"775 0 LINE SMOOTH",
"747 0 OFFCURVE",
"733 21 OFFCURVE",
"733 41 CURVE SMOOTH",
"733 62 OFFCURVE",
"748 82 OFFCURVE",
"779 82 CURVE SMOOTH",
"889 82 LINE",
"590 400 LINE",
"464 308 LINE",
"464 82 LINE",
"535 82 LINE SMOOTH",
"561 82 OFFCURVE",
"574 61 OFFCURVE",
"574 41 CURVE SMOOTH",
"574 20 OFFCURVE",
"561 0 OFFCURVE",
"534 0 CURVE SMOOTH",
"200 0 LINE SMOOTH",
"170 0 OFFCURVE",
"154 21 OFFCURVE",
"154 42 CURVE SMOOTH",
"154 62 OFFCURVE",
"168 82 OFFCURVE",
"196 82 CURVE SMOOTH",
"368 82 LINE",
"368 1082 LINE",
"198 1058 LINE SMOOTH",
"195 1057 OFFCURVE",
"193 1057 OFFCURVE",
"191 1057 CURVE SMOOTH",
"164 1057 OFFCURVE",
"150 1078 OFFCURVE",
"150 1099 CURVE SMOOTH",
"150 1118 OFFCURVE",
"160 1136 OFFCURVE",
"182 1139 CURVE SMOOTH",
"416 1181 LINE SMOOTH",
"418 1181 OFFCURVE",
"423 1182 OFFCURVE",
"428 1182 CURVE SMOOTH",
"449 1182 OFFCURVE",
"464 1170 OFFCURVE",
"464 1150 CURVE SMOOTH"
);
}
);
width = 1240;
}
);
unicode = 006B;
},
{
glyphname = kgreenlandic;
lastChange = "2016-08-10 13:30:31 +0000";
layers = (
{
layerId = "840BD324-B0A6-42B0-BD23-CB5E8C19394F";
paths = (
{
closed = 1;
nodes = (
"464 373 LINE",
"851 692 LINE",
"744 692 LINE SMOOTH",
"716 692 OFFCURVE",
"702 712 OFFCURVE",
"702 733 CURVE SMOOTH",
"702 754 OFFCURVE",
"717 775 OFFCURVE",
"748 775 CURVE SMOOTH",
"1065 775 LINE SMOOTH",
"1094 775 OFFCURVE",
"1106 753 OFFCURVE",
"1106 729 CURVE SMOOTH",
"1106 711 OFFCURVE",
"1088 692 OFFCURVE",
"1066 692 CURVE SMOOTH",
"971 692 LINE",
"662 433 LINE",
"1001 82 LINE",
"1088 82 LINE SMOOTH",
"1115 82 OFFCURVE",
"1128 61 OFFCURVE",
"1128 41 CURVE SMOOTH",
"1128 20 OFFCURVE",
"1114 0 OFFCURVE",
"1088 0 CURVE SMOOTH",
"775 0 LINE SMOOTH",
"747 0 OFFCURVE",
"733 21 OFFCURVE",
"733 41 CURVE SMOOTH",
"733 62 OFFCURVE",
"748 82 OFFCURVE",
"779 82 CURVE SMOOTH",
"889 82 LINE",
"597 387 LINE",
"464 287 LINE",
"464 82 LINE",
"535 82 LINE SMOOTH",
"561 82 OFFCURVE",
"574 61 OFFCURVE",
"574 41 CURVE SMOOTH",
"574 20 OFFCURVE",
"561 0 OFFCURVE",
"534 0 CURVE SMOOTH",
"200 0 LINE SMOOTH",
"170 0 OFFCURVE",
"154 21 OFFCURVE",
"154 42 CURVE SMOOTH",
"154 62 OFFCURVE",
"168 82 OFFCURVE",
"196 82 CURVE SMOOTH",
"368 82 LINE",
"368 692 LINE",
"193 692 LINE SMOOTH",
"160 692 OFFCURVE",
"150 713 OFFCURVE",
"150 734 CURVE SMOOTH",
"150 753 OFFCURVE",
"162 774 OFFCURVE",
"189 774 CURVE SMOOTH",
"428 774 LINE SMOOTH",
"449 774 OFFCURVE",
"464 760 OFFCURVE",
"464 736 CURVE SMOOTH"
);
}
);
width = 1240;
}
);
unicode = 0138;
},
{
glyphname = l;
lastChange = "2016-08-10 13:30:31 +0000";
layers = (
{
layerId = "840BD324-B0A6-42B0-BD23-CB5E8C19394F";
paths = (
{
closed = 1;
nodes = (
"719 1150 CURVE SMOOTH",
"719 82 LINE",
"1059 82 LINE SMOOTH",
"1085 82 OFFCURVE",
"1098 61 OFFCURVE",
"1098 41 CURVE SMOOTH",
"1098 20 OFFCURVE",
"1085 0 OFFCURVE",
"1058 0 CURVE SMOOTH",
"258 0 LINE SMOOTH",
"227 0 OFFCURVE",
"212 21 OFFCURVE",
"212 42 CURVE SMOOTH",
"212 62 OFFCURVE",
"226 82 OFFCURVE",
"254 82 CURVE SMOOTH",
"623 82 LINE",
"623 1090 LINE",
"270 1062 LINE SMOOTH",
"267 1062 OFFCURVE",
"265 1061 OFFCURVE",
"263 1061 CURVE SMOOTH",
"236 1061 OFFCURVE",
"222 1082 OFFCURVE",
"222 1103 CURVE SMOOTH",
"222 1122 OFFCURVE",
"232 1140 OFFCURVE",
"254 1143 CURVE SMOOTH",
"672 1181 LINE SMOOTH",
"675 1181 OFFCURVE",
"678 1182 OFFCURVE",
"683 1182 CURVE SMOOTH",
"704 1182 OFFCURVE",
"719 1170 OFFCURVE"
);
}
);
width = 1240;
}
);
unicode = 006C;
},
{
glyphname = lslash;
lastChange = "2016-08-10 13:30:31 +0000";
layers = (
{
components = (
{
name = l;
}
);
layerId = "840BD324-B0A6-42B0-BD23-CB5E8C19394F";
paths = (
{
closed = 1;
nodes = (
"896 796 LINE SMOOTH",
"902 798 OFFCURVE",
"907 799 OFFCURVE",
"912 799 CURVE SMOOTH",
"934 799 OFFCURVE",
"949 778 OFFCURVE",
"949 757 CURVE SMOOTH",
"949 744 OFFCURVE",
"943 731 OFFCURVE",
"929 725 CURVE SMOOTH",
"435 523 LINE SMOOTH",
"429 521 OFFCURVE",
"423 519 OFFCURVE",
"418 519 CURVE SMOOTH",
"394 519 OFFCURVE",
"376 541 OFFCURVE",
"376 562 CURVE SMOOTH",
"376 575 OFFCURVE",
"383 588 OFFCURVE",
"400 595 CURVE SMOOTH"
);
}
);
width = 1240;
}
);
unicode = 0142;
},
{
glyphname = m;
lastChange = "2016-08-10 13:30:31 +0000";
layers = (
{
layerId = "840BD324-B0A6-42B0-BD23-CB5E8C19394F";
paths = (
{
closed = 1;
nodes = (
"591 540 LINE SMOOTH",
"591 678 OFFCURVE",
"546 731 OFFCURVE",
"486 731 CURVE SMOOTH",
"399 731 OFFCURVE",
"312 621 OFFCURVE",
"307 503 CURVE",
"307 82 LINE",
"392 82 LINE SMOOTH",
"424 82 OFFCURVE",
"440 62 OFFCURVE",
"440 42 CURVE SMOOTH",
"440 21 OFFCURVE",
"423 0 OFFCURVE",
"390 0 CURVE SMOOTH",
"107 0 LINE SMOOTH",
"76 0 OFFCURVE",
"61 22 OFFCURVE",
"61 43 CURVE SMOOTH",
"61 63 OFFCURVE",
"75 82 OFFCURVE",
"103 82 CURVE SMOOTH",
"211 82 LINE",
"211 709 LINE",
"103 687 LINE SMOOTH",
"96 685 OFFCURVE",
"89 684 OFFCURVE",
"83 684 CURVE SMOOTH",
"59 684 OFFCURVE",
"44 702 OFFCURVE",
"44 722 CURVE SMOOTH",
"44 738 OFFCURVE",
"53 757 OFFCURVE",
"77 763 CURVE",
"241 796 LINE SMOOTH",
"248 797 OFFCURVE",
"254 798 OFFCURVE",
"259 798 CURVE SMOOTH",
"286 798 OFFCURVE",
"297 782 OFFCURVE",
"298 759 CURVE SMOOTH",
"303 639 LINE",
"342 750 OFFCURVE",
"411 813 OFFCURVE",
"496 813 CURVE SMOOTH",
"572 813 OFFCURVE",
"640 763 OFFCURVE",
"671 654 CURVE",
"718 758 OFFCURVE",
"795 813 OFFCURVE",
"878 813 CURVE SMOOTH",
"983 813 OFFCURVE",
"1067 724 OFFCURVE",
"1067 533 CURVE SMOOTH",
"1067 82 LINE",
"1176 82 LINE SMOOTH",
"1203 82 OFFCURVE",
"1216 62 OFFCURVE",
"1216 42 CURVE SMOOTH",
"1216 21 OFFCURVE",
"1202 0 OFFCURVE",
"1174 0 CURVE SMOOTH",
"1017 0 LINE SMOOTH",
"986 0 OFFCURVE",
"971 22 OFFCURVE",
"971 43 CURVE SMOOTH",
"971 540 LINE SMOOTH",
"971 679 OFFCURVE",
"933 731 OFFCURVE",
"872 731 CURVE SMOOTH",
"785 731 OFFCURVE",
"689 625 OFFCURVE",
"687 509 CURVE",
"687 82 LINE",
"805 82 LINE SMOOTH",
"832 82 OFFCURVE",
"845 62 OFFCURVE",
"845 42 CURVE SMOOTH",
"845 21 OFFCURVE",
"831 0 OFFCURVE",
"803 0 CURVE SMOOTH",
"637 0 LINE SMOOTH",
"606 0 OFFCURVE",
"591 22 OFFCURVE",
"591 43 CURVE SMOOTH"
);
}
);
width = 1240;
}
);
unicode = 006D;
},
{
glyphname = n;
lastChange = "2016-08-10 13:30:31 +0000";
layers = (
{
layerId = "840BD324-B0A6-42B0-BD23-CB5E8C19394F";
paths = (
{
closed = 1;
nodes = (
"714 731 CURVE SMOOTH",
"522 731 OFFCURVE",
"394 604 OFFCURVE",
"394 503 CURVE SMOOTH",
"394 82 LINE",
"499 82 LINE SMOOTH",
"531 82 OFFCURVE",
"547 62 OFFCURVE",
"547 42 CURVE SMOOTH",
"547 21 OFFCURVE",
"530 0 OFFCURVE",
"497 0 CURVE SMOOTH",
"194 0 LINE SMOOTH",
"163 0 OFFCURVE",
"148 22 OFFCURVE",
"148 43 CURVE SMOOTH",
"148 63 OFFCURVE",
"162 82 OFFCURVE",
"190 82 CURVE SMOOTH",
"298 82 LINE",
"298 709 LINE",
"190 687 LINE SMOOTH",
"183 685 OFFCURVE",
"176 684 OFFCURVE",
"170 684 CURVE SMOOTH",
"146 684 OFFCURVE",
"131 702 OFFCURVE",
"131 722 CURVE SMOOTH",
"131 738 OFFCURVE",
"140 757 OFFCURVE",
"164 763 CURVE",
"328 796 LINE SMOOTH",
"335 797 OFFCURVE",
"341 798 OFFCURVE",
"346 798 CURVE SMOOTH",
"373 798 OFFCURVE",
"384 782 OFFCURVE",
"385 759 CURVE SMOOTH",
"390 639 LINE",
"440 737 OFFCURVE",
"570 813 OFFCURVE",
"709 813 CURVE SMOOTH",
"902 813 OFFCURVE",
"990 707 OFFCURVE",
"990 533 CURVE SMOOTH",
"990 82 LINE",
"1099 82 LINE SMOOTH",
"1126 82 OFFCURVE",
"1139 62 OFFCURVE",
"1139 42 CURVE SMOOTH",
"1139 21 OFFCURVE",
"1125 0 OFFCURVE",
"1097 0 CURVE SMOOTH",
"752 0 LINE SMOOTH",
"721 0 OFFCURVE",
"706 22 OFFCURVE",
"706 43 CURVE SMOOTH",
"706 63 OFFCURVE",
"720 82 OFFCURVE",
"748 82 CURVE SMOOTH",
"894 82 LINE",
"894 540 LINE SMOOTH",
"894 659 OFFCURVE",
"835 731 OFFCURVE"
);
}
);
width = 1240;
}
);
unicode = 006E;
},
{
glyphname = eng;
lastChange = "2016-08-10 13:30:31 +0000";
layers = (
{
layerId = "840BD324-B0A6-42B0-BD23-CB5E8C19394F";
paths = (
{
closed = 1;
nodes = (
"484 -308 CURVE SMOOTH",
"451 -308 OFFCURVE",
"433 -286 OFFCURVE",
"433 -264 CURVE SMOOTH",
"433 -242 OFFCURVE",
"452 -219 OFFCURVE",
"491 -219 CURVE SMOOTH",
"666 -219 OFFCURVE",
"916 -154 OFFCURVE",
"916 1 CURVE SMOOTH",
"916 540 LINE SMOOTH",
"916 659 OFFCURVE",
"857 731 OFFCURVE",
"736 731 CURVE SMOOTH",
"544 731 OFFCURVE",
"416 604 OFFCURVE",
"416 503 CURVE SMOOTH",
"416 82 LINE",
"521 82 LINE SMOOTH",
"553 82 OFFCURVE",
"569 62 OFFCURVE",
"569 42 CURVE SMOOTH",
"569 21 OFFCURVE",
"552 0 OFFCURVE",
"519 0 CURVE SMOOTH",
"216 0 LINE SMOOTH",
"185 0 OFFCURVE",
"170 22 OFFCURVE",
"170 43 CURVE SMOOTH",
"170 63 OFFCURVE",
"184 82 OFFCURVE",
"212 82 CURVE SMOOTH",
"320 82 LINE",
"320 709 LINE",
"212 687 LINE SMOOTH",
"205 685 OFFCURVE",
"198 684 OFFCURVE",
"192 684 CURVE SMOOTH",
"168 684 OFFCURVE",
"153 702 OFFCURVE",
"153 722 CURVE SMOOTH",
"153 738 OFFCURVE",
"162 757 OFFCURVE",
"186 763 CURVE",
"350 796 LINE SMOOTH",
"357 797 OFFCURVE",
"363 798 OFFCURVE",
"368 798 CURVE SMOOTH",
"395 798 OFFCURVE",
"406 782 OFFCURVE",
"407 759 CURVE SMOOTH",
"412 639 LINE",
"462 737 OFFCURVE",
"592 813 OFFCURVE",
"731 813 CURVE SMOOTH",
"924 813 OFFCURVE",
"1012 707 OFFCURVE",
"1012 533 CURVE SMOOTH",
"1012 -9 LINE SMOOTH",
"1012 -197 OFFCURVE",
"729 -308 OFFCURVE"
);
}
);
width = 1240;
}
);
unicode = 014B;
},
{
glyphname = o;
lastChange = "2016-08-10 13:30:31 +0000";
layers = (
{
layerId = "840BD324-B0A6-42B0-BD23-CB5E8C19394F";
paths = (
{
closed = 1;
nodes = (
"620 813 CURVE SMOOTH",
"873 813 OFFCURVE",
"1044 654 OFFCURVE",
"1044 398 CURVE SMOOTH",
"1044 145 OFFCURVE",
"873 -17 OFFCURVE",
"620 -17 CURVE SMOOTH",
"367 -17 OFFCURVE",
"196 145 OFFCURVE",
"196 398 CURVE SMOOTH",
"196 654 OFFCURVE",
"367 813 OFFCURVE"
);
},
{
closed = 1;
nodes = (
"620 65 CURVE SMOOTH",
"821 65 OFFCURVE",
"936 203 OFFCURVE",
"936 398 CURVE SMOOTH",
"936 592 OFFCURVE",
"821 731 OFFCURVE",
"620 731 CURVE SMOOTH",
"419 731 OFFCURVE",
"304 592 OFFCURVE",
"304 398 CURVE SMOOTH",
"304 203 OFFCURVE",
"419 65 OFFCURVE"
);
}
);
width = 1240;
}
);
unicode = 006F;
},
{
glyphname = oslash;
lastChange = "2016-08-10 13:30:31 +0000";
layers = (
{
components = (
{
name = o;
}
);
layerId = "840BD324-B0A6-42B0-BD23-CB5E8C19394F";
paths = (
{
closed = 1;
nodes = (
"410 -121 LINE SMOOTH",
"404 -134 OFFCURVE",
"396 -142 OFFCURVE",
"380 -142 CURVE SMOOTH",
"360 -142 OFFCURVE",
"347 -129 OFFCURVE",
"347 -108 CURVE SMOOTH",
"347 -103 OFFCURVE",
"348 -99 OFFCURVE",
"350 -95 CURVE SMOOTH",
"834 917 LINE SMOOTH",
"839 929 OFFCURVE",
"848 934 OFFCURVE",
"861 934 CURVE SMOOTH",
"881 934 OFFCURVE",
"894 922 OFFCURVE",
"894 900 CURVE SMOOTH",
"894 896 OFFCURVE",
"893 892 OFFCURVE",
"891 888 CURVE SMOOTH"
);
}
);
width = 1240;
}
);
unicode = 00F8;
},
{
glyphname = oe;
lastChange = "2016-08-10 13:30:31 +0000";
layers = (
{
layerId = "840BD324-B0A6-42B0-BD23-CB5E8C19394F";
paths = (
{
closed = 1;
nodes = (
"1128 479 CURVE SMOOTH",
"1128 429 OFFCURVE",
"1098 392 OFFCURVE",
"1051 392 CURVE SMOOTH",
"675 387 LINE",
"682 171 OFFCURVE",
"780 61 OFFCURVE",
"890 61 CURVE SMOOTH",
"951 61 OFFCURVE",
"1015 94 OFFCURVE",
"1071 162 CURVE SMOOTH",
"1077 169 OFFCURVE",
"1085 172 OFFCURVE",
"1094 172 CURVE SMOOTH",
"1113 172 OFFCURVE",
"1136 158 OFFCURVE",
"1136 137 CURVE SMOOTH",
"1136 128 OFFCURVE",
"1131 117 OFFCURVE",
"1121 105 CURVE SMOOTH",
"1045 21 OFFCURVE",
"963 -10 OFFCURVE",
"886 -10 CURVE SMOOTH",
"775 -10 OFFCURVE",
"677 45 OFFCURVE",
"631 205 CURVE",
"581 49 OFFCURVE",
"477 -10 OFFCURVE",
"378 -10 CURVE SMOOTH",
"238 -10 OFFCURVE",
"99 126 OFFCURVE",
"99 398 CURVE SMOOTH",
"99 671 OFFCURVE",
"241 807 OFFCURVE",
"383 807 CURVE SMOOTH",
"482 807 OFFCURVE",
"588 750 OFFCURVE",
"629 587 CURVE",
"676 751 OFFCURVE",
"782 812 OFFCURVE",
"882 812 CURVE SMOOTH",
"1005 812 OFFCURVE",
"1128 705 OFFCURVE"
);
},
{
closed = 1;
nodes = (
"678 456 CURVE",
"1043 460 LINE",
"1043 637 OFFCURVE",
"960 732 OFFCURVE",
"877 732 CURVE SMOOTH",
"794 732 OFFCURVE",
"711 637 OFFCURVE"
);
},
{
closed = 1;
nodes = (
"579 398 CURVE SMOOTH",
"579 615 OFFCURVE",
"486 723 OFFCURVE",
"393 723 CURVE SMOOTH",
"300 723 OFFCURVE",
"207 615 OFFCURVE",
"207 398 CURVE SMOOTH",
"207 181 OFFCURVE",
"300 72 OFFCURVE",
"393 72 CURVE SMOOTH",
"486 72 OFFCURVE",
"579 181 OFFCURVE"
);
}
);
width = 1240;
}
);
unicode = 0153;
},
{
glyphname = p;
lastChange = "2016-08-10 13:30:31 +0000";
layers = (
{
layerId = "840BD324-B0A6-42B0-BD23-CB5E8C19394F";
paths = (
{
closed = 1;
nodes = (
"399 690 LINE",
"463 755 OFFCURVE",
"566 813 OFFCURVE",
"693 813 CURVE SMOOTH",
"928 813 OFFCURVE",
"1067 640 OFFCURVE",
"1067 398 CURVE SMOOTH",
"1067 160 OFFCURVE",
"923 -17 OFFCURVE",
"689 -17 CURVE SMOOTH",
"560 -17 OFFCURVE",
"479 25 OFFCURVE",
"405 89 CURVE",
"405 -288 LINE",
"621 -288 LINE SMOOTH",
"649 -288 OFFCURVE",
"663 -307 OFFCURVE",
"663 -327 CURVE SMOOTH",
"663 -348 OFFCURVE",
"648 -370 OFFCURVE",
"617 -370 CURVE SMOOTH",
"221 -370 LINE SMOOTH",
"193 -370 OFFCURVE",
"179 -349 OFFCURVE",
"179 -328 CURVE SMOOTH",
"179 -308 OFFCURVE",
"192 -288 OFFCURVE",
"219 -288 CURVE SMOOTH",
"309 -288 LINE",
"309 708 LINE",
"201 687 LINE SMOOTH",
"194 686 OFFCURVE",
"187 684 OFFCURVE",
"181 684 CURVE SMOOTH",
"157 684 OFFCURVE",
"142 702 OFFCURVE",
"142 722 CURVE SMOOTH",
"142 738 OFFCURVE",
"151 757 OFFCURVE",
"175 763 CURVE",
"339 796 LINE SMOOTH",
"346 797 OFFCURVE",
"352 798 OFFCURVE",
"357 798 CURVE SMOOTH",
"384 798 OFFCURVE",
"395 782 OFFCURVE",
"396 759 CURVE SMOOTH"
);
},
{
closed = 1;
nodes = (
"971 398 CURVE SMOOTH",
"971 577 OFFCURVE",
"877 731 OFFCURVE",
"691 731 CURVE SMOOTH",
"556 731 OFFCURVE",
"463 669 OFFCURVE",
"405 586 CURVE",
"405 194 LINE",
"468 115 OFFCURVE",
"556 65 OFFCURVE",
"683 65 CURVE SMOOTH",
"874 65 OFFCURVE",
"971 221 OFFCURVE"
);
}
);
width = 1240;
}
);
unicode = 0070;
},
{
glyphname = thorn;
lastChange = "2016-08-10 13:30:31 +0000";
layers = (
{
layerId = "840BD324-B0A6-42B0-BD23-CB5E8C19394F";
paths = (
{
closed = 1;
nodes = (
"409 1150 CURVE SMOOTH",
"409 690 LINE",
"473 755 OFFCURVE",
"570 813 OFFCURVE",
"697 813 CURVE SMOOTH",
"932 813 OFFCURVE",
"1071 640 OFFCURVE",
"1071 398 CURVE SMOOTH",
"1071 160 OFFCURVE",
"927 -17 OFFCURVE",
"693 -17 CURVE SMOOTH",
"564 -17 OFFCURVE",
"483 25 OFFCURVE",
"409 89 CURVE",
"409 -288 LINE",
"625 -288 LINE SMOOTH",
"653 -288 OFFCURVE",
"667 -307 OFFCURVE",
"667 -327 CURVE SMOOTH",
"667 -348 OFFCURVE",
"652 -370 OFFCURVE",
"621 -370 CURVE SMOOTH",
"225 -370 LINE SMOOTH",
"197 -370 OFFCURVE",
"183 -349 OFFCURVE",
"183 -328 CURVE SMOOTH",
"183 -308 OFFCURVE",
"196 -288 OFFCURVE",
"223 -288 CURVE SMOOTH",
"313 -288 LINE",
"313 1082 LINE",
"144 1058 LINE SMOOTH",
"140 1058 OFFCURVE",
"138 1057 OFFCURVE",
"136 1057 CURVE SMOOTH",
"109 1057 OFFCURVE",
"96 1078 OFFCURVE",
"96 1099 CURVE SMOOTH",
"96 1118 OFFCURVE",
"106 1136 OFFCURVE",
"128 1139 CURVE SMOOTH",
"362 1181 LINE SMOOTH",
"364 1181 OFFCURVE",
"368 1182 OFFCURVE",
"373 1182 CURVE SMOOTH",
"394 1182 OFFCURVE",
"409 1170 OFFCURVE"
);
},
{
closed = 1;
nodes = (
"975 398 CURVE SMOOTH",
"975 577 OFFCURVE",
"881 731 OFFCURVE",
"695 731 CURVE SMOOTH",
"560 731 OFFCURVE",
"467 669 OFFCURVE",
"409 586 CURVE",
"409 194 LINE",
"472 115 OFFCURVE",
"560 65 OFFCURVE",
"687 65 CURVE SMOOTH",
"878 65 OFFCURVE",
"975 221 OFFCURVE"
);
}
);
width = 1240;
}
);
unicode = 00FE;
},
{
glyphname = q;
lastChange = "2016-08-10 13:30:31 +0000";
layers = (
{
layerId = "840BD324-B0A6-42B0-BD23-CB5E8C19394F";
paths = (
{
closed = 1;
nodes = (
"958 -288 LINE",
"1048 -288 LINE SMOOTH",
"1075 -288 OFFCURVE",
"1088 -308 OFFCURVE",
"1088 -328 CURVE SMOOTH",
"1088 -349 OFFCURVE",
"1074 -370 OFFCURVE",
"1046 -370 CURVE SMOOTH",
"650 -370 LINE SMOOTH",
"619 -370 OFFCURVE",
"604 -348 OFFCURVE",
"604 -327 CURVE SMOOTH",
"604 -307 OFFCURVE",
"618 -288 OFFCURVE",
"646 -288 CURVE SMOOTH",
"862 -288 LINE",
"862 89 LINE",
"788 25 OFFCURVE",
"707 -17 OFFCURVE",
"578 -17 CURVE SMOOTH",
"344 -17 OFFCURVE",
"200 160 OFFCURVE",
"200 398 CURVE SMOOTH",
"200 640 OFFCURVE",
"339 813 OFFCURVE",
"574 813 CURVE SMOOTH",
"701 813 OFFCURVE",
"802 759 OFFCURVE",
"866 694 CURVE",
"866 796 OFFCURVE",
"892 800 OFFCURVE",
"917 800 CURVE SMOOTH",
"938 800 OFFCURVE",
"958 791 OFFCURVE",
"958 724 CURVE SMOOTH"
);
},
{
closed = 1;
nodes = (
"296 398 CURVE SMOOTH",
"296 221 OFFCURVE",
"393 65 OFFCURVE",
"584 65 CURVE SMOOTH",
"711 65 OFFCURVE",
"799 115 OFFCURVE",
"862 194 CURVE",
"862 586 LINE",
"804 669 OFFCURVE",
"711 731 OFFCURVE",
"576 731 CURVE SMOOTH",
"390 731 OFFCURVE",
"296 577 OFFCURVE"
);
}
);
width = 1240;
}
);
unicode = 0071;
},
{
glyphname = r;
lastChange = "2016-08-10 13:30:31 +0000";
layers = (
{
layerId = "840BD324-B0A6-42B0-BD23-CB5E8C19394F";
paths = (
{
closed = 1;
nodes = (
"920 731 LINE",
"749 731 OFFCURVE",
"595 664 OFFCURVE",
"540 526 CURVE",
"540 82 LINE",
"876 82 LINE SMOOTH",
"903 82 OFFCURVE",
"916 62 OFFCURVE",
"916 41 CURVE SMOOTH",
"916 21 OFFCURVE",
"902 0 OFFCURVE",
"875 0 CURVE SMOOTH",
"265 0 LINE SMOOTH",
"234 0 OFFCURVE",
"219 21 OFFCURVE",
"219 42 CURVE SMOOTH",
"219 62 OFFCURVE",
"233 82 OFFCURVE",
"261 82 CURVE SMOOTH",
"444 82 LINE",
"444 709 LINE",
"322 684 LINE SMOOTH",
"318 683 OFFCURVE",
"314 683 OFFCURVE",
"310 683 CURVE SMOOTH",
"283 683 OFFCURVE",
"270 703 OFFCURVE",
"270 723 CURVE SMOOTH",
"270 740 OFFCURVE",
"280 757 OFFCURVE",
"300 761 CURVE SMOOTH",
"471 795 LINE SMOOTH",
"480 797 OFFCURVE",
"488 798 OFFCURVE",
"494 798 CURVE SMOOTH",
"526 798 OFFCURVE",
"531 775 OFFCURVE",
"532 742 CURVE SMOOTH",
"536 638 LINE",
"607 747 OFFCURVE",
"732 813 OFFCURVE",
"928 813 CURVE SMOOTH",
"994 813 OFFCURVE",
"1016 791 OFFCURVE",
"1016 753 CURVE SMOOTH",
"1016 615 LINE SMOOTH",
"1016 577 OFFCURVE",
"992 559 OFFCURVE",
"967 559 CURVE SMOOTH",
"944 559 OFFCURVE",
"920 576 OFFCURVE",
"920 611 CURVE SMOOTH"
);
}
);
width = 1240;
}
);
unicode = 0072;
},
{
glyphname = s;
lastChange = "2016-08-10 13:30:31 +0000";
layers = (
{
layerId = "840BD324-B0A6-42B0-BD23-CB5E8C19394F";
paths = (
{
closed = 1;
nodes = (
"609 813 CURVE SMOOTH",
"724 813 OFFCURVE",
"847 774 OFFCURVE",
"888 721 CURVE",
"888 758 LINE",
"887 791 OFFCURVE",
"909 808 OFFCURVE",
"930 808 CURVE SMOOTH",
"951 808 OFFCURVE",
"971 792 OFFCURVE",
"971 759 CURVE SMOOTH",
"969 558 LINE",
"966 534 OFFCURVE",
"956 521 OFFCURVE",
"929 521 CURVE SMOOTH",
"894 521 OFFCURVE",
"890 549 OFFCURVE",
"889 606 CURVE",
"852 694 OFFCURVE",
"740 731 OFFCURVE",
"602 731 CURVE SMOOTH",
"485 731 OFFCURVE",
"390 701 OFFCURVE",
"390 601 CURVE SMOOTH",
"390 544 OFFCURVE",
"417 504 OFFCURVE",
"517 482 CURVE",
"776 430 LINE SMOOTH",
"892 407 OFFCURVE",
"978 355 OFFCURVE",
"978 208 CURVE SMOOTH",
"978 53 OFFCURVE",
"841 -17 OFFCURVE",
"652 -17 CURVE SMOOTH",
"537 -17 OFFCURVE",
"420 13 OFFCURVE",
"342 102 CURVE",
"342 42 LINE SMOOTH",
"342 12 OFFCURVE",
"324 0 OFFCURVE",
"306 0 CURVE SMOOTH",
"286 0 OFFCURVE",
"266 15 OFFCURVE",
"266 39 CURVE SMOOTH",
"268 265 LINE SMOOTH",
"268 302 OFFCURVE",
"287 317 OFFCURVE",
"304 317 CURVE SMOOTH",
"322 317 OFFCURVE",
"340 312 OFFCURVE",
"340 265 CURVE SMOOTH",
"340 151 OFFCURVE",
"474 65 OFFCURVE",
"646 65 CURVE SMOOTH",
"795 65 OFFCURVE",
"881 110 OFFCURVE",
"881 209 CURVE SMOOTH",
"881 273 OFFCURVE",
"853 318 OFFCURVE",
"763 335 CURVE SMOOTH",
"497 387 LINE SMOOTH",
"371 411 OFFCURVE",
"287 468 OFFCURVE",
"287 586 CURVE SMOOTH",
"287 765 OFFCURVE",
"453 813 OFFCURVE"
);
}
);
width = 1240;
}
);
unicode = 0073;
},
{
glyphname = germandbls;
lastChange = "2016-08-10 13:30:31 +0000";
layers = (
{
layerId = "840BD324-B0A6-42B0-BD23-CB5E8C19394F";
paths = (
{
closed = 1;
nodes = (
"928 894 CURVE SMOOTH",
"928 760 OFFCURVE",
"817 670 OFFCURVE",
"725 643 CURVE",
"882 612 OFFCURVE",
"1052 530 OFFCURVE",
"1052 318 CURVE SMOOTH",
"1052 124 OFFCURVE",
"922 30 OFFCURVE",
"724 0 CURVE SMOOTH",
"719 -1 OFFCURVE",
"714 -1 OFFCURVE",
"710 -1 CURVE SMOOTH",
"680 -1 OFFCURVE",
"663 17 OFFCURVE",
"663 44 CURVE SMOOTH",
"663 73 OFFCURVE",
"682 75 OFFCURVE",
"724 82 CURVE SMOOTH",
"839 100 OFFCURVE",
"954 151 OFFCURVE",
"954 320 CURVE SMOOTH",
"954 522 OFFCURVE",
"762 591 OFFCURVE",
"579 591 CURVE SMOOTH",
"547 591 OFFCURVE",
"532 614 OFFCURVE",
"532 636 CURVE SMOOTH",
"532 658 OFFCURVE",
"546 677 OFFCURVE",
"579 677 CURVE SMOOTH",
"686 677 OFFCURVE",
"835 744 OFFCURVE",
"835 898 CURVE SMOOTH",
"835 1030 OFFCURVE",
"746 1106 OFFCURVE",
"619 1106 CURVE SMOOTH",
"476 1106 OFFCURVE",
"370 1011 OFFCURVE",
"370 706 CURVE SMOOTH",
"370 82 LINE",
"526 82 LINE SMOOTH",
"561 82 OFFCURVE",
"575 72 OFFCURVE",
"575 38 CURVE SMOOTH",
"575 8 OFFCURVE",
"556 0 OFFCURVE",
"524 0 CURVE SMOOTH",
"145 0 LINE SMOOTH",
"113 0 OFFCURVE",
"94 8 OFFCURVE",
"94 38 CURVE SMOOTH",
"94 72 OFFCURVE",
"108 82 OFFCURVE",
"143 82 CURVE SMOOTH",
"274 82 LINE",
"274 700 LINE SMOOTH",
"274 1085 OFFCURVE",
"438 1188 OFFCURVE",
"614 1188 CURVE SMOOTH",
"781 1188 OFFCURVE",
"928 1083 OFFCURVE"
);
}
);
width = 1240;
}
);
unicode = 00DF;
},
{
glyphname = t;
lastChange = "2016-08-10 13:30:31 +0000";
layers = (
{
layerId = "840BD324-B0A6-42B0-BD23-CB5E8C19394F";
paths = (
{
closed = 1;
nodes = (
"505 204 LINE SMOOTH",
"505 102 OFFCURVE",
"583 65 OFFCURVE",
"677 65 CURVE SMOOTH",
"772 65 OFFCURVE",
"884 103 OFFCURVE",
"946 150 CURVE SMOOTH",
"949 153 OFFCURVE",
"953 154 OFFCURVE",
"957 154 CURVE SMOOTH",
"976 154 OFFCURVE",
"999 125 OFFCURVE",
"999 103 CURVE SMOOTH",
"999 97 OFFCURVE",
"997 92 OFFCURVE",
"994 88 CURVE SMOOTH",
"953 39 OFFCURVE",
"807 -17 OFFCURVE",
"667 -17 CURVE SMOOTH",
"529 -17 OFFCURVE",
"409 69 OFFCURVE",
"409 169 CURVE SMOOTH",
"409 692 LINE",
"266 692 LINE SMOOTH",
"235 692 OFFCURVE",
"220 714 OFFCURVE",
"220 735 CURVE SMOOTH",
"220 755 OFFCURVE",
"234 774 OFFCURVE",
"262 774 CURVE SMOOTH",
"409 774 LINE",
"409 988 OFFCURVE",
"410 1058 OFFCURVE",
"469 1058 CURVE SMOOTH",
"502 1058 OFFCURVE",
"505 1037 OFFCURVE",
"505 1013 CURVE SMOOTH",
"505 774 LINE",
"877 774 LINE SMOOTH",
"903 774 OFFCURVE",
"916 753 OFFCURVE",
"916 733 CURVE SMOOTH",
"916 712 OFFCURVE",
"903 692 OFFCURVE",
"876 692 CURVE SMOOTH",
"505 692 LINE"
);
}
);
width = 1240;
}
);
unicode = 0074;
},
{
glyphname = tbar;
lastChange = "2016-08-10 13:30:31 +0000";
layers = (
{
components = (
{
name = t;
}
);
layerId = "840BD324-B0A6-42B0-BD23-CB5E8C19394F";
paths = (
{
closed = 1;
nodes = (
"765 504 LINE SMOOTH",
"798 504 OFFCURVE",
"804 486 OFFCURVE",
"804 467 CURVE SMOOTH",
"804 448 OFFCURVE",
"796 428 OFFCURVE",
"763 428 CURVE SMOOTH",
"320 428 LINE SMOOTH",
"283 428 OFFCURVE",
"274 448 OFFCURVE",
"274 467 CURVE SMOOTH",
"274 486 OFFCURVE",
"281 504 OFFCURVE",
"316 504 CURVE SMOOTH"
);
}
);
width = 1240;
}
);
unicode = 0167;
},
{
glyphname = u;
lastChange = "2016-08-10 13:30:31 +0000";
layers = (
{
layerId = "840BD324-B0A6-42B0-BD23-CB5E8C19394F";
paths = (
{
closed = 1;
nodes = (
"562 65 CURVE SMOOTH",
"680 65 OFFCURVE",
"821 137 OFFCURVE",
"866 231 CURVE",
"866 706 LINE",
"769 686 LINE SMOOTH",
"763 684 OFFCURVE",
"757 683 OFFCURVE",
"751 683 CURVE SMOOTH",
"722 683 OFFCURVE",
"704 705 OFFCURVE",
"704 726 CURVE SMOOTH",
"704 743 OFFCURVE",
"716 760 OFFCURVE",
"742 765 CURVE SMOOTH",
"916 800 LINE SMOOTH",
"920 801 OFFCURVE",
"924 802 OFFCURVE",
"928 802 CURVE SMOOTH",
"948 802 OFFCURVE",
"962 787 OFFCURVE",
"962 768 CURVE SMOOTH",
"962 85 LINE",
"1110 96 LINE",
"1116 96 LINE SMOOTH",
"1144 96 OFFCURVE",
"1156 79 OFFCURVE",
"1156 61 CURVE SMOOTH",
"1156 42 OFFCURVE",
"1143 22 OFFCURVE",
"1118 17 CURVE",
"932 -3 LINE",
"925 -3 LINE SMOOTH",
"899 -3 OFFCURVE",
"880 13 OFFCURVE",
"878 47 CURVE SMOOTH",
"873 134 LINE",
"816 49 OFFCURVE",
"689 -17 OFFCURVE",
"561 -17 CURVE SMOOTH",
"377 -17 OFFCURVE",
"270 97 OFFCURVE",
"270 262 CURVE SMOOTH",
"270 706 LINE",
"172 686 LINE SMOOTH",
"166 684 OFFCURVE",
"160 684 OFFCURVE",
"155 684 CURVE SMOOTH",
"127 684 OFFCURVE",
"109 706 OFFCURVE",
"109 727 CURVE SMOOTH",
"109 744 OFFCURVE",
"120 760 OFFCURVE",
"145 765 CURVE SMOOTH",
"320 800 LINE SMOOTH",
"324 801 OFFCURVE",
"328 802 OFFCURVE",
"332 802 CURVE SMOOTH",
"352 802 OFFCURVE",
"366 787 OFFCURVE",
"366 768 CURVE SMOOTH",
"366 259 LINE SMOOTH",
"366 148 OFFCURVE",
"428 65 OFFCURVE"
);
}
);
width = 1240;
}
);
unicode = 0075;
},
{
glyphname = uni01C6;
lastChange = "2016-08-10 13:30:31 +0000";
layers = (
{
components = (
{
name = caron;
transform = "{1, 0, 0, 1, 258, -44}";
}
);
layerId = "840BD324-B0A6-42B0-BD23-CB5E8C19394F";
paths = (
{
closed = 1;
nodes = (
"497 47 CURVE SMOOTH",
"494 107 LINE",
"441 22 OFFCURVE",
"373 -16 OFFCURVE",
"310 -16 CURVE SMOOTH",
"177 -16 OFFCURVE",
"63 153 OFFCURVE",
"63 398 CURVE SMOOTH",
"63 651 OFFCURVE",
"164 813 OFFCURVE",
"299 813 CURVE SMOOTH",
"358 813 OFFCURVE",
"426 782 OFFCURVE",
"485 714 CURVE",
"485 1091 LINE",
"357 1083 LINE SMOOTH",
"350 1082 OFFCURVE",
"343 1080 OFFCURVE",
"337 1080 CURVE SMOOTH",
"313 1080 OFFCURVE",
"298 1098 OFFCURVE",
"298 1118 CURVE SMOOTH",
"298 1134 OFFCURVE",
"307 1154 OFFCURVE",
"331 1159 CURVE",
"520 1178 LINE SMOOTH",
"528 1179 OFFCURVE",
"534 1180 OFFCURVE",
"540 1180 CURVE SMOOTH",
"569 1180 OFFCURVE",
"581 1164 OFFCURVE",
"581 1141 CURVE SMOOTH",
"581 85 LINE",
"637 91 LINE",
"643 91 LINE SMOOTH",
"671 91 OFFCURVE",
"683 74 OFFCURVE",
"683 56 CURVE SMOOTH",
"683 37 OFFCURVE",
"670 17 OFFCURVE",
"645 12 CURVE",
"551 -3 LINE",
"544 -3 LINE SMOOTH",
"518 -3 OFFCURVE",
"499 13 OFFCURVE"
);
},
{
closed = 1;
nodes = (
"159 398 CURVE SMOOTH",
"159 186 OFFCURVE",
"226 60 OFFCURVE",
"318 60 CURVE SMOOTH",
"374 60 OFFCURVE",
"438 107 OFFCURVE",
"485 210 CURVE",
"485 619 LINE",
"424 698 OFFCURVE",
"361 735 OFFCURVE",
"309 735 CURVE SMOOTH",
"213 735 OFFCURVE",
"159 610 OFFCURVE"
);
},
{
closed = 1;
nodes = (
"1089 772 LINE SMOOTH",
"1135 772 OFFCURVE",
"1150 750 OFFCURVE",
"1150 727 CURVE SMOOTH",
"1150 710 OFFCURVE",
"1138 695 OFFCURVE",
"1132 682 CURVE SMOOTH",
"860 82 LINE",
"1065 82 LINE",
"1076 259 LINE SMOOTH",
"1077 283 OFFCURVE",
"1099 297 OFFCURVE",
"1120 297 CURVE SMOOTH",
"1141 297 OFFCURVE",
"1161 284 OFFCURVE",
"1161 255 CURVE SMOOTH",
"1161 46 LINE SMOOTH",
"1161 21 OFFCURVE",
"1134 0 OFFCURVE",
"1110 0 CURVE SMOOTH",
"806 0 LINE SMOOTH",
"768 0 OFFCURVE",
"750 24 OFFCURVE",
"750 59 CURVE SMOOTH",
"750 81 OFFCURVE",
"761 97 OFFCURVE",
"767 109 CURVE SMOOTH",
"1034 692 LINE",
"831 692 LINE",
"823 535 LINE SMOOTH",
"822 505 OFFCURVE",
"802 490 OFFCURVE",
"781 490 CURVE SMOOTH",
"759 490 OFFCURVE",
"736 507 OFFCURVE",
"736 540 CURVE SMOOTH",
"736 726 LINE SMOOTH",
"736 750 OFFCURVE",
"758 772 OFFCURVE",
"782 772 CURVE SMOOTH"
);
}
);
width = 1240;
}
);
unicode = 01C6;
},
{
glyphname = uni01C9;
lastChange = "2016-08-10 13:30:31 +0000";
layers = (
{
layerId = "840BD324-B0A6-42B0-BD23-CB5E8C19394F";
paths = (
{
closed = 1;
nodes = (
"999 1171 CURVE SMOOTH",
"1045 1171 OFFCURVE",
"1081 1134 OFFCURVE",
"1081 1088 CURVE SMOOTH",
"1081 1042 OFFCURVE",
"1045 1006 OFFCURVE",
"999 1006 CURVE SMOOTH",
"953 1006 OFFCURVE",
"916 1042 OFFCURVE",
"916 1088 CURVE SMOOTH",
"916 1134 OFFCURVE",
"953 1171 OFFCURVE"
);
},
{
closed = 1;
nodes = (
"678 -309 CURVE SMOOTH",
"645 -309 OFFCURVE",
"627 -287 OFFCURVE",
"627 -265 CURVE SMOOTH",
"627 -243 OFFCURVE",
"646 -220 OFFCURVE",
"685 -220 CURVE SMOOTH",
"860 -220 OFFCURVE",
"970 -155 OFFCURVE",
"970 0 CURVE SMOOTH",
"970 732 LINE",
"704 732 LINE SMOOTH",
"675 732 OFFCURVE",
"660 754 OFFCURVE",
"660 775 CURVE SMOOTH",
"660 795 OFFCURVE",
"674 814 OFFCURVE",
"700 814 CURVE SMOOTH",
"1030 814 LINE SMOOTH",
"1050 814 OFFCURVE",
"1066 806 OFFCURVE",
"1066 785 CURVE SMOOTH",
"1066 -10 LINE SMOOTH",
"1066 -198 OFFCURVE",
"923 -309 OFFCURVE"
);
},
{
closed = 1;
nodes = (
"476 1150 CURVE SMOOTH",
"476 82 LINE",
"696 82 LINE SMOOTH",
"722 82 OFFCURVE",
"735 61 OFFCURVE",
"735 41 CURVE SMOOTH",
"735 20 OFFCURVE",
"722 0 OFFCURVE",
"695 0 CURVE SMOOTH",
"146 0 LINE SMOOTH",
"115 0 OFFCURVE",
"100 21 OFFCURVE",
"100 42 CURVE SMOOTH",
"100 62 OFFCURVE",
"114 82 OFFCURVE",
"142 82 CURVE SMOOTH",
"380 82 LINE",
"380 1090 LINE",
"146 1061 LINE SMOOTH",
"143 1061 OFFCURVE",
"141 1060 OFFCURVE",
"139 1060 CURVE SMOOTH",
"112 1060 OFFCURVE",
"98 1081 OFFCURVE",
"98 1102 CURVE SMOOTH",
"98 1121 OFFCURVE",
"108 1139 OFFCURVE",
"130 1142 CURVE SMOOTH",
"429 1181 LINE SMOOTH",
"432 1181 OFFCURVE",
"435 1182 OFFCURVE",
"440 1182 CURVE SMOOTH",
"461 1182 OFFCURVE",
"476 1170 OFFCURVE"
);
}
);
width = 1240;
}
);
unicode = 01C9;
},
{
glyphname = uni01CC;
lastChange = "2016-08-10 13:30:31 +0000";
layers = (
{
layerId = "840BD324-B0A6-42B0-BD23-CB5E8C19394F";
paths = (
{
closed = 1;
nodes = (
"1044 1171 CURVE SMOOTH",
"1090 1171 OFFCURVE",
"1126 1134 OFFCURVE",
"1126 1088 CURVE SMOOTH",
"1126 1042 OFFCURVE",
"1090 1006 OFFCURVE",
"1044 1006 CURVE SMOOTH",
"998 1006 OFFCURVE",
"961 1042 OFFCURVE",
"961 1088 CURVE SMOOTH",
"961 1134 OFFCURVE",
"998 1171 OFFCURVE"
);
},
{
closed = 1;
nodes = (
"748 -309 CURVE SMOOTH",
"715 -309 OFFCURVE",
"697 -287 OFFCURVE",
"697 -265 CURVE SMOOTH",
"697 -243 OFFCURVE",
"716 -220 OFFCURVE",
"755 -220 CURVE SMOOTH",
"930 -220 OFFCURVE",
"1040 -155 OFFCURVE",
"1040 0 CURVE SMOOTH",
"1040 732 LINE",
"854 732 LINE SMOOTH",
"825 732 OFFCURVE",
"810 754 OFFCURVE",
"810 775 CURVE SMOOTH",
"810 795 OFFCURVE",
"824 814 OFFCURVE",
"850 814 CURVE SMOOTH",
"1100 814 LINE SMOOTH",
"1120 814 OFFCURVE",
"1136 806 OFFCURVE",
"1136 785 CURVE SMOOTH",
"1136 -10 LINE SMOOTH",
"1136 -198 OFFCURVE",
"993 -309 OFFCURVE"
);
},
{
closed = 1;
nodes = (
"478 731 CURVE SMOOTH",
"286 731 OFFCURVE",
"238 604 OFFCURVE",
"238 503 CURVE SMOOTH",
"238 82 LINE",
"313 82 LINE SMOOTH",
"345 82 OFFCURVE",
"361 62 OFFCURVE",
"361 42 CURVE SMOOTH",
"361 21 OFFCURVE",
"344 0 OFFCURVE",
"311 0 CURVE SMOOTH",
"88 0 LINE SMOOTH",
"57 0 OFFCURVE",
"42 22 OFFCURVE",
"42 43 CURVE SMOOTH",
"42 63 OFFCURVE",
"56 82 OFFCURVE",
"84 82 CURVE SMOOTH",
"142 82 LINE",
"142 709 LINE",
"84 699 LINE SMOOTH",
"77 697 OFFCURVE",
"70 696 OFFCURVE",
"64 696 CURVE SMOOTH",
"40 696 OFFCURVE",
"25 714 OFFCURVE",
"25 734 CURVE SMOOTH",
"25 750 OFFCURVE",
"34 769 OFFCURVE",
"58 775 CURVE",
"172 796 LINE SMOOTH",
"179 797 OFFCURVE",
"185 798 OFFCURVE",
"190 798 CURVE SMOOTH",
"217 798 OFFCURVE",
"228 782 OFFCURVE",
"229 759 CURVE SMOOTH",
"234 639 LINE",
"284 737 OFFCURVE",
"334 813 OFFCURVE",
"473 813 CURVE SMOOTH",
"666 813 OFFCURVE",
"734 707 OFFCURVE",
"734 533 CURVE SMOOTH",
"734 82 LINE",
"783 82 LINE SMOOTH",
"810 82 OFFCURVE",
"823 62 OFFCURVE",
"823 42 CURVE SMOOTH",
"823 21 OFFCURVE",
"809 0 OFFCURVE",
"781 0 CURVE SMOOTH",
"556 0 LINE SMOOTH",
"525 0 OFFCURVE",
"510 22 OFFCURVE",
"510 43 CURVE SMOOTH",
"510 63 OFFCURVE",
"524 82 OFFCURVE",
"552 82 CURVE SMOOTH",
"638 82 LINE",
"638 540 LINE SMOOTH",
"638 659 OFFCURVE",
"599 731 OFFCURVE"
);
}
);
width = 1240;
}
);
unicode = 01CC;
},
{
glyphname = uni01F3;
lastChange = "2016-08-10 13:30:31 +0000";
layers = (
{
layerId = "840BD324-B0A6-42B0-BD23-CB5E8C19394F";
paths = (
{
closed = 1;
nodes = (
"497 47 CURVE SMOOTH",
"494 107 LINE",
"441 22 OFFCURVE",
"373 -16 OFFCURVE",
"310 -16 CURVE SMOOTH",
"177 -16 OFFCURVE",
"63 153 OFFCURVE",
"63 398 CURVE SMOOTH",
"63 651 OFFCURVE",
"164 813 OFFCURVE",
"299 813 CURVE SMOOTH",
"358 813 OFFCURVE",
"426 782 OFFCURVE",
"485 714 CURVE",
"485 1091 LINE",
"357 1083 LINE SMOOTH",
"350 1082 OFFCURVE",
"343 1080 OFFCURVE",
"337 1080 CURVE SMOOTH",
"313 1080 OFFCURVE",
"298 1098 OFFCURVE",
"298 1118 CURVE SMOOTH",
"298 1134 OFFCURVE",
"307 1154 OFFCURVE",
"331 1159 CURVE",
"520 1178 LINE SMOOTH",
"528 1179 OFFCURVE",
"534 1180 OFFCURVE",
"540 1180 CURVE SMOOTH",
"569 1180 OFFCURVE",
"581 1164 OFFCURVE",
"581 1141 CURVE SMOOTH",
"581 85 LINE",
"637 91 LINE",
"643 91 LINE SMOOTH",
"671 91 OFFCURVE",
"683 74 OFFCURVE",
"683 56 CURVE SMOOTH",
"683 37 OFFCURVE",
"670 17 OFFCURVE",
"645 12 CURVE",
"551 -3 LINE",
"544 -3 LINE SMOOTH",
"518 -3 OFFCURVE",
"499 13 OFFCURVE"
);
},
{
closed = 1;
nodes = (
"159 398 CURVE SMOOTH",
"159 186 OFFCURVE",
"226 60 OFFCURVE",
"318 60 CURVE SMOOTH",
"374 60 OFFCURVE",
"438 107 OFFCURVE",
"485 210 CURVE",
"485 619 LINE",
"424 698 OFFCURVE",
"361 735 OFFCURVE",
"309 735 CURVE SMOOTH",
"213 735 OFFCURVE",
"159 610 OFFCURVE"
);
},
{
closed = 1;
nodes = (
"1089 772 LINE SMOOTH",
"1135 772 OFFCURVE",
"1150 750 OFFCURVE",
"1150 727 CURVE SMOOTH",
"1150 710 OFFCURVE",
"1138 695 OFFCURVE",
"1132 682 CURVE SMOOTH",
"860 82 LINE",
"1065 82 LINE",
"1076 259 LINE SMOOTH",
"1077 283 OFFCURVE",
"1099 297 OFFCURVE",
"1120 297 CURVE SMOOTH",
"1141 297 OFFCURVE",
"1161 284 OFFCURVE",
"1161 255 CURVE SMOOTH",
"1161 46 LINE SMOOTH",
"1161 21 OFFCURVE",
"1134 0 OFFCURVE",
"1110 0 CURVE SMOOTH",
"806 0 LINE SMOOTH",
"768 0 OFFCURVE",
"750 24 OFFCURVE",
"750 59 CURVE SMOOTH",
"750 81 OFFCURVE",
"761 97 OFFCURVE",
"767 109 CURVE SMOOTH",
"1034 692 LINE",
"831 692 LINE",
"823 535 LINE SMOOTH",
"822 505 OFFCURVE",
"802 490 OFFCURVE",
"781 490 CURVE SMOOTH",
"759 490 OFFCURVE",
"736 507 OFFCURVE",
"736 540 CURVE SMOOTH",
"736 726 LINE SMOOTH",
"736 750 OFFCURVE",
"758 772 OFFCURVE",
"782 772 CURVE SMOOTH"
);
}
);
width = 1240;
}
);
unicode = 01F3;
},
{
glyphname = v;
lastChange = "2016-08-10 13:30:31 +0000";
layers = (
{
layerId = "840BD324-B0A6-42B0-BD23-CB5E8C19394F";
paths = (
{
closed = 1;
nodes = (
"491 774 LINE SMOOTH",
"524 774 OFFCURVE",
"530 753 OFFCURVE",
"530 732 CURVE SMOOTH",
"530 712 OFFCURVE",
"524 692 OFFCURVE",
"492 692 CURVE SMOOTH",
"383 692 LINE",
"650 92 LINE",
"894 692 LINE",
"809 692 LINE SMOOTH",
"776 692 OFFCURVE",
"770 712 OFFCURVE",
"770 732 CURVE SMOOTH",
"770 753 OFFCURVE",
"777 774 OFFCURVE",
"810 774 CURVE SMOOTH",
"1071 774 LINE SMOOTH",
"1109 774 OFFCURVE",
"1117 754 OFFCURVE",
"1117 733 CURVE SMOOTH",
"1117 713 OFFCURVE",
"1110 692 OFFCURVE",
"1075 692 CURVE SMOOTH",
"986 692 LINE",
"719 54 LINE SMOOTH",
"693 -8 OFFCURVE",
"674 -14 OFFCURVE",
"647 -14 CURVE SMOOTH",
"620 -14 OFFCURVE",
"598 -8 OFFCURVE",
"567 59 CURVE SMOOTH",
"273 692 LINE",
"172 692 LINE SMOOTH",
"138 692 OFFCURVE",
"130 713 OFFCURVE",
"130 733 CURVE SMOOTH",
"130 754 OFFCURVE",
"138 774 OFFCURVE",
"176 774 CURVE SMOOTH"
);
}
);
width = 1240;
}
);
unicode = 0076;
},
{
glyphname = w;
lastChange = "2016-08-10 13:30:31 +0000";
layers = (
{
layerId = "840BD324-B0A6-42B0-BD23-CB5E8C19394F";
paths = (
{
closed = 1;
nodes = (
"765 774 LINE SMOOTH",
"798 774 OFFCURVE",
"804 753 OFFCURVE",
"804 732 CURVE SMOOTH",
"804 712 OFFCURVE",
"798 692 OFFCURVE",
"766 692 CURVE SMOOTH",
"657 692 LINE",
"869 92 LINE",
"1038 692 LINE",
"973 692 LINE SMOOTH",
"940 692 OFFCURVE",
"934 712 OFFCURVE",
"934 732 CURVE SMOOTH",
"934 753 OFFCURVE",
"941 774 OFFCURVE",
"974 774 CURVE SMOOTH",
"1195 774 LINE SMOOTH",
"1233 774 OFFCURVE",
"1241 754 OFFCURVE",
"1241 733 CURVE SMOOTH",
"1241 713 OFFCURVE",
"1234 692 OFFCURVE",
"1199 692 CURVE SMOOTH",
"1130 692 LINE",
"938 54 LINE SMOOTH",
"919 -8 OFFCURVE",
"893 -14 OFFCURVE",
"866 -14 CURVE SMOOTH",
"839 -14 OFFCURVE",
"811 -8 OFFCURVE",
"786 59 CURVE SMOOTH",
"651 433 LINE",
"507 54 LINE SMOOTH",
"484 -8 OFFCURVE",
"462 -14 OFFCURVE",
"435 -14 CURVE SMOOTH",
"408 -14 OFFCURVE",
"378 -9 OFFCURVE",
"355 59 CURVE SMOOTH",
"146 692 LINE",
"68 692 LINE SMOOTH",
"34 692 OFFCURVE",
"26 713 OFFCURVE",
"26 733 CURVE SMOOTH",
"26 754 OFFCURVE",
"34 774 OFFCURVE",
"72 774 CURVE SMOOTH",
"307 774 LINE SMOOTH",
"340 774 OFFCURVE",
"346 753 OFFCURVE",
"346 732 CURVE SMOOTH",
"346 712 OFFCURVE",
"340 692 OFFCURVE",
"308 692 CURVE SMOOTH",
"256 692 LINE",
"438 92 LINE",
"607 555 LINE",
"558 692 LINE",
"507 692 LINE SMOOTH",
"473 692 OFFCURVE",
"465 713 OFFCURVE",
"465 733 CURVE SMOOTH",
"465 754 OFFCURVE",
"473 774 OFFCURVE",
"511 774 CURVE SMOOTH"
);
}
);
width = 1240;
}
);
unicode = 0077;
},
{
glyphname = x;
lastChange = "2016-08-10 13:30:31 +0000";
layers = (
{
layerId = "840BD324-B0A6-42B0-BD23-CB5E8C19394F";
paths = (
{
closed = 1;
nodes = (
"778 0 LINE SMOOTH",
"740 0 OFFCURVE",
"722 21 OFFCURVE",
"722 42 CURVE SMOOTH",
"722 62 OFFCURVE",
"739 82 OFFCURVE",
"773 82 CURVE SMOOTH",
"853 82 LINE",
"628 340 LINE",
"407 82 LINE",
"466 82 LINE SMOOTH",
"498 82 OFFCURVE",
"504 62 OFFCURVE",
"504 42 CURVE SMOOTH",
"504 21 OFFCURVE",
"497 0 OFFCURVE",
"464 0 CURVE SMOOTH",
"217 0 LINE SMOOTH",
"179 0 OFFCURVE",
"171 21 OFFCURVE",
"171 42 CURVE SMOOTH",
"171 62 OFFCURVE",
"178 82 OFFCURVE",
"213 82 CURVE SMOOTH",
"297 82 LINE",
"570 406 LINE",
"320 692 LINE",
"232 692 LINE SMOOTH",
"194 692 OFFCURVE",
"186 713 OFFCURVE",
"186 734 CURVE SMOOTH",
"186 754 OFFCURVE",
"193 774 OFFCURVE",
"228 774 CURVE SMOOTH",
"465 774 LINE SMOOTH",
"497 774 OFFCURVE",
"503 754 OFFCURVE",
"503 734 CURVE SMOOTH",
"503 713 OFFCURVE",
"496 692 OFFCURVE",
"463 692 CURVE SMOOTH",
"423 692 LINE",
"623 469 LINE",
"811 692 LINE",
"766 692 LINE SMOOTH",
"728 692 OFFCURVE",
"720 713 OFFCURVE",
"720 734 CURVE SMOOTH",
"720 754 OFFCURVE",
"727 774 OFFCURVE",
"762 774 CURVE SMOOTH",
"1029 774 LINE SMOOTH",
"1062 774 OFFCURVE",
"1068 754 OFFCURVE",
"1068 734 CURVE SMOOTH",
"1068 713 OFFCURVE",
"1061 692 OFFCURVE",
"1027 692 CURVE SMOOTH",
"929 692 LINE",
"682 403 LINE",
"970 82 LINE",
"1041 82 LINE SMOOTH",
"1074 82 OFFCURVE",
"1090 62 OFFCURVE",
"1090 42 CURVE SMOOTH",
"1090 21 OFFCURVE",
"1073 0 OFFCURVE",
"1039 0 CURVE SMOOTH"
);
}
);
width = 1240;
}
);
unicode = 0078;
},
{
glyphname = y;
lastChange = "2016-08-10 13:30:31 +0000";
layers = (
{
layerId = "840BD324-B0A6-42B0-BD23-CB5E8C19394F";
paths = (
{
closed = 1;
nodes = (
"488 774 LINE SMOOTH",
"522 774 OFFCURVE",
"529 753 OFFCURVE",
"529 732 CURVE SMOOTH",
"529 712 OFFCURVE",
"523 692 OFFCURVE",
"490 692 CURVE SMOOTH",
"388 692 LINE",
"643 95 LINE",
"871 692 LINE",
"782 692 LINE SMOOTH",
"749 692 OFFCURVE",
"743 712 OFFCURVE",
"743 732 CURVE SMOOTH",
"743 753 OFFCURVE",
"750 774 OFFCURVE",
"783 774 CURVE SMOOTH",
"1048 774 LINE SMOOTH",
"1086 774 OFFCURVE",
"1094 754 OFFCURVE",
"1094 733 CURVE SMOOTH",
"1094 713 OFFCURVE",
"1087 692 OFFCURVE",
"1052 692 CURVE SMOOTH",
"973 692 LINE",
"670 -83 LINE SMOOTH",
"609 -239 OFFCURVE",
"524 -361 OFFCURVE",
"371 -361 CURVE SMOOTH",
"313 -361 OFFCURVE",
"303 -335 OFFCURVE",
"303 -309 CURVE SMOOTH",
"303 -284 OFFCURVE",
"317 -261 OFFCURVE",
"371 -261 CURVE SMOOTH",
"447 -261 OFFCURVE",
"521 -199 OFFCURVE",
"543 -141 CURVE SMOOTH",
"597 -2 LINE",
"488 225 OFFCURVE",
"389 461 OFFCURVE",
"284 692 CURVE",
"191 692 LINE SMOOTH",
"157 692 OFFCURVE",
"150 712 OFFCURVE",
"150 732 CURVE SMOOTH",
"150 753 OFFCURVE",
"158 774 OFFCURVE",
"196 774 CURVE SMOOTH"
);
}
);
width = 1240;
}
);
unicode = 0079;
},
{
glyphname = z;
lastChange = "2016-08-10 13:30:31 +0000";
layers = (
{
layerId = "840BD324-B0A6-42B0-BD23-CB5E8C19394F";
paths = (
{
closed = 1;
nodes = (
"896 772 LINE SMOOTH",
"942 772 OFFCURVE",
"957 750 OFFCURVE",
"957 727 CURVE SMOOTH",
"957 710 OFFCURVE",
"949 692 OFFCURVE",
"939 682 CURVE SMOOTH",
"387 82 LINE",
"902 82 LINE",
"913 319 LINE SMOOTH",
"914 343 OFFCURVE",
"936 357 OFFCURVE",
"957 357 CURVE SMOOTH",
"978 357 OFFCURVE",
"998 344 OFFCURVE",
"998 315 CURVE SMOOTH",
"998 46 LINE SMOOTH",
"998 21 OFFCURVE",
"971 0 OFFCURVE",
"947 0 CURVE SMOOTH",
"334 0 LINE SMOOTH",
"296 0 OFFCURVE",
"278 24 OFFCURVE",
"278 59 CURVE SMOOTH",
"278 81 OFFCURVE",
"284 97 OFFCURVE",
"295 109 CURVE SMOOTH",
"829 692 LINE",
"368 692 LINE",
"360 495 LINE SMOOTH",
"359 465 OFFCURVE",
"339 450 OFFCURVE",
"318 450 CURVE SMOOTH",
"296 450 OFFCURVE",
"273 467 OFFCURVE",
"273 500 CURVE SMOOTH",
"273 726 LINE SMOOTH",
"273 750 OFFCURVE",
"295 772 OFFCURVE",
"319 772 CURVE SMOOTH"
);
}
);
width = 1240;
}
);
unicode = 007A;
},
{
glyphname = uniFB01;
lastChange = "2016-08-10 13:30:31 +0000";
layers = (
{
layerId = "840BD324-B0A6-42B0-BD23-CB5E8C19394F";
paths = (
{
closed = 1;
nodes = (
"960 1171 CURVE SMOOTH",
"1006 1171 OFFCURVE",
"1042 1134 OFFCURVE",
"1042 1088 CURVE SMOOTH",
"1042 1042 OFFCURVE",
"1006 1006 OFFCURVE",
"960 1006 CURVE SMOOTH",
"914 1006 OFFCURVE",
"877 1042 OFFCURVE",
"877 1088 CURVE SMOOTH",
"877 1134 OFFCURVE",
"914 1171 OFFCURVE"
);
},
{
closed = 1;
nodes = (
"762 0 LINE SMOOTH",
"731 0 OFFCURVE",
"716 22 OFFCURVE",
"716 43 CURVE SMOOTH",
"716 63 OFFCURVE",
"730 82 OFFCURVE",
"758 82 CURVE SMOOTH",
"924 82 LINE",
"924 684 LINE",
"341 684 LINE",
"342 82 LINE",
"564 82 LINE SMOOTH",
"590 82 OFFCURVE",
"603 61 OFFCURVE",
"603 41 CURVE SMOOTH",
"603 20 OFFCURVE",
"590 0 OFFCURVE",
"563 0 CURVE SMOOTH",
"141 0 LINE SMOOTH",
"110 0 OFFCURVE",
"95 21 OFFCURVE",
"95 42 CURVE SMOOTH",
"95 62 OFFCURVE",
"109 82 OFFCURVE",
"137 82 CURVE SMOOTH",
"245 82 LINE",
"245 684 LINE",
"153 684 LINE SMOOTH",
"122 684 OFFCURVE",
"107 705 OFFCURVE",
"107 726 CURVE SMOOTH",
"107 746 OFFCURVE",
"121 766 OFFCURVE",
"149 766 CURVE SMOOTH",
"245 766 LINE",
"245 838 LINE SMOOTH",
"245 1079 OFFCURVE",
"370 1188 OFFCURVE",
"644 1188 CURVE SMOOTH",
"674 1188 OFFCURVE",
"701 1169 OFFCURVE",
"701 1137 CURVE SMOOTH",
"701 1020 LINE SMOOTH",
"701 982 OFFCURVE",
"676 964 OFFCURVE",
"652 964 CURVE SMOOTH",
"628 964 OFFCURVE",
"605 981 OFFCURVE",
"605 1016 CURVE SMOOTH",
"605 1109 LINE",
"372 1093 OFFCURVE",
"342 1018 OFFCURVE",
"342 832 CURVE SMOOTH",
"342 766 LINE",
"973 766 LINE SMOOTH",
"999 766 OFFCURVE",
"1020 762 OFFCURVE",
"1020 735 CURVE SMOOTH",
"1020 82 LINE",
"1156 82 LINE SMOOTH",
"1183 82 OFFCURVE",
"1196 61 OFFCURVE",
"1196 41 CURVE SMOOTH",
"1196 20 OFFCURVE",
"1182 0 OFFCURVE",
"1155 0 CURVE SMOOTH"
);
}
);
width = 1240;
}
);
unicode = FB01;
},
{
glyphname = uniFB02;
lastChange = "2016-08-10 13:30:31 +0000";
layers = (
{
layerId = "840BD324-B0A6-42B0-BD23-CB5E8C19394F";
paths = (
{
closed = 1;
nodes = (
"1017 1140 CURVE SMOOTH",
"1017 82 LINE",
"1120 82 LINE SMOOTH",
"1146 82 OFFCURVE",
"1159 61 OFFCURVE",
"1159 41 CURVE SMOOTH",
"1159 20 OFFCURVE",
"1146 0 OFFCURVE",
"1119 0 CURVE SMOOTH",
"796 0 LINE SMOOTH",
"765 0 OFFCURVE",
"750 21 OFFCURVE",
"750 42 CURVE SMOOTH",
"750 62 OFFCURVE",
"764 82 OFFCURVE",
"792 82 CURVE SMOOTH",
"921 82 LINE",
"921 1093 LINE",
"677 1093 LINE SMOOTH",
"443 1093 OFFCURVE",
"378 1018 OFFCURVE",
"378 832 CURVE SMOOTH",
"378 766 LINE",
"527 766 LINE SMOOTH",
"554 766 OFFCURVE",
"567 745 OFFCURVE",
"567 725 CURVE SMOOTH",
"567 704 OFFCURVE",
"553 684 OFFCURVE",
"526 684 CURVE SMOOTH",
"377 684 LINE",
"378 82 LINE",
"580 82 LINE SMOOTH",
"606 82 OFFCURVE",
"619 61 OFFCURVE",
"619 41 CURVE SMOOTH",
"619 20 OFFCURVE",
"606 0 OFFCURVE",
"579 0 CURVE SMOOTH",
"164 0 LINE SMOOTH",
"133 0 OFFCURVE",
"118 21 OFFCURVE",
"118 42 CURVE SMOOTH",
"118 62 OFFCURVE",
"132 82 OFFCURVE",
"160 82 CURVE SMOOTH",
"281 82 LINE",
"281 684 LINE",
"189 684 LINE SMOOTH",
"158 684 OFFCURVE",
"143 705 OFFCURVE",
"143 726 CURVE SMOOTH",
"143 746 OFFCURVE",
"157 766 OFFCURVE",
"185 766 CURVE SMOOTH",
"281 766 LINE",
"281 838 LINE SMOOTH",
"281 1077 OFFCURVE",
"404 1172 OFFCURVE",
"675 1172 CURVE SMOOTH",
"970 1172 LINE SMOOTH",
"996 1172 OFFCURVE",
"1017 1167 OFFCURVE"
);
}
);
width = 1240;
}
);
unicode = FB02;
},
{
glyphname = ordmasculine;
lastChange = "2016-08-10 13:30:31 +0000";
layers = (
{
layerId = "840BD324-B0A6-42B0-BD23-CB5E8C19394F";
paths = (
{
closed = 1;
nodes = (
"702 -20 CURVE SMOOTH",
"535 -20 OFFCURVE",
"421 87 OFFCURVE",
"421 255 CURVE SMOOTH",
"421 424 OFFCURVE",
"535 529 OFFCURVE",
"702 529 CURVE SMOOTH",
"867 529 OFFCURVE",
"977 420 OFFCURVE",
"977 255 CURVE SMOOTH",
"977 89 OFFCURVE",
"867 -20 OFFCURVE"
);
},
{
closed = 1;
nodes = (
"702 451 CURVE SMOOTH",
"587 451 OFFCURVE",
"522 370 OFFCURVE",
"522 255 CURVE SMOOTH",
"522 139 OFFCURVE",
"587 57 OFFCURVE",
"702 57 CURVE SMOOTH",
"815 57 OFFCURVE",
"878 142 OFFCURVE",
"878 255 CURVE SMOOTH",
"878 368 OFFCURVE",
"815 451 OFFCURVE"
);
}
);
width = 1240;
}
);
unicode = 00BA;
},
{
glyphname = mu;
lastChange = "2016-08-10 13:30:31 +0000";
layers = (
{
components = (
{
name = u;
}
);
layerId = "840BD324-B0A6-42B0-BD23-CB5E8C19394F";
paths = (
{
closed = 1;
nodes = (
"270 -256 CURVE SMOOTH",
"270 285 LINE",
"306 405 LINE",
"322 188 LINE",
"333 90 OFFCURVE",
"374 -196 OFFCURVE",
"385 -257 CURVE SMOOTH",
"386 -265 OFFCURVE",
"387 -272 OFFCURVE",
"387 -278 CURVE SMOOTH",
"387 -325 OFFCURVE",
"355 -343 OFFCURVE",
"327 -343 CURVE SMOOTH",
"291 -343 OFFCURVE",
"270 -310 OFFCURVE"
);
}
);
width = 1240;
}
);
unicode = 03BC;
},
{
glyphname = zero;
lastChange = "2016-08-10 13:30:31 +0000";
layers = (
{
layerId = "840BD324-B0A6-42B0-BD23-CB5E8C19394F";
paths = (
{
closed = 1;
nodes = (
"619 1187 CURVE SMOOTH",
"875 1187 OFFCURVE",
"1008 885 OFFCURVE",
"1008 584 CURVE SMOOTH",
"1008 284 OFFCURVE",
"874 -16 OFFCURVE",
"619 -16 CURVE SMOOTH",
"362 -16 OFFCURVE",
"232 284 OFFCURVE",
"232 584 CURVE SMOOTH",
"232 885 OFFCURVE",
"365 1187 OFFCURVE"
);
},
{
closed = 1;
nodes = (
"619 69 CURVE SMOOTH",
"815 69 OFFCURVE",
"912 325 OFFCURVE",
"912 583 CURVE SMOOTH",
"912 842 OFFCURVE",
"812 1101 OFFCURVE",
"619 1101 CURVE SMOOTH",
"424 1101 OFFCURVE",
"328 842 OFFCURVE",
"328 583 CURVE SMOOTH",
"328 325 OFFCURVE",
"425 69 OFFCURVE"
);
}
);
width = 1240;
}
);
unicode = 0030;
},
{
glyphname = one;
lastChange = "2016-08-10 13:30:31 +0000";
layers = (
{
layerId = "840BD324-B0A6-42B0-BD23-CB5E8C19394F";
paths = (
{
closed = 1;
nodes = (
"735 1130 CURVE SMOOTH",
"735 82 LINE",
"1075 82 LINE SMOOTH",
"1101 82 OFFCURVE",
"1114 61 OFFCURVE",
"1114 41 CURVE SMOOTH",
"1114 20 OFFCURVE",
"1101 0 OFFCURVE",
"1074 0 CURVE SMOOTH",
"274 0 LINE SMOOTH",
"243 0 OFFCURVE",
"228 21 OFFCURVE",
"228 42 CURVE SMOOTH",
"228 62 OFFCURVE",
"242 82 OFFCURVE",
"270 82 CURVE SMOOTH",
"639 82 LINE",
"639 1069 LINE",
"304 917 LINE SMOOTH",
"298 914 OFFCURVE",
"292 913 OFFCURVE",
"287 913 CURVE SMOOTH",
"263 913 OFFCURVE",
"246 936 OFFCURVE",
"246 958 CURVE SMOOTH",
"246 972 OFFCURVE",
"253 986 OFFCURVE",
"270 993 CURVE SMOOTH",
"674 1173 LINE SMOOTH",
"680 1176 OFFCURVE",
"687 1177 OFFCURVE",
"694 1177 CURVE SMOOTH",
"714 1177 OFFCURVE",
"735 1164 OFFCURVE"
);
}
);
width = 1240;
}
);
unicode = 0031;
},
{
glyphname = two;
lastChange = "2016-08-10 13:30:31 +0000";
layers = (
{
layerId = "840BD324-B0A6-42B0-BD23-CB5E8C19394F";
paths = (
{
closed = 1;
nodes = (
"612 1187 CURVE SMOOTH",
"808 1187 OFFCURVE",
"945 1101 OFFCURVE",
"945 914 CURVE SMOOTH",
"945 611 OFFCURVE",
"471 376 OFFCURVE",
"367 82 CURVE",
"863 82 LINE",
"875 264 LINE SMOOTH",
"877 292 OFFCURVE",
"903 309 OFFCURVE",
"927 309 CURVE SMOOTH",
"950 309 OFFCURVE",
"971 294 OFFCURVE",
"971 258 CURVE SMOOTH",
"971 50 LINE SMOOTH",
"971 19 OFFCURVE",
"948 0 OFFCURVE",
"917 0 CURVE SMOOTH",
"279 0 LINE",
"276 12 OFFCURVE",
"272 22 OFFCURVE",
"272 37 CURVE SMOOTH",
"272 340 OFFCURVE",
"849 641 OFFCURVE",
"849 907 CURVE SMOOTH",
"849 1056 OFFCURVE",
"755 1101 OFFCURVE",
"597 1101 CURVE SMOOTH",
"530 1101 OFFCURVE",
"461 1090 OFFCURVE",
"390 1055 CURVE",
"375 933 OFFCURVE",
"372 858 OFFCURVE",
"324 858 CURVE SMOOTH",
"283 858 OFFCURVE",
"264 893 OFFCURVE",
"264 938 CURVE SMOOTH",
"264 1118 OFFCURVE",
"405 1187 OFFCURVE"
);
}
);
width = 1240;
}
);
unicode = 0032;
},
{
glyphname = three;
lastChange = "2016-08-10 13:30:31 +0000";
layers = (
{
layerId = "840BD324-B0A6-42B0-BD23-CB5E8C19394F";
paths = (
{
closed = 1;
nodes = (
"503 601 CURVE SMOOTH",
"480 601 OFFCURVE",
"465 613 OFFCURVE",
"465 638 CURVE SMOOTH",
"465 650 OFFCURVE",
"474 666 OFFCURVE",
"496 679 CURVE SMOOTH",
"655 777 OFFCURVE",
"787 834 OFFCURVE",
"787 959 CURVE SMOOTH",
"787 1032 OFFCURVE",
"735 1102 OFFCURVE",
"613 1102 CURVE SMOOTH",
"390 1102 OFFCURVE",
"450 1004 OFFCURVE",
"348 1004 CURVE SMOOTH",
"321 1004 OFFCURVE",
"307 1022 OFFCURVE",
"307 1037 CURVE SMOOTH",
"307 1133 OFFCURVE",
"512 1187 OFFCURVE",
"615 1187 CURVE SMOOTH",
"765 1187 OFFCURVE",
"883 1104 OFFCURVE",
"883 959 CURVE SMOOTH",
"883 799 OFFCURVE",
"697 710 OFFCURVE",
"625 675 CURVE",
"835 675 OFFCURVE",
"950 544 OFFCURVE",
"950 360 CURVE SMOOTH",
"950 139 OFFCURVE",
"771 -17 OFFCURVE",
"544 -17 CURVE SMOOTH",
"408 -17 OFFCURVE",
"263 46 OFFCURVE",
"263 108 CURVE SMOOTH",
"263 119 OFFCURVE",
"278 141 OFFCURVE",
"301 141 CURVE SMOOTH",
"388 141 OFFCURVE",
"378 69 OFFCURVE",
"547 69 CURVE SMOOTH",
"736 69 OFFCURVE",
"854 195 OFFCURVE",
"854 366 CURVE SMOOTH",
"854 517 OFFCURVE",
"755 609 OFFCURVE",
"602 609 CURVE SMOOTH",
"573 609 OFFCURVE",
"515 601 OFFCURVE"
);
}
);
width = 1240;
}
);
unicode = 0033;
},
{
glyphname = four;
lastChange = "2016-08-10 13:30:31 +0000";
layers = (
{
layerId = "840BD324-B0A6-42B0-BD23-CB5E8C19394F";
paths = (
{
closed = 1;
nodes = (
"420 0 LINE SMOOTH",
"404 0 OFFCURVE",
"395 17 OFFCURVE",
"395 34 CURVE SMOOTH",
"395 50 OFFCURVE",
"403 65 OFFCURVE",
"419 65 CURVE SMOOTH",
"707 65 LINE",
"707 371 LINE",
"245 371 LINE SMOOTH",
"226 371 OFFCURVE",
"207 392 OFFCURVE",
"207 415 CURVE SMOOTH",
"207 424 OFFCURVE",
"210 434 OFFCURVE",
"217 443 CURVE SMOOTH",
"728 1167 LINE SMOOTH",
"731 1171 OFFCURVE",
"747 1179 OFFCURVE",
"764 1179 CURVE SMOOTH",
"783 1179 OFFCURVE",
"803 1168 OFFCURVE",
"803 1125 CURVE SMOOTH",
"803 449 LINE",
"1005 449 LINE SMOOTH",
"1028 449 OFFCURVE",
"1040 431 OFFCURVE",
"1040 410 CURVE SMOOTH",
"1040 390 OFFCURVE",
"1028 371 OFFCURVE",
"1003 371 CURVE SMOOTH",
"803 371 LINE",
"803 65 LINE",
"961 65 LINE SMOOTH",
"977 65 OFFCURVE",
"985 50 OFFCURVE",
"985 34 CURVE SMOOTH",
"985 17 OFFCURVE",
"976 0 OFFCURVE",
"960 0 CURVE SMOOTH"
);
},
{
closed = 1;
nodes = (
"707 1019 LINE",
"322 449 LINE",
"707 449 LINE"
);
}
);
width = 1240;
}
);
unicode = 0034;
},
{
glyphname = five;
lastChange = "2016-08-10 13:30:31 +0000";
layers = (
{
layerId = "840BD324-B0A6-42B0-BD23-CB5E8C19394F";
paths = (
{
closed = 1;
nodes = (
"579 -17 CURVE SMOOTH",
"487 -17 OFFCURVE",
"404 10 OFFCURVE",
"340 54 CURVE SMOOTH",
"320 68 OFFCURVE",
"313 84 OFFCURVE",
"313 98 CURVE SMOOTH",
"313 120 OFFCURVE",
"332 138 OFFCURVE",
"353 138 CURVE SMOOTH",
"361 138 OFFCURVE",
"369 136 OFFCURVE",
"377 130 CURVE SMOOTH",
"444 81 OFFCURVE",
"525 65 OFFCURVE",
"592 65 CURVE SMOOTH",
"739 65 OFFCURVE",
"915 170 OFFCURVE",
"915 381 CURVE SMOOTH",
"915 579 OFFCURVE",
"799 657 OFFCURVE",
"679 657 CURVE SMOOTH",
"577 657 OFFCURVE",
"472 601 OFFCURVE",
"430 517 CURVE",
"425 502 OFFCURVE",
"410 495 OFFCURVE",
"395 495 CURVE SMOOTH",
"377 495 OFFCURVE",
"358 506 OFFCURVE",
"358 529 CURVE SMOOTH",
"378 1111 LINE",
"378 1170 OFFCURVE",
"448 1171 OFFCURVE",
"514 1171 CURVE SMOOTH",
"838 1171 LINE",
"856 1242 OFFCURVE",
"865 1260 OFFCURVE",
"889 1260 CURVE SMOOTH",
"913 1260 OFFCURVE",
"934 1250 OFFCURVE",
"934 1227 CURVE SMOOTH",
"934 1150 OFFCURVE",
"906 1089 OFFCURVE",
"857 1089 CURVE SMOOTH",
"487 1089 LINE SMOOTH",
"481 1089 OFFCURVE",
"479 1086 OFFCURVE",
"479 1081 CURVE SMOOTH",
"444 642 LINE",
"521 706 OFFCURVE",
"607 735 OFFCURVE",
"687 735 CURVE SMOOTH",
"861 735 OFFCURVE",
"1011 600 OFFCURVE",
"1011 396 CURVE SMOOTH",
"1011 143 OFFCURVE",
"818 -17 OFFCURVE"
);
}
);
width = 1240;
}
);
unicode = 0035;
},
{
glyphname = six;
lastChange = "2016-08-10 13:30:31 +0000";
layers = (
{
layerId = "840BD324-B0A6-42B0-BD23-CB5E8C19394F";
paths = (
{
closed = 1;
nodes = (
"648 65 CURVE SMOOTH",
"831 65 OFFCURVE",
"931 199 OFFCURVE",
"931 354 CURVE SMOOTH",
"931 510 OFFCURVE",
"855 659 OFFCURVE",
"671 659 CURVE SMOOTH",
"472 659 OFFCURVE",
"353 519 OFFCURVE",
"353 364 CURVE SMOOTH",
"353 207 OFFCURVE",
"437 65 OFFCURVE"
);
},
{
closed = 1;
nodes = (
"1027 357 CURVE SMOOTH",
"1027 129 OFFCURVE",
"874 -17 OFFCURVE",
"648 -17 CURVE SMOOTH",
"381 -17 OFFCURVE",
"257 160 OFFCURVE",
"257 426 CURVE SMOOTH",
"257 806 OFFCURVE",
"450 1052 OFFCURVE",
"659 1241 CURVE SMOOTH",
"668 1249 OFFCURVE",
"678 1253 OFFCURVE",
"687 1253 CURVE SMOOTH",
"711 1253 OFFCURVE",
"733 1229 OFFCURVE",
"733 1207 CURVE SMOOTH",
"733 1198 OFFCURVE",
"729 1190 OFFCURVE",
"721 1183 CURVE SMOOTH",
"566 1054 OFFCURVE",
"397 844 OFFCURVE",
"361 591 CURVE",
"438 694 OFFCURVE",
"559 741 OFFCURVE",
"668 741 CURVE SMOOTH",
"893 741 OFFCURVE",
"1027 583 OFFCURVE"
);
}
);
width = 1240;
}
);
unicode = 0036;
},
{
glyphname = seven;
lastChange = "2016-08-10 13:30:31 +0000";
layers = (
{
layerId = "840BD324-B0A6-42B0-BD23-CB5E8C19394F";
paths = (
{
closed = 1;
nodes = (
"569 47 CURVE SMOOTH",
"569 475 OFFCURVE",
"713 796 OFFCURVE",
"864 1085 CURVE",
"370 1085 LINE",
"370 916 LINE SMOOTH",
"370 881 OFFCURVE",
"345 863 OFFCURVE",
"321 863 CURVE SMOOTH",
"297 863 OFFCURVE",
"274 880 OFFCURVE",
"274 916 CURVE SMOOTH",
"274 1117 LINE SMOOTH",
"274 1151 OFFCURVE",
"297 1171 OFFCURVE",
"330 1171 CURVE SMOOTH",
"928 1171 LINE SMOOTH",
"953 1171 OFFCURVE",
"971 1141 OFFCURVE",
"971 1111 CURVE SMOOTH",
"971 1101 OFFCURVE",
"969 1090 OFFCURVE",
"964 1081 CURVE SMOOTH",
"798 761 OFFCURVE",
"665 474 OFFCURVE",
"665 46 CURVE SMOOTH",
"665 10 OFFCURVE",
"642 -7 OFFCURVE",
"619 -7 CURVE SMOOTH",
"594 -7 OFFCURVE",
"569 12 OFFCURVE"
);
}
);
width = 1240;
}
);
unicode = 0037;
},
{
glyphname = eight;
lastChange = "2016-08-10 13:30:31 +0000";
layers = (
{
layerId = "840BD324-B0A6-42B0-BD23-CB5E8C19394F";
paths = (
{
closed = 1;
nodes = (
"628 1101 CURVE SMOOTH",
"505 1101 OFFCURVE",
"382 1047 OFFCURVE",
"382 906 CURVE SMOOTH",
"382 770 OFFCURVE",
"496 716 OFFCURVE",
"642 635 CURVE",
"773 710 OFFCURVE",
"878 784 OFFCURVE",
"878 905 CURVE SMOOTH",
"878 1050 OFFCURVE",
"773 1101 OFFCURVE"
);
},
{
closed = 1;
nodes = (
"648 69 CURVE SMOOTH",
"778 69 OFFCURVE",
"926 101 OFFCURVE",
"926 266 CURVE SMOOTH",
"926 422 OFFCURVE",
"739 497 OFFCURVE",
"626 560 CURVE",
"532 507 OFFCURVE",
"356 409 OFFCURVE",
"356 282 CURVE SMOOTH",
"356 109 OFFCURVE",
"512 69 OFFCURVE"
);
},
{
closed = 1;
nodes = (
"620 1187 CURVE SMOOTH",
"823 1187 OFFCURVE",
"970 1103 OFFCURVE",
"970 913 CURVE SMOOTH",
"970 756 OFFCURVE",
"833 668 OFFCURVE",
"728 595 CURVE",
"855 523 OFFCURVE",
"1022 436 OFFCURVE",
"1022 268 CURVE SMOOTH",
"1022 58 OFFCURVE",
"852 -17 OFFCURVE",
"642 -17 CURVE SMOOTH",
"450 -17 OFFCURVE",
"260 53 OFFCURVE",
"260 274 CURVE SMOOTH",
"260 435 OFFCURVE",
"437 536 OFFCURVE",
"544 599 CURVE",
"435 666 OFFCURVE",
"290 746 OFFCURVE",
"290 897 CURVE SMOOTH",
"290 1083 OFFCURVE",
"434 1187 OFFCURVE"
);
}
);
width = 1240;
}
);
unicode = 0038;
},
{
glyphname = nine;
lastChange = "2016-08-10 13:30:31 +0000";
layers = (
{
layerId = "840BD324-B0A6-42B0-BD23-CB5E8C19394F";
paths = (
{
closed = 1;
nodes = (
"629 1105 CURVE SMOOTH",
"446 1105 OFFCURVE",
"346 971 OFFCURVE",
"346 816 CURVE SMOOTH",
"346 660 OFFCURVE",
"422 511 OFFCURVE",
"606 511 CURVE SMOOTH",
"805 511 OFFCURVE",
"924 651 OFFCURVE",
"924 806 CURVE SMOOTH",
"924 963 OFFCURVE",
"840 1105 OFFCURVE"
);
},
{
closed = 1;
nodes = (
"250 813 CURVE SMOOTH",
"250 1041 OFFCURVE",
"403 1187 OFFCURVE",
"629 1187 CURVE SMOOTH",
"896 1187 OFFCURVE",
"1020 1010 OFFCURVE",
"1020 744 CURVE SMOOTH",
"1020 364 OFFCURVE",
"825 137 OFFCURVE",
"616 -52 CURVE SMOOTH",
"607 -60 OFFCURVE",
"597 -64 OFFCURVE",
"588 -64 CURVE SMOOTH",
"564 -64 OFFCURVE",
"542 -40 OFFCURVE",
"542 -18 CURVE SMOOTH",
"542 -9 OFFCURVE",
"546 -1 OFFCURVE",
"554 6 CURVE SMOOTH",
"709 135 OFFCURVE",
"880 326 OFFCURVE",
"916 579 CURVE",
"839 476 OFFCURVE",
"718 429 OFFCURVE",
"609 429 CURVE SMOOTH",
"384 429 OFFCURVE",
"250 587 OFFCURVE"
);
}
);
width = 1240;
}
);
unicode = 0039;
},
{
glyphname = uni00B9;
lastChange = "2016-08-10 13:30:31 +0000";
layers = (
{
layerId = "840BD324-B0A6-42B0-BD23-CB5E8C19394F";
paths = (
{
closed = 1;
nodes = (
"658 1140 CURVE SMOOTH",
"658 455 LINE",
"764 455 LINE SMOOTH",
"783 455 OFFCURVE",
"792 439 OFFCURVE",
"792 425 CURVE SMOOTH",
"792 410 OFFCURVE",
"782 396 OFFCURVE",
"763 396 CURVE SMOOTH",
"468 396 LINE SMOOTH",
"446 396 OFFCURVE",
"434 411 OFFCURVE",
"434 426 CURVE SMOOTH",
"434 440 OFFCURVE",
"445 455 OFFCURVE",
"465 455 CURVE SMOOTH",
"589 455 LINE",
"589 1096 LINE",
"465 1041 LINE SMOOTH",
"461 1039 OFFCURVE",
"457 1038 OFFCURVE",
"453 1038 CURVE SMOOTH",
"436 1038 OFFCURVE",
"424 1054 OFFCURVE",
"424 1070 CURVE SMOOTH",
"424 1080 OFFCURVE",
"429 1090 OFFCURVE",
"441 1095 CURVE SMOOTH",
"614 1171 LINE SMOOTH",
"618 1173 OFFCURVE",
"623 1174 OFFCURVE",
"628 1174 CURVE SMOOTH",
"643 1174 OFFCURVE",
"658 1165 OFFCURVE"
);
}
);
width = 1240;
}
);
unicode = 00B9;
},
{
glyphname = uni00B2;
lastChange = "2016-08-10 13:30:31 +0000";
layers = (
{
layerId = "840BD324-B0A6-42B0-BD23-CB5E8C19394F";
paths = (
{
closed = 1;
nodes = (
"821 1007 CURVE SMOOTH",
"821 802 OFFCURVE",
"538 724 OFFCURVE",
"491 520 CURVE",
"772 520 LINE",
"779 624 LINE SMOOTH",
"780 646 OFFCURVE",
"795 659 OFFCURVE",
"810 659 CURVE SMOOTH",
"824 659 OFFCURVE",
"837 648 OFFCURVE",
"837 619 CURVE SMOOTH",
"837 495 LINE SMOOTH",
"837 470 OFFCURVE",
"824 455 OFFCURVE",
"805 455 CURVE SMOOTH",
"423 455 LINE",
"421 464 OFFCURVE",
"419 472 OFFCURVE",
"419 484 CURVE SMOOTH",
"419 723 OFFCURVE",
"750 840 OFFCURVE",
"750 1001 CURVE SMOOTH",
"750 1088 OFFCURVE",
"688 1133 OFFCURVE",
"609 1133 CURVE SMOOTH",
"571 1133 OFFCURVE",
"529 1123 OFFCURVE",
"489 1101 CURVE",
"480 1005 OFFCURVE",
"479 962 OFFCURVE",
"450 962 CURVE SMOOTH",
"425 962 OFFCURVE",
"414 989 OFFCURVE",
"414 1025 CURVE SMOOTH",
"414 1134 OFFCURVE",
"508 1187 OFFCURVE",
"606 1187 CURVE SMOOTH",
"711 1187 OFFCURVE",
"821 1126 OFFCURVE"
);
}
);
width = 1240;
}
);
unicode = 00B2;
},
{
glyphname = uni00B3;
lastChange = "2016-08-10 13:30:31 +0000";
layers = (
{
layerId = "840BD324-B0A6-42B0-BD23-CB5E8C19394F";
paths = (
{
closed = 1;
nodes = (
"564 790 CURVE SMOOTH",
"547 790 OFFCURVE",
"536 800 OFFCURVE",
"536 818 CURVE SMOOTH",
"536 828 OFFCURVE",
"543 839 OFFCURVE",
"558 848 CURVE SMOOTH",
"665 914 OFFCURVE",
"753 951 OFFCURVE",
"753 1032 CURVE SMOOTH",
"753 1079 OFFCURVE",
"719 1124 OFFCURVE",
"638 1124 CURVE SMOOTH",
"489 1124 OFFCURVE",
"532 1059 OFFCURVE",
"460 1059 CURVE SMOOTH",
"440 1059 OFFCURVE",
"430 1072 OFFCURVE",
"430 1084 CURVE SMOOTH",
"430 1152 OFFCURVE",
"571 1187 OFFCURVE",
"640 1187 CURVE SMOOTH",
"742 1187 OFFCURVE",
"823 1131 OFFCURVE",
"823 1032 CURVE SMOOTH",
"823 931 OFFCURVE",
"712 871 OFFCURVE",
"659 845 CURVE",
"794 840 OFFCURVE",
"868 753 OFFCURVE",
"868 633 CURVE SMOOTH",
"868 484 OFFCURVE",
"746 378 OFFCURVE",
"592 378 CURVE SMOOTH",
"501 378 OFFCURVE",
"400 420 OFFCURVE",
"400 465 CURVE SMOOTH",
"400 474 OFFCURVE",
"412 490 OFFCURVE",
"429 490 CURVE SMOOTH",
"490 490 OFFCURVE",
"481 442 OFFCURVE",
"594 442 CURVE SMOOTH",
"720 442 OFFCURVE",
"798 525 OFFCURVE",
"798 637 CURVE SMOOTH",
"798 736 OFFCURVE",
"733 796 OFFCURVE",
"631 796 CURVE SMOOTH",
"612 796 OFFCURVE",
"573 790 OFFCURVE"
);
}
);
width = 1240;
}
);
unicode = 00B3;
},
{
glyphname = fraction;
lastChange = "2016-08-10 13:30:31 +0000";
layers = (
{
layerId = "840BD324-B0A6-42B0-BD23-CB5E8C19394F";
paths = (
{
closed = 1;
nodes = (
"247 -178 CURVE SMOOTH",
"914 1152 LINE SMOOTH",
"921 1166 OFFCURVE",
"936 1173 OFFCURVE",
"951 1173 CURVE SMOOTH",
"974 1173 OFFCURVE",
"997 1158 OFFCURVE",
"997 1134 CURVE SMOOTH",
"997 1128 OFFCURVE",
"995 1121 OFFCURVE",
"991 1113 CURVE SMOOTH",
"327 -213 LINE SMOOTH",
"318 -230 OFFCURVE",
"304 -237 OFFCURVE",
"290 -237 CURVE SMOOTH",
"267 -237 OFFCURVE",
"243 -219 OFFCURVE",
"243 -195 CURVE SMOOTH",
"243 -189 OFFCURVE",
"244 -184 OFFCURVE"
);
}
);
width = 1240;
}
);
unicode = 2044;
},
{
glyphname = onehalf;
lastChange = "2016-08-10 13:30:31 +0000";
layers = (
{
layerId = "840BD324-B0A6-42B0-BD23-CB5E8C19394F";
paths = (
{
closed = 1;
nodes = (
"1167 552 CURVE SMOOTH",
"1167 347 OFFCURVE",
"884 269 OFFCURVE",
"837 65 CURVE",
"1118 65 LINE",
"1125 169 LINE SMOOTH",
"1126 191 OFFCURVE",
"1141 204 OFFCURVE",
"1156 204 CURVE SMOOTH",
"1170 204 OFFCURVE",
"1183 193 OFFCURVE",
"1183 164 CURVE SMOOTH",
"1183 40 LINE SMOOTH",
"1183 15 OFFCURVE",
"1170 0 OFFCURVE",
"1151 0 CURVE SMOOTH",
"769 0 LINE",
"767 9 OFFCURVE",
"765 17 OFFCURVE",
"765 29 CURVE SMOOTH",
"765 268 OFFCURVE",
"1096 385 OFFCURVE",
"1096 546 CURVE SMOOTH",
"1096 633 OFFCURVE",
"1034 679 OFFCURVE",
"955 679 CURVE SMOOTH",
"917 679 OFFCURVE",
"875 668 OFFCURVE",
"835 646 CURVE",
"826 550 OFFCURVE",
"825 507 OFFCURVE",
"796 507 CURVE SMOOTH",
"771 507 OFFCURVE",
"760 534 OFFCURVE",
"760 570 CURVE SMOOTH",
"760 679 OFFCURVE",
"854 732 OFFCURVE",
"952 732 CURVE SMOOTH",
"1057 732 OFFCURVE",
"1167 671 OFFCURVE"
);
},
{
closed = 1;
nodes = (
"269 1085 CURVE SMOOTH",
"269 399 LINE",
"375 399 LINE SMOOTH",
"394 399 OFFCURVE",
"403 384 OFFCURVE",
"403 370 CURVE SMOOTH",
"403 355 OFFCURVE",
"393 340 OFFCURVE",
"374 340 CURVE SMOOTH",
"78 340 LINE SMOOTH",
"56 340 OFFCURVE",
"45 356 OFFCURVE",
"45 371 CURVE SMOOTH",
"45 385 OFFCURVE",
"55 399 OFFCURVE",
"75 399 CURVE SMOOTH",
"199 399 LINE",
"199 1041 LINE",
"76 985 LINE SMOOTH",
"72 983 OFFCURVE",
"68 982 OFFCURVE",
"64 982 CURVE SMOOTH",
"47 982 OFFCURVE",
"34 999 OFFCURVE",
"34 1015 CURVE SMOOTH",
"34 1025 OFFCURVE",
"39 1035 OFFCURVE",
"51 1040 CURVE SMOOTH",
"225 1116 LINE SMOOTH",
"229 1118 OFFCURVE",
"234 1119 OFFCURVE",
"239 1119 CURVE SMOOTH",
"254 1119 OFFCURVE",
"269 1110 OFFCURVE"
);
},
{
closed = 1;
nodes = (
"295 79 CURVE SMOOTH",
"907 1099 LINE SMOOTH",
"913 1110 OFFCURVE",
"923 1115 OFFCURVE",
"934 1115 CURVE SMOOTH",
"951 1115 OFFCURVE",
"969 1104 OFFCURVE",
"969 1086 CURVE SMOOTH",
"969 1081 OFFCURVE",
"968 1076 OFFCURVE",
"965 1070 CURVE SMOOTH",
"355 52 LINE SMOOTH",
"347 39 OFFCURVE",
"338 34 OFFCURVE",
"327 34 CURVE SMOOTH",
"309 34 OFFCURVE",
"292 47 OFFCURVE",
"292 65 CURVE SMOOTH",
"292 69 OFFCURVE",
"292 74 OFFCURVE"
);
}
);
width = 1240;
}
);
unicode = 00BD;
},
{
glyphname = onequarter;
lastChange = "2016-08-10 13:30:31 +0000";
layers = (
{
layerId = "840BD324-B0A6-42B0-BD23-CB5E8C19394F";
paths = (
{
closed = 1;
nodes = (
"269 1085 CURVE SMOOTH",
"269 399 LINE",
"375 399 LINE SMOOTH",
"394 399 OFFCURVE",
"403 384 OFFCURVE",
"403 370 CURVE SMOOTH",
"403 355 OFFCURVE",
"393 340 OFFCURVE",
"374 340 CURVE SMOOTH",
"78 340 LINE SMOOTH",
"56 340 OFFCURVE",
"45 356 OFFCURVE",
"45 371 CURVE SMOOTH",
"45 385 OFFCURVE",
"55 399 OFFCURVE",
"75 399 CURVE SMOOTH",
"199 399 LINE",
"199 1041 LINE",
"76 985 LINE SMOOTH",
"72 983 OFFCURVE",
"68 982 OFFCURVE",
"64 982 CURVE SMOOTH",
"47 982 OFFCURVE",
"34 999 OFFCURVE",
"34 1015 CURVE SMOOTH",
"34 1025 OFFCURVE",
"39 1035 OFFCURVE",
"51 1040 CURVE SMOOTH",
"225 1116 LINE SMOOTH",
"229 1118 OFFCURVE",
"234 1119 OFFCURVE",
"239 1119 CURVE SMOOTH",
"254 1119 OFFCURVE",
"269 1110 OFFCURVE"
);
},
{
closed = 1;
nodes = (
"786 1 LINE SMOOTH",
"768 1 OFFCURVE",
"759 16 OFFCURVE",
"759 32 CURVE SMOOTH",
"759 47 OFFCURVE",
"768 63 OFFCURVE",
"785 63 CURVE SMOOTH",
"961 63 LINE",
"961 245 LINE",
"690 245 LINE SMOOTH",
"675 245 OFFCURVE",
"660 261 OFFCURVE",
"660 279 CURVE SMOOTH",
"660 286 OFFCURVE",
"663 293 OFFCURVE",
"668 301 CURVE SMOOTH",
"977 794 LINE SMOOTH",
"979 798 OFFCURVE",
"992 804 OFFCURVE",
"1005 804 CURVE SMOOTH",
"1020 804 OFFCURVE",
"1036 795 OFFCURVE",
"1036 762 CURVE SMOOTH",
"1036 301 LINE",
"1155 301 LINE SMOOTH",
"1173 301 OFFCURVE",
"1182 287 OFFCURVE",
"1182 273 CURVE SMOOTH",
"1182 259 OFFCURVE",
"1172 245 OFFCURVE",
"1153 245 CURVE SMOOTH",
"1036 245 LINE",
"1036 63 LINE",
"1160 63 LINE SMOOTH",
"1179 63 OFFCURVE",
"1188 48 OFFCURVE",
"1188 33 CURVE SMOOTH",
"1188 17 OFFCURVE",
"1178 1 OFFCURVE",
"1159 1 CURVE SMOOTH"
);
},
{
closed = 1;
nodes = (
"961 667 LINE",
"743 301 LINE",
"961 301 LINE"
);
},
{
closed = 1;
nodes = (
"322 79 CURVE SMOOTH",
"934 1099 LINE SMOOTH",
"940 1110 OFFCURVE",
"950 1115 OFFCURVE",
"961 1115 CURVE SMOOTH",
"978 1115 OFFCURVE",
"996 1104 OFFCURVE",
"996 1086 CURVE SMOOTH",
"996 1081 OFFCURVE",
"995 1076 OFFCURVE",
"992 1070 CURVE SMOOTH",
"382 52 LINE SMOOTH",
"374 39 OFFCURVE",
"365 34 OFFCURVE",
"354 34 CURVE SMOOTH",
"336 34 OFFCURVE",
"319 47 OFFCURVE",
"319 65 CURVE SMOOTH",
"319 69 OFFCURVE",
"319 74 OFFCURVE"
);
}
);
width = 1240;
}
);
unicode = 00BC;
},
{
glyphname = threequarters;
lastChange = "2016-08-10 13:30:31 +0000";
layers = (
{
layerId = "840BD324-B0A6-42B0-BD23-CB5E8C19394F";
paths = (
{
closed = 1;
nodes = (
"810 1 LINE SMOOTH",
"792 1 OFFCURVE",
"783 16 OFFCURVE",
"783 32 CURVE SMOOTH",
"783 47 OFFCURVE",
"792 63 OFFCURVE",
"809 63 CURVE SMOOTH",
"985 63 LINE",
"985 245 LINE",
"714 245 LINE SMOOTH",
"699 245 OFFCURVE",
"684 261 OFFCURVE",
"684 279 CURVE SMOOTH",
"684 286 OFFCURVE",
"687 293 OFFCURVE",
"692 301 CURVE SMOOTH",
"1001 794 LINE SMOOTH",
"1003 798 OFFCURVE",
"1016 804 OFFCURVE",
"1029 804 CURVE SMOOTH",
"1044 804 OFFCURVE",
"1060 795 OFFCURVE",
"1060 762 CURVE SMOOTH",
"1060 301 LINE",
"1179 301 LINE SMOOTH",
"1197 301 OFFCURVE",
"1206 287 OFFCURVE",
"1206 273 CURVE SMOOTH",
"1206 259 OFFCURVE",
"1196 245 OFFCURVE",
"1177 245 CURVE SMOOTH",
"1060 245 LINE",
"1060 63 LINE",
"1184 63 LINE SMOOTH",
"1203 63 OFFCURVE",
"1212 48 OFFCURVE",
"1212 33 CURVE SMOOTH",
"1212 17 OFFCURVE",
"1202 1 OFFCURVE",
"1183 1 CURVE SMOOTH"
);
},
{
closed = 1;
nodes = (
"985 667 LINE",
"767 301 LINE",
"985 301 LINE"
);
},
{
closed = 1;
nodes = (
"341 79 CURVE SMOOTH",
"953 1099 LINE SMOOTH",
"959 1110 OFFCURVE",
"969 1115 OFFCURVE",
"980 1115 CURVE SMOOTH",
"997 1115 OFFCURVE",
"1015 1104 OFFCURVE",
"1015 1086 CURVE SMOOTH",
"1015 1081 OFFCURVE",
"1014 1076 OFFCURVE",
"1011 1070 CURVE SMOOTH",
"401 52 LINE SMOOTH",
"393 39 OFFCURVE",
"384 34 OFFCURVE",
"373 34 CURVE SMOOTH",
"355 34 OFFCURVE",
"338 47 OFFCURVE",
"338 65 CURVE SMOOTH",
"338 69 OFFCURVE",
"338 74 OFFCURVE"
);
},
{
closed = 1;
nodes = (
"180 725 CURVE SMOOTH",
"163 725 OFFCURVE",
"152 735 OFFCURVE",
"152 753 CURVE SMOOTH",
"152 763 OFFCURVE",
"159 774 OFFCURVE",
"174 783 CURVE SMOOTH",
"281 849 OFFCURVE",
"368 886 OFFCURVE",
"368 967 CURVE SMOOTH",
"368 1014 OFFCURVE",
"335 1059 OFFCURVE",
"254 1059 CURVE SMOOTH",
"105 1059 OFFCURVE",
"149 994 OFFCURVE",
"76 994 CURVE SMOOTH",
"56 994 OFFCURVE",
"46 1007 OFFCURVE",
"46 1019 CURVE SMOOTH",
"46 1087 OFFCURVE",
"187 1122 OFFCURVE",
"256 1122 CURVE SMOOTH",
"358 1122 OFFCURVE",
"439 1066 OFFCURVE",
"439 967 CURVE SMOOTH",
"439 866 OFFCURVE",
"328 806 OFFCURVE",
"275 780 CURVE",
"410 775 OFFCURVE",
"484 688 OFFCURVE",
"484 568 CURVE SMOOTH",
"484 419 OFFCURVE",
"362 313 OFFCURVE",
"208 313 CURVE SMOOTH",
"117 313 OFFCURVE",
"16 355 OFFCURVE",
"16 400 CURVE SMOOTH",
"16 409 OFFCURVE",
"28 425 OFFCURVE",
"45 425 CURVE SMOOTH",
"106 425 OFFCURVE",
"97 377 OFFCURVE",
"210 377 CURVE SMOOTH",
"336 377 OFFCURVE",
"413 460 OFFCURVE",
"413 572 CURVE SMOOTH",
"413 671 OFFCURVE",
"349 731 OFFCURVE",
"247 731 CURVE SMOOTH",
"228 731 OFFCURVE",
"189 725 OFFCURVE"
);
}
);
width = 1240;
}
);
unicode = 00BE;
},
{
glyphname = asterisk;
lastChange = "2016-08-10 13:30:31 +0000";
layers = (
{
layerId = "840BD324-B0A6-42B0-BD23-CB5E8C19394F";
paths = (
{
closed = 1;
nodes = (
"796 1113 CURVE SMOOTH",
"834 1113 OFFCURVE",
"877 1084 OFFCURVE",
"877 1048 CURVE SMOOTH",
"877 1042 OFFCURVE",
"876 1035 OFFCURVE",
"872 1027 CURVE",
"753 872 LINE SMOOTH",
"743 858 OFFCURVE",
"731 851 OFFCURVE",
"717 851 CURVE SMOOTH",
"694 851 OFFCURVE",
"674 868 OFFCURVE",
"674 891 CURVE SMOOTH",
"674 898 OFFCURVE",
"676 905 OFFCURVE",
"678 912 CURVE SMOOTH",
"756 1092 LINE SMOOTH",
"763 1106 OFFCURVE",
"777 1113 OFFCURVE"
);
},
{
closed = 1;
nodes = (
"518 470 CURVE SMOOTH",
"480 470 OFFCURVE",
"437 498 OFFCURVE",
"437 536 CURVE SMOOTH",
"437 542 OFFCURVE",
"439 548 OFFCURVE",
"443 556 CURVE",
"562 712 LINE SMOOTH",
"571 725 OFFCURVE",
"580 731 OFFCURVE",
"597 731 CURVE SMOOTH",
"620 731 OFFCURVE",
"641 715 OFFCURVE",
"641 692 CURVE SMOOTH",
"641 684 OFFCURVE",
"639 678 OFFCURVE",
"637 672 CURVE SMOOTH",
"559 492 LINE",
"551 478 OFFCURVE",
"537 470 OFFCURVE"
);
},
{
closed = 1;
nodes = (
"642 891 CURVE SMOOTH",
"642 868 OFFCURVE",
"621 851 OFFCURVE",
"598 851 CURVE SMOOTH",
"585 851 OFFCURVE",
"573 858 OFFCURVE",
"563 872 CURVE SMOOTH",
"444 1027 LINE",
"440 1035 OFFCURVE",
"438 1042 OFFCURVE",
"438 1048 CURVE SMOOTH",
"438 1085 OFFCURVE",
"481 1113 OFFCURVE",
"519 1113 CURVE SMOOTH",
"538 1113 OFFCURVE",
"551 1106 OFFCURVE",
"559 1092 CURVE",
"637 912 LINE SMOOTH",
"640 905 OFFCURVE",
"642 898 OFFCURVE"
);
},
{
closed = 1;
nodes = (
"879 536 CURVE SMOOTH",
"879 499 OFFCURVE",
"835 470 OFFCURVE",
"798 470 CURVE SMOOTH",
"779 470 OFFCURVE",
"764 478 OFFCURVE",
"758 492 CURVE SMOOTH",
"680 672 LINE SMOOTH",
"678 678 OFFCURVE",
"675 684 OFFCURVE",
"675 692 CURVE SMOOTH",
"675 715 OFFCURVE",
"695 731 OFFCURVE",
"718 731 CURVE SMOOTH",
"735 731 OFFCURVE",
"745 725 OFFCURVE",
"755 712 CURVE SMOOTH",
"873 556 LINE",
"877 548 OFFCURVE",
"879 542 OFFCURVE"
);
},
{
closed = 1;
nodes = (
"342 727 LINE",
"309 727 OFFCURVE",
"292 760 OFFCURVE",
"292 791 CURVE SMOOTH",
"292 823 OFFCURVE",
"309 856 OFFCURVE",
"342 856 CURVE",
"540 834 LINE SMOOTH",
"566 831 OFFCURVE",
"581 815 OFFCURVE",
"581 791 CURVE SMOOTH",
"581 768 OFFCURVE",
"566 752 OFFCURVE",
"540 750 CURVE"
);
},
{
closed = 1;
nodes = (
"975 856 LINE",
"1008 856 OFFCURVE",
"1024 823 OFFCURVE",
"1024 791 CURVE SMOOTH",
"1024 760 OFFCURVE",
"1008 727 OFFCURVE",
"975 727 CURVE",
"777 750 LINE",
"751 752 OFFCURVE",
"736 768 OFFCURVE",
"736 791 CURVE SMOOTH",
"736 815 OFFCURVE",
"751 831 OFFCURVE",
"777 834 CURVE SMOOTH"
);
}
);
width = 1240;
}
);
unicode = 002A;
},
{
glyphname = backslash;
lastChange = "2016-08-10 13:30:31 +0000";
layers = (
{
layerId = "840BD324-B0A6-42B0-BD23-CB5E8C19394F";
paths = (
{
closed = 1;
nodes = (
"991 -178 LINE SMOOTH",
"994 -184 OFFCURVE",
"995 -189 OFFCURVE",
"995 -195 CURVE SMOOTH",
"995 -219 OFFCURVE",
"972 -237 OFFCURVE",
"949 -237 CURVE SMOOTH",
"935 -237 OFFCURVE",
"920 -230 OFFCURVE",
"911 -213 CURVE SMOOTH",
"247 1113 LINE SMOOTH",
"243 1121 OFFCURVE",
"242 1128 OFFCURVE",
"242 1134 CURVE SMOOTH",
"242 1158 OFFCURVE",
"265 1173 OFFCURVE",
"288 1173 CURVE SMOOTH",
"303 1173 OFFCURVE",
"317 1166 OFFCURVE",
"324 1152 CURVE SMOOTH"
);
}
);
width = 1240;
}
);
unicode = 005C;
},
{
glyphname = periodcentered;
lastChange = "2016-08-10 13:30:31 +0000";
layers = (
{
layerId = "840BD324-B0A6-42B0-BD23-CB5E8C19394F";
paths = (
{
closed = 1;
nodes = (
"699 680 CURVE SMOOTH",
"745 680 OFFCURVE",
"781 643 OFFCURVE",
"781 597 CURVE SMOOTH",
"781 551 OFFCURVE",
"745 515 OFFCURVE",
"699 515 CURVE SMOOTH",
"653 515 OFFCURVE",
"616 551 OFFCURVE",
"616 597 CURVE SMOOTH",
"616 643 OFFCURVE",
"653 680 OFFCURVE"
);
}
);
width = 1240;
}
);
unicode = 00B7;
},
{
glyphname = bullet;
lastChange = "2016-08-10 13:30:31 +0000";
layers = (
{
layerId = "840BD324-B0A6-42B0-BD23-CB5E8C19394F";
paths = (
{
closed = 1;
nodes = (
"624 197 CURVE SMOOTH",
"476 197 OFFCURVE",
"380 291 OFFCURVE",
"380 439 CURVE SMOOTH",
"380 587 OFFCURVE",
"476 681 OFFCURVE",
"624 681 CURVE SMOOTH",
"767 681 OFFCURVE",
"861 582 OFFCURVE",
"861 439 CURVE SMOOTH",
"861 295 OFFCURVE",
"767 197 OFFCURVE"
);
}
);
width = 1240;
}
);
unicode = 2022;
},
{
glyphname = colon;
lastChange = "2016-08-10 13:30:31 +0000";
layers = (
{
layerId = "840BD324-B0A6-42B0-BD23-CB5E8C19394F";
paths = (
{
closed = 1;
nodes = (
"644 600 CURVE SMOOTH",
"583 600 OFFCURVE",
"539 644 OFFCURVE",
"539 705 CURVE SMOOTH",
"539 766 OFFCURVE",
"584 811 OFFCURVE",
"644 811 CURVE SMOOTH",
"704 811 OFFCURVE",
"750 765 OFFCURVE",
"750 705 CURVE SMOOTH",
"750 644 OFFCURVE",
"704 600 OFFCURVE"
);
},
{
closed = 1;
nodes = (
"644 -16 CURVE SMOOTH",
"583 -16 OFFCURVE",
"539 28 OFFCURVE",
"539 89 CURVE SMOOTH",
"539 150 OFFCURVE",
"584 195 OFFCURVE",
"644 195 CURVE SMOOTH",
"704 195 OFFCURVE",
"750 149 OFFCURVE",
"750 89 CURVE SMOOTH",
"750 28 OFFCURVE",
"704 -16 OFFCURVE"
);
}
);
width = 1240;
}
);
unicode = 003A;
},
{
glyphname = comma;
lastChange = "2016-08-10 13:30:31 +0000";
layers = (
{
layerId = "840BD324-B0A6-42B0-BD23-CB5E8C19394F";
paths = (
{
closed = 1;
nodes = (
"616 180 CURVE SMOOTH",
"676 180 OFFCURVE",
"728 139 OFFCURVE",
"728 59 CURVE SMOOTH",
"728 -57 OFFCURVE",
"625 -167 OFFCURVE",
"543 -208 CURVE SMOOTH",
"540 -210 OFFCURVE",
"536 -210 OFFCURVE",
"533 -210 CURVE SMOOTH",
"519 -210 OFFCURVE",
"505 -197 OFFCURVE",
"505 -183 CURVE SMOOTH",
"505 -176 OFFCURVE",
"509 -168 OFFCURVE",
"517 -162 CURVE SMOOTH",
"560 -131 OFFCURVE",
"626 -70 OFFCURVE",
"626 -8 CURVE",
"567 -8 OFFCURVE",
"518 20 OFFCURVE",
"518 85 CURVE SMOOTH",
"518 149 OFFCURVE",
"569 180 OFFCURVE"
);
}
);
width = 1240;
}
);
unicode = 002C;
},
{
glyphname = exclam;
lastChange = "2016-08-10 13:30:31 +0000";
layers = (
{
layerId = "840BD324-B0A6-42B0-BD23-CB5E8C19394F";
paths = (
{
closed = 1;
nodes = (
"621 -9 CURVE SMOOTH",
"564 -9 OFFCURVE",
"519 36 OFFCURVE",
"519 93 CURVE SMOOTH",
"519 150 OFFCURVE",
"564 193 OFFCURVE",
"621 193 CURVE SMOOTH",
"678 193 OFFCURVE",
"722 150 OFFCURVE",
"722 93 CURVE SMOOTH",
"722 36 OFFCURVE",
"678 -9 OFFCURVE"
);
},
{
closed = 1;
nodes = (
"686 1103 CURVE SMOOTH",
"686 872 OFFCURVE",
"646 626 OFFCURVE",
"646 380 CURVE SMOOTH",
"646 353 OFFCURVE",
"638 344 OFFCURVE",
"622 344 CURVE SMOOTH",
"606 344 OFFCURVE",
"598 354 OFFCURVE",
"598 380 CURVE SMOOTH",
"598 628 OFFCURVE",
"556 869 OFFCURVE",
"556 1103 CURVE SMOOTH",
"556 1170 OFFCURVE",
"584 1187 OFFCURVE",
"622 1187 CURVE SMOOTH",
"658 1187 OFFCURVE",
"686 1170 OFFCURVE"
);
}
);
width = 1240;
}
);
unicode = 0021;
},
{
glyphname = numbersign;
lastChange = "2016-08-10 13:30:31 +0000";
layers = (
{
layerId = "840BD324-B0A6-42B0-BD23-CB5E8C19394F";
paths = (
{
closed = 1;
nodes = (
"468 470 LINE",
"725 470 LINE",
"780 689 LINE",
"524 689 LINE"
);
},
{
closed = 1;
nodes = (
"584 -94 CURVE SMOOTH",
"584 -91 OFFCURVE",
"584 -89 OFFCURVE",
"585 -86 CURVE SMOOTH",
"704 385 LINE",
"447 385 LINE",
"325 -94 LINE SMOOTH",
"320 -114 OFFCURVE",
"302 -123 OFFCURVE",
"284 -123 CURVE SMOOTH",
"265 -123 OFFCURVE",
"247 -112 OFFCURVE",
"247 -94 CURVE SMOOTH",
"247 -91 OFFCURVE",
"247 -89 OFFCURVE",
"248 -86 CURVE SMOOTH",
"367 385 LINE",
"250 385 LINE SMOOTH",
"230 385 OFFCURVE",
"219 406 OFFCURVE",
"219 428 CURVE SMOOTH",
"219 449 OFFCURVE",
"230 470 OFFCURVE",
"250 470 CURVE SMOOTH",
"388 470 LINE",
"443 689 LINE",
"292 689 LINE SMOOTH",
"272 689 OFFCURVE",
"261 710 OFFCURVE",
"261 732 CURVE SMOOTH",
"261 753 OFFCURVE",
"272 774 OFFCURVE",
"292 774 CURVE SMOOTH",
"465 774 LINE",
"593 1282 LINE SMOOTH",
"598 1300 OFFCURVE",
"614 1308 OFFCURVE",
"631 1308 CURVE SMOOTH",
"651 1308 OFFCURVE",
"672 1296 OFFCURVE",
"672 1277 CURVE SMOOTH",
"672 1275 OFFCURVE",
"672 1272 OFFCURVE",
"671 1270 CURVE SMOOTH",
"545 774 LINE",
"802 774 LINE",
"930 1282 LINE SMOOTH",
"935 1300 OFFCURVE",
"951 1308 OFFCURVE",
"968 1308 CURVE SMOOTH",
"988 1308 OFFCURVE",
"1009 1296 OFFCURVE",
"1009 1277 CURVE SMOOTH",
"1009 1275 OFFCURVE",
"1009 1272 OFFCURVE",
"1008 1270 CURVE SMOOTH",
"882 774 LINE",
"1001 774 LINE SMOOTH",
"1022 774 OFFCURVE",
"1032 752 OFFCURVE",
"1032 731 CURVE SMOOTH",
"1032 710 OFFCURVE",
"1022 689 OFFCURVE",
"1002 689 CURVE SMOOTH",
"861 689 LINE",
"805 470 LINE",
"959 470 LINE SMOOTH",
"980 470 OFFCURVE",
"990 449 OFFCURVE",
"990 428 CURVE SMOOTH",
"990 406 OFFCURVE",
"980 385 OFFCURVE",
"959 385 CURVE SMOOTH",
"784 385 LINE",
"662 -94 LINE SMOOTH",
"657 -114 OFFCURVE",
"639 -123 OFFCURVE",
"621 -123 CURVE SMOOTH",
"602 -123 OFFCURVE",
"584 -112 OFFCURVE"
);
}
);
width = 1240;
}
);
unicode = 0023;
},
{
glyphname = period;
lastChange = "2016-08-10 13:30:31 +0000";
layers = (
{
layerId = "840BD324-B0A6-42B0-BD23-CB5E8C19394F";
paths = (
{
closed = 1;
nodes = (
"620 -16 CURVE SMOOTH",
"559 -16 OFFCURVE",
"514 28 OFFCURVE",
"514 89 CURVE SMOOTH",
"514 150 OFFCURVE",
"560 195 OFFCURVE",
"620 195 CURVE SMOOTH",
"680 195 OFFCURVE",
"726 149 OFFCURVE",
"726 89 CURVE SMOOTH",
"726 28 OFFCURVE",
"680 -16 OFFCURVE"
);
}
);
width = 1240;
}
);
unicode = 002E;
},
{
glyphname = question;
lastChange = "2016-08-10 13:30:31 +0000";
layers = (
{
layerId = "840BD324-B0A6-42B0-BD23-CB5E8C19394F";
paths = (
{
closed = 1;
nodes = (
"549 -9 CURVE SMOOTH",
"492 -9 OFFCURVE",
"447 36 OFFCURVE",
"447 93 CURVE SMOOTH",
"447 150 OFFCURVE",
"492 194 OFFCURVE",
"549 194 CURVE SMOOTH",
"606 194 OFFCURVE",
"650 151 OFFCURVE",
"650 94 CURVE SMOOTH",
"650 37 OFFCURVE",
"606 -9 OFFCURVE"
);
},
{
closed = 1;
nodes = (
"905 906 CURVE SMOOTH",
"905 644 OFFCURVE",
"575 571 OFFCURVE",
"575 394 CURVE SMOOTH",
"575 360 OFFCURVE",
"571 338 OFFCURVE",
"543 338 CURVE SMOOTH",
"510 338 OFFCURVE",
"509 363 OFFCURVE",
"509 393 CURVE SMOOTH",
"509 615 OFFCURVE",
"751 655 OFFCURVE",
"784 874 CURVE SMOOTH",
"786 887 OFFCURVE",
"787 900 OFFCURVE",
"787 912 CURVE SMOOTH",
"787 1030 OFFCURVE",
"704 1111 OFFCURVE",
"570 1111 CURVE SMOOTH",
"526 1111 OFFCURVE",
"476 1107 OFFCURVE",
"421 1082 CURVE",
"415 1000 OFFCURVE",
"416 891 OFFCURVE",
"349 891 CURVE SMOOTH",
"313 891 OFFCURVE",
"300 928 OFFCURVE",
"300 971 CURVE SMOOTH",
"300 1106 OFFCURVE",
"411 1188 OFFCURVE",
"573 1188 CURVE SMOOTH",
"764 1188 OFFCURVE",
"905 1092 OFFCURVE"
);
}
);
width = 1240;
}
);
unicode = 003F;
},
{
glyphname = quotedbl;
lastChange = "2016-08-10 13:30:31 +0000";
layers = (
{
layerId = "840BD324-B0A6-42B0-BD23-CB5E8C19394F";
paths = (
{
closed = 1;
nodes = (
"535 721 LINE SMOOTH",
"534 707 OFFCURVE",
"523 701 OFFCURVE",
"511 701 CURVE SMOOTH",
"499 701 OFFCURVE",
"487 707 OFFCURVE",
"486 721 CURVE SMOOTH",
"454 1117 LINE SMOOTH",
"451 1154 OFFCURVE",
"481 1172 OFFCURVE",
"511 1172 CURVE SMOOTH",
"540 1172 OFFCURVE",
"569 1155 OFFCURVE",
"569 1122 CURVE SMOOTH",
"569 1116 LINE SMOOTH"
);
},
{
closed = 1;
nodes = (
"752 721 LINE SMOOTH",
"751 707 OFFCURVE",
"740 701 OFFCURVE",
"728 701 CURVE SMOOTH",
"716 701 OFFCURVE",
"704 707 OFFCURVE",
"703 721 CURVE SMOOTH",
"671 1117 LINE SMOOTH",
"668 1154 OFFCURVE",
"698 1172 OFFCURVE",
"728 1172 CURVE SMOOTH",
"757 1172 OFFCURVE",
"786 1155 OFFCURVE",
"786 1122 CURVE SMOOTH",
"786 1116 LINE SMOOTH"
);
}
);
width = 1240;
}
);
unicode = 0022;
},
{
glyphname = quotesingle;
lastChange = "2016-08-10 13:30:31 +0000";
layers = (
{
layerId = "840BD324-B0A6-42B0-BD23-CB5E8C19394F";
paths = (
{
closed = 1;
nodes = (
"644 721 LINE SMOOTH",
"643 707 OFFCURVE",
"632 701 OFFCURVE",
"620 701 CURVE SMOOTH",
"608 701 OFFCURVE",
"596 707 OFFCURVE",
"595 721 CURVE SMOOTH",
"563 1117 LINE SMOOTH",
"560 1154 OFFCURVE",
"590 1172 OFFCURVE",
"620 1172 CURVE SMOOTH",
"649 1172 OFFCURVE",
"678 1155 OFFCURVE",
"678 1122 CURVE SMOOTH",
"678 1116 LINE SMOOTH"
);
}
);
width = 1240;
}
);
unicode = 0027;
},
{
glyphname = semicolon;
lastChange = "2016-08-10 13:30:31 +0000";
layers = (
{
layerId = "840BD324-B0A6-42B0-BD23-CB5E8C19394F";
paths = (
{
closed = 1;
nodes = (
"644 600 CURVE SMOOTH",
"583 600 OFFCURVE",
"539 644 OFFCURVE",
"539 705 CURVE SMOOTH",
"539 766 OFFCURVE",
"584 811 OFFCURVE",
"644 811 CURVE SMOOTH",
"704 811 OFFCURVE",
"750 765 OFFCURVE",
"750 705 CURVE SMOOTH",
"750 644 OFFCURVE",
"704 600 OFFCURVE"
);
},
{
closed = 1;
nodes = (
"644 180 CURVE SMOOTH",
"704 180 OFFCURVE",
"756 139 OFFCURVE",
"756 59 CURVE SMOOTH",
"756 -57 OFFCURVE",
"688 -130 OFFCURVE",
"606 -172 CURVE SMOOTH",
"597 -177 OFFCURVE",
"589 -178 OFFCURVE",
"581 -178 CURVE SMOOTH",
"558 -178 OFFCURVE",
"540 -160 OFFCURVE",
"540 -142 CURVE SMOOTH",
"540 -132 OFFCURVE",
"546 -120 OFFCURVE",
"557 -112 CURVE SMOOTH",
"599 -84 OFFCURVE",
"654 -49 OFFCURVE",
"654 13 CURVE",
"595 13 OFFCURVE",
"551 40 OFFCURVE",
"551 96 CURVE SMOOTH",
"551 152 OFFCURVE",
"597 180 OFFCURVE"
);
}
);
width = 1240;
}
);
unicode = 003B;
},
{
glyphname = slash;
lastChange = "2016-08-10 13:30:31 +0000";
layers = (
{
layerId = "840BD324-B0A6-42B0-BD23-CB5E8C19394F";
paths = (
{
closed = 1;
nodes = (
"247 -178 CURVE SMOOTH",
"914 1152 LINE SMOOTH",
"921 1166 OFFCURVE",
"936 1173 OFFCURVE",
"951 1173 CURVE SMOOTH",
"974 1173 OFFCURVE",
"997 1158 OFFCURVE",
"997 1134 CURVE SMOOTH",
"997 1128 OFFCURVE",
"995 1121 OFFCURVE",
"991 1113 CURVE SMOOTH",
"327 -213 LINE SMOOTH",
"318 -230 OFFCURVE",
"304 -237 OFFCURVE",
"290 -237 CURVE SMOOTH",
"267 -237 OFFCURVE",
"243 -219 OFFCURVE",
"243 -195 CURVE SMOOTH",
"243 -189 OFFCURVE",
"244 -184 OFFCURVE"
);
}
);
width = 1240;
}
);
unicode = 002F;
},
{
glyphname = underscore;
lastChange = "2016-08-10 13:30:31 +0000";
layers = (
{
layerId = "840BD324-B0A6-42B0-BD23-CB5E8C19394F";
paths = (
{
closed = 1;
nodes = (
"1000 91 LINE SMOOTH",
"1030 91 OFFCURVE",
"1045 68 OFFCURVE",
"1045 46 CURVE SMOOTH",
"1045 23 OFFCURVE",
"1030 0 OFFCURVE",
"1000 0 CURVE SMOOTH",
"241 0 LINE SMOOTH",
"211 0 OFFCURVE",
"196 23 OFFCURVE",
"196 46 CURVE SMOOTH",
"196 68 OFFCURVE",
"211 91 OFFCURVE",
"241 91 CURVE SMOOTH"
);
}
);
width = 1240;
}
);
unicode = 005F;
},
{
glyphname = braceleft;
lastChange = "2016-08-10 13:30:31 +0000";
layers = (
{
layerId = "840BD324-B0A6-42B0-BD23-CB5E8C19394F";
paths = (
{
closed = 1;
nodes = (
"657 658 CURVE SMOOTH",
"657 597 OFFCURVE",
"656 543 OFFCURVE",
"568 526 CURVE",
"656 506 OFFCURVE",
"657 446 OFFCURVE",
"657 385 CURVE SMOOTH",
"657 256 OFFCURVE",
"597 103 OFFCURVE",
"597 -15 CURVE SMOOTH",
"597 -113 OFFCURVE",
"663 -143 OFFCURVE",
"860 -143 CURVE SMOOTH",
"879 -143 OFFCURVE",
"888 -164 OFFCURVE",
"888 -185 CURVE SMOOTH",
"888 -206 OFFCURVE",
"879 -227 OFFCURVE",
"860 -227 CURVE SMOOTH",
"538 -227 OFFCURVE",
"502 -147 OFFCURVE",
"502 8 CURVE SMOOTH",
"502 151 OFFCURVE",
"564 269 OFFCURVE",
"564 385 CURVE SMOOTH",
"564 435 OFFCURVE",
"539 467 OFFCURVE",
"441 467 CURVE SMOOTH",
"411 467 OFFCURVE",
"394 498 OFFCURVE",
"394 529 CURVE SMOOTH",
"394 557 OFFCURVE",
"408 585 OFFCURVE",
"441 585 CURVE SMOOTH",
"539 585 OFFCURVE",
"564 607 OFFCURVE",
"564 657 CURVE SMOOTH",
"564 773 OFFCURVE",
"502 891 OFFCURVE",
"502 1034 CURVE SMOOTH",
"502 1189 OFFCURVE",
"538 1270 OFFCURVE",
"860 1270 CURVE SMOOTH",
"879 1270 OFFCURVE",
"888 1249 OFFCURVE",
"888 1228 CURVE SMOOTH",
"888 1207 OFFCURVE",
"879 1186 OFFCURVE",
"860 1186 CURVE SMOOTH",
"663 1186 OFFCURVE",
"597 1156 OFFCURVE",
"597 1058 CURVE SMOOTH",
"597 940 OFFCURVE",
"657 787 OFFCURVE"
);
}
);
width = 1240;
}
);
unicode = 007B;
},
{
glyphname = braceright;
lastChange = "2016-08-10 13:30:31 +0000";
layers = (
{
layerId = "840BD324-B0A6-42B0-BD23-CB5E8C19394F";
paths = (
{
closed = 1;
nodes = (
"614 385 CURVE SMOOTH",
"614 446 OFFCURVE",
"615 500 OFFCURVE",
"703 517 CURVE",
"615 537 OFFCURVE",
"614 597 OFFCURVE",
"614 658 CURVE SMOOTH",
"614 787 OFFCURVE",
"674 940 OFFCURVE",
"674 1058 CURVE SMOOTH",
"674 1156 OFFCURVE",
"608 1186 OFFCURVE",
"411 1186 CURVE SMOOTH",
"392 1186 OFFCURVE",
"383 1207 OFFCURVE",
"383 1228 CURVE SMOOTH",
"383 1249 OFFCURVE",
"392 1270 OFFCURVE",
"411 1270 CURVE SMOOTH",
"733 1270 OFFCURVE",
"769 1190 OFFCURVE",
"769 1035 CURVE SMOOTH",
"769 892 OFFCURVE",
"707 774 OFFCURVE",
"707 658 CURVE SMOOTH",
"707 608 OFFCURVE",
"732 576 OFFCURVE",
"830 576 CURVE SMOOTH",
"860 576 OFFCURVE",
"877 545 OFFCURVE",
"877 514 CURVE SMOOTH",
"877 486 OFFCURVE",
"863 458 OFFCURVE",
"830 458 CURVE SMOOTH",
"732 458 OFFCURVE",
"707 436 OFFCURVE",
"707 386 CURVE SMOOTH",
"707 270 OFFCURVE",
"769 152 OFFCURVE",
"769 9 CURVE SMOOTH",
"769 -146 OFFCURVE",
"733 -227 OFFCURVE",
"411 -227 CURVE SMOOTH",
"392 -227 OFFCURVE",
"383 -206 OFFCURVE",
"383 -185 CURVE SMOOTH",
"383 -164 OFFCURVE",
"392 -143 OFFCURVE",
"411 -143 CURVE SMOOTH",
"608 -143 OFFCURVE",
"674 -113 OFFCURVE",
"674 -15 CURVE SMOOTH",
"674 103 OFFCURVE",
"614 256 OFFCURVE"
);
}
);
width = 1240;
}
);
unicode = 007D;
},
{
glyphname = bracketleft;
lastChange = "2016-08-10 13:30:31 +0000";
layers = (
{
layerId = "840BD324-B0A6-42B0-BD23-CB5E8C19394F";
paths = (
{
closed = 1;
nodes = (
"802 1331 LINE SMOOTH",
"821 1331 OFFCURVE",
"830 1310 OFFCURVE",
"830 1289 CURVE SMOOTH",
"830 1268 OFFCURVE",
"821 1247 OFFCURVE",
"802 1247 CURVE SMOOTH",
"611 1247 LINE",
"611 -64 LINE",
"802 -64 LINE SMOOTH",
"821 -64 OFFCURVE",
"830 -85 OFFCURVE",
"830 -106 CURVE SMOOTH",
"830 -127 OFFCURVE",
"821 -148 OFFCURVE",
"802 -148 CURVE SMOOTH",
"570 -148 LINE SMOOTH",
"534 -148 OFFCURVE",
"515 -125 OFFCURVE",
"515 -90 CURVE SMOOTH",
"515 1270 LINE SMOOTH",
"515 1308 OFFCURVE",
"532 1331 OFFCURVE",
"570 1331 CURVE SMOOTH"
);
}
);
width = 1240;
}
);
unicode = 005B;
},
{
glyphname = bracketright;
lastChange = "2016-08-10 13:30:31 +0000";
layers = (
{
layerId = "840BD324-B0A6-42B0-BD23-CB5E8C19394F";
paths = (
{
closed = 1;
nodes = (
"452 -148 LINE SMOOTH",
"433 -148 OFFCURVE",
"424 -127 OFFCURVE",
"424 -106 CURVE SMOOTH",
"424 -85 OFFCURVE",
"433 -64 OFFCURVE",
"452 -64 CURVE SMOOTH",
"643 -64 LINE",
"643 1247 LINE",
"452 1247 LINE SMOOTH",
"433 1247 OFFCURVE",
"424 1268 OFFCURVE",
"424 1289 CURVE SMOOTH",
"424 1310 OFFCURVE",
"433 1331 OFFCURVE",
"452 1331 CURVE SMOOTH",
"684 1331 LINE SMOOTH",
"720 1331 OFFCURVE",
"739 1308 OFFCURVE",
"739 1273 CURVE SMOOTH",
"739 -87 LINE SMOOTH",
"739 -125 OFFCURVE",
"722 -148 OFFCURVE",
"684 -148 CURVE SMOOTH"
);
}
);
width = 1240;
}
);
unicode = 005D;
},
{
glyphname = parenleft;
lastChange = "2016-08-10 13:30:31 +0000";
layers = (
{
layerId = "840BD324-B0A6-42B0-BD23-CB5E8C19394F";
paths = (
{
closed = 1;
nodes = (
"484 570 CURVE SMOOTH",
"484 853 OFFCURVE",
"549 1079 OFFCURVE",
"692 1267 CURVE SMOOTH",
"701 1279 OFFCURVE",
"712 1284 OFFCURVE",
"723 1284 CURVE SMOOTH",
"747 1284 OFFCURVE",
"770 1259 OFFCURVE",
"770 1238 CURVE SMOOTH",
"770 1232 OFFCURVE",
"768 1227 OFFCURVE",
"764 1222 CURVE SMOOTH",
"638 1074 OFFCURVE",
"578 826 OFFCURVE",
"578 570 CURVE SMOOTH",
"578 314 OFFCURVE",
"638 66 OFFCURVE",
"764 -82 CURVE SMOOTH",
"768 -87 OFFCURVE",
"770 -92 OFFCURVE",
"770 -98 CURVE SMOOTH",
"770 -119 OFFCURVE",
"747 -144 OFFCURVE",
"723 -144 CURVE SMOOTH",
"712 -144 OFFCURVE",
"701 -139 OFFCURVE",
"692 -127 CURVE SMOOTH",
"549 61 OFFCURVE",
"484 287 OFFCURVE"
);
}
);
width = 1240;
}
);
unicode = 0028;
},
{
glyphname = parenright;
lastChange = "2016-08-10 13:30:31 +0000";
layers = (
{
layerId = "840BD324-B0A6-42B0-BD23-CB5E8C19394F";
paths = (
{
closed = 1;
nodes = (
"770 570 CURVE SMOOTH",
"770 287 OFFCURVE",
"705 61 OFFCURVE",
"562 -127 CURVE SMOOTH",
"553 -139 OFFCURVE",
"542 -144 OFFCURVE",
"531 -144 CURVE SMOOTH",
"507 -144 OFFCURVE",
"484 -119 OFFCURVE",
"484 -98 CURVE SMOOTH",
"484 -92 OFFCURVE",
"486 -87 OFFCURVE",
"490 -82 CURVE SMOOTH",
"616 66 OFFCURVE",
"676 314 OFFCURVE",
"676 570 CURVE SMOOTH",
"676 826 OFFCURVE",
"616 1074 OFFCURVE",
"490 1222 CURVE SMOOTH",
"486 1227 OFFCURVE",
"484 1232 OFFCURVE",
"484 1238 CURVE SMOOTH",
"484 1259 OFFCURVE",
"507 1284 OFFCURVE",
"531 1284 CURVE SMOOTH",
"542 1284 OFFCURVE",
"553 1279 OFFCURVE",
"562 1267 CURVE SMOOTH",
"705 1079 OFFCURVE",
"770 853 OFFCURVE"
);
}
);
width = 1240;
}
);
unicode = 0029;
},
{
glyphname = emdash;
lastChange = "2016-08-10 13:30:31 +0000";
layers = (
{
layerId = "840BD324-B0A6-42B0-BD23-CB5E8C19394F";
paths = (
{
closed = 1;
nodes = (
"1042 533 LINE SMOOTH",
"1072 533 OFFCURVE",
"1087 512 OFFCURVE",
"1087 490 CURVE SMOOTH",
"1087 469 OFFCURVE",
"1072 447 OFFCURVE",
"1042 447 CURVE SMOOTH",
"199 447 LINE SMOOTH",
"169 447 OFFCURVE",
"154 469 OFFCURVE",
"154 490 CURVE SMOOTH",
"154 512 OFFCURVE",
"169 533 OFFCURVE",
"199 533 CURVE SMOOTH"
);
}
);
width = 1240;
}
);
unicode = 2014;
},
{
glyphname = endash;
lastChange = "2016-08-10 13:30:31 +0000";
layers = (
{
layerId = "840BD324-B0A6-42B0-BD23-CB5E8C19394F";
paths = (
{
closed = 1;
nodes = (
"958 503 LINE SMOOTH",
"988 503 OFFCURVE",
"1003 482 OFFCURVE",
"1003 460 CURVE SMOOTH",
"1003 439 OFFCURVE",
"988 417 OFFCURVE",
"958 417 CURVE SMOOTH",
"283 417 LINE SMOOTH",
"253 417 OFFCURVE",
"238 439 OFFCURVE",
"238 460 CURVE SMOOTH",
"238 482 OFFCURVE",
"253 503 OFFCURVE",
"283 503 CURVE SMOOTH"
);
}
);
width = 1240;
}
);
unicode = 2013;
},
{
glyphname = hyphen;
lastChange = "2016-08-10 13:30:31 +0000";
layers = (
{
layerId = "840BD324-B0A6-42B0-BD23-CB5E8C19394F";
paths = (
{
closed = 1;
nodes = (
"379 500 CURVE SMOOTH",
"886 500 LINE SMOOTH",
"930 500 OFFCURVE",
"937 480 OFFCURVE",
"937 459 CURVE SMOOTH",
"937 439 OFFCURVE",
"931 418 OFFCURVE",
"886 418 CURVE SMOOTH",
"379 418 LINE SMOOTH",
"334 418 OFFCURVE",
"327 439 OFFCURVE",
"327 459 CURVE SMOOTH",
"327 480 OFFCURVE",
"334 500 OFFCURVE"
);
}
);
width = 1240;
}
);
unicode = 002D;
},
{
glyphname = uni00AD;
lastChange = "2016-08-10 13:30:31 +0000";
layers = (
{
layerId = "840BD324-B0A6-42B0-BD23-CB5E8C19394F";
paths = (
{
closed = 1;
nodes = (
"895 533 LINE SMOOTH",
"925 533 OFFCURVE",
"940 512 OFFCURVE",
"940 490 CURVE SMOOTH",
"940 469 OFFCURVE",
"925 447 OFFCURVE",
"895 447 CURVE SMOOTH",
"345 447 LINE SMOOTH",
"315 447 OFFCURVE",
"300 469 OFFCURVE",
"300 490 CURVE SMOOTH",
"300 512 OFFCURVE",
"315 533 OFFCURVE",
"345 533 CURVE SMOOTH"
);
}
);
width = 1240;
}
);
unicode = 00AD;
},
{
glyphname = guillemotleft;
lastChange = "2016-08-10 13:30:31 +0000";
layers = (
{
layerId = "840BD324-B0A6-42B0-BD23-CB5E8C19394F";
paths = (
{
closed = 1;
nodes = (
"554 216 CURVE SMOOTH",
"210 475 LINE SMOOTH",
"185 494 OFFCURVE",
"172 512 OFFCURVE",
"172 530 CURVE SMOOTH",
"172 548 OFFCURVE",
"185 567 OFFCURVE",
"210 586 CURVE SMOOTH",
"544 841 LINE SMOOTH",
"554 848 OFFCURVE",
"564 852 OFFCURVE",
"574 852 CURVE SMOOTH",
"596 852 OFFCURVE",
"614 836 OFFCURVE",
"614 816 CURVE SMOOTH",
"614 804 OFFCURVE",
"607 790 OFFCURVE",
"590 777 CURVE SMOOTH",
"269 531 LINE",
"599 287 LINE SMOOTH",
"621 271 OFFCURVE",
"630 253 OFFCURVE",
"630 238 CURVE SMOOTH",
"630 218 OFFCURVE",
"614 202 OFFCURVE",
"592 202 CURVE SMOOTH",
"581 202 OFFCURVE",
"567 206 OFFCURVE"
);
},
{
closed = 1;
nodes = (
"918 216 CURVE SMOOTH",
"574 475 LINE SMOOTH",
"549 494 OFFCURVE",
"536 512 OFFCURVE",
"536 530 CURVE SMOOTH",
"536 548 OFFCURVE",
"549 567 OFFCURVE",
"574 586 CURVE SMOOTH",
"908 841 LINE SMOOTH",
"918 848 OFFCURVE",
"928 852 OFFCURVE",
"938 852 CURVE SMOOTH",
"960 852 OFFCURVE",
"978 836 OFFCURVE",
"978 816 CURVE SMOOTH",
"978 804 OFFCURVE",
"971 790 OFFCURVE",
"954 777 CURVE SMOOTH",
"633 531 LINE",
"963 287 LINE SMOOTH",
"985 271 OFFCURVE",
"994 253 OFFCURVE",
"994 238 CURVE SMOOTH",
"994 218 OFFCURVE",
"978 202 OFFCURVE",
"956 202 CURVE SMOOTH",
"945 202 OFFCURVE",
"931 206 OFFCURVE"
);
}
);
width = 1240;
}
);
unicode = 00AB;
},
{
glyphname = guillemotright;
lastChange = "2016-08-10 13:30:31 +0000";
layers = (
{
layerId = "840BD324-B0A6-42B0-BD23-CB5E8C19394F";
paths = (
{
closed = 1;
nodes = (
"634 831 CURVE SMOOTH",
"978 572 LINE SMOOTH",
"1003 553 OFFCURVE",
"1016 535 OFFCURVE",
"1016 517 CURVE SMOOTH",
"1016 499 OFFCURVE",
"1003 480 OFFCURVE",
"978 461 CURVE SMOOTH",
"644 206 LINE SMOOTH",
"634 199 OFFCURVE",
"624 195 OFFCURVE",
"614 195 CURVE SMOOTH",
"592 195 OFFCURVE",
"574 211 OFFCURVE",
"574 231 CURVE SMOOTH",
"574 243 OFFCURVE",
"581 257 OFFCURVE",
"598 270 CURVE SMOOTH",
"919 516 LINE",
"589 760 LINE SMOOTH",
"567 776 OFFCURVE",
"558 794 OFFCURVE",
"558 809 CURVE SMOOTH",
"558 829 OFFCURVE",
"574 845 OFFCURVE",
"596 845 CURVE SMOOTH",
"607 845 OFFCURVE",
"621 841 OFFCURVE"
);
},
{
closed = 1;
nodes = (
"270 831 CURVE SMOOTH",
"614 572 LINE SMOOTH",
"639 553 OFFCURVE",
"652 535 OFFCURVE",
"652 517 CURVE SMOOTH",
"652 499 OFFCURVE",
"639 480 OFFCURVE",
"614 461 CURVE SMOOTH",
"280 206 LINE SMOOTH",
"270 199 OFFCURVE",
"260 195 OFFCURVE",
"250 195 CURVE SMOOTH",
"228 195 OFFCURVE",
"210 211 OFFCURVE",
"210 231 CURVE SMOOTH",
"210 243 OFFCURVE",
"217 257 OFFCURVE",
"234 270 CURVE SMOOTH",
"555 516 LINE",
"225 760 LINE SMOOTH",
"203 776 OFFCURVE",
"194 794 OFFCURVE",
"194 809 CURVE SMOOTH",
"194 829 OFFCURVE",
"210 845 OFFCURVE",
"232 845 CURVE SMOOTH",
"243 845 OFFCURVE",
"257 841 OFFCURVE"
);
}
);
width = 1240;
}
);
unicode = 00BB;
},
{
glyphname = guilsinglleft;
lastChange = "2016-08-10 13:30:31 +0000";
layers = (
{
layerId = "840BD324-B0A6-42B0-BD23-CB5E8C19394F";
paths = (
{
closed = 1;
nodes = (
"854 216 CURVE SMOOTH",
"250 475 LINE SMOOTH",
"222 487 OFFCURVE",
"207 508 OFFCURVE",
"207 530 CURVE SMOOTH",
"207 551 OFFCURVE",
"221 573 OFFCURVE",
"250 585 CURVE SMOOTH",
"844 841 LINE SMOOTH",
"851 844 OFFCURVE",
"858 845 OFFCURVE",
"864 845 CURVE SMOOTH",
"888 845 OFFCURVE",
"907 826 OFFCURVE",
"907 805 CURVE SMOOTH",
"907 790 OFFCURVE",
"898 775 OFFCURVE",
"874 765 CURVE SMOOTH",
"326 531 LINE",
"883 297 LINE SMOOTH",
"912 284 OFFCURVE",
"925 265 OFFCURVE",
"925 248 CURVE SMOOTH",
"925 228 OFFCURVE",
"908 210 OFFCURVE",
"882 210 CURVE SMOOTH",
"873 210 OFFCURVE",
"864 212 OFFCURVE"
);
}
);
width = 1240;
}
);
unicode = 2039;
},
{
glyphname = guilsinglright;
lastChange = "2016-08-10 13:30:31 +0000";
layers = (
{
layerId = "840BD324-B0A6-42B0-BD23-CB5E8C19394F";
paths = (
{
closed = 1;
nodes = (
"345 834 CURVE SMOOTH",
"949 575 LINE SMOOTH",
"977 563 OFFCURVE",
"992 542 OFFCURVE",
"992 520 CURVE SMOOTH",
"992 499 OFFCURVE",
"978 477 OFFCURVE",
"949 465 CURVE SMOOTH",
"355 209 LINE SMOOTH",
"348 206 OFFCURVE",
"341 205 OFFCURVE",
"335 205 CURVE SMOOTH",
"311 205 OFFCURVE",
"292 224 OFFCURVE",
"292 245 CURVE SMOOTH",
"292 260 OFFCURVE",
"301 275 OFFCURVE",
"325 285 CURVE SMOOTH",
"873 519 LINE",
"316 753 LINE SMOOTH",
"287 766 OFFCURVE",
"274 785 OFFCURVE",
"274 802 CURVE SMOOTH",
"274 822 OFFCURVE",
"291 840 OFFCURVE",
"317 840 CURVE SMOOTH",
"326 840 OFFCURVE",
"335 838 OFFCURVE"
);
}
);
width = 1240;
}
);
unicode = 203A;
},
{
glyphname = quotedblbase;
lastChange = "2016-08-10 13:30:31 +0000";
layers = (
{
layerId = "840BD324-B0A6-42B0-BD23-CB5E8C19394F";
paths = (
{
closed = 1;
nodes = (
"535 -214 LINE SMOOTH",
"534 -228 OFFCURVE",
"522 -234 OFFCURVE",
"510 -234 CURVE SMOOTH",
"498 -234 OFFCURVE",
"487 -228 OFFCURVE",
"486 -214 CURVE SMOOTH",
"454 182 LINE SMOOTH",
"451 219 OFFCURVE",
"481 237 OFFCURVE",
"511 237 CURVE SMOOTH",
"540 237 OFFCURVE",
"569 220 OFFCURVE",
"569 187 CURVE SMOOTH",
"569 181 LINE SMOOTH"
);
},
{
closed = 1;
nodes = (
"752 -214 LINE SMOOTH",
"751 -228 OFFCURVE",
"740 -234 OFFCURVE",
"728 -234 CURVE SMOOTH",
"716 -234 OFFCURVE",
"704 -228 OFFCURVE",
"703 -214 CURVE SMOOTH",
"671 182 LINE SMOOTH",
"668 219 OFFCURVE",
"698 237 OFFCURVE",
"728 237 CURVE SMOOTH",
"757 237 OFFCURVE",
"786 220 OFFCURVE",
"786 187 CURVE SMOOTH",
"786 181 LINE SMOOTH"
);
}
);
width = 1240;
}
);
unicode = 201E;
},
{
glyphname = quotedblleft;
lastChange = "2016-08-10 13:30:31 +0000";
layers = (
{
layerId = "840BD324-B0A6-42B0-BD23-CB5E8C19394F";
paths = (
{
closed = 1;
nodes = (
"745 774 CURVE SMOOTH",
"685 774 OFFCURVE",
"633 815 OFFCURVE",
"633 895 CURVE SMOOTH",
"633 1011 OFFCURVE",
"736 1144 OFFCURVE",
"818 1185 CURVE SMOOTH",
"821 1187 OFFCURVE",
"825 1187 OFFCURVE",
"828 1187 CURVE SMOOTH",
"842 1187 OFFCURVE",
"856 1174 OFFCURVE",
"856 1160 CURVE SMOOTH",
"856 1153 OFFCURVE",
"852 1145 OFFCURVE",
"844 1139 CURVE SMOOTH",
"801 1108 OFFCURVE",
"735 1024 OFFCURVE",
"735 962 CURVE",
"794 962 OFFCURVE",
"843 934 OFFCURVE",
"843 869 CURVE SMOOTH",
"843 805 OFFCURVE",
"792 774 OFFCURVE"
);
},
{
closed = 1;
nodes = (
"449 774 CURVE SMOOTH",
"389 774 OFFCURVE",
"337 815 OFFCURVE",
"337 895 CURVE SMOOTH",
"337 1011 OFFCURVE",
"440 1144 OFFCURVE",
"522 1185 CURVE SMOOTH",
"525 1187 OFFCURVE",
"529 1187 OFFCURVE",
"532 1187 CURVE SMOOTH",
"546 1187 OFFCURVE",
"560 1174 OFFCURVE",
"560 1160 CURVE SMOOTH",
"560 1153 OFFCURVE",
"556 1145 OFFCURVE",
"548 1139 CURVE SMOOTH",
"505 1108 OFFCURVE",
"439 1024 OFFCURVE",
"439 962 CURVE",
"498 962 OFFCURVE",
"547 934 OFFCURVE",
"547 869 CURVE SMOOTH",
"547 805 OFFCURVE",
"496 774 OFFCURVE"
);
}
);
width = 1240;
}
);
unicode = 201C;
},
{
glyphname = quotedblright;
lastChange = "2016-08-10 13:30:31 +0000";
layers = (
{
layerId = "840BD324-B0A6-42B0-BD23-CB5E8C19394F";
paths = (
{
closed = 1;
nodes = (
"465 1187 CURVE SMOOTH",
"525 1187 OFFCURVE",
"577 1146 OFFCURVE",
"577 1066 CURVE SMOOTH",
"577 950 OFFCURVE",
"474 817 OFFCURVE",
"392 776 CURVE SMOOTH",
"389 774 OFFCURVE",
"385 774 OFFCURVE",
"382 774 CURVE SMOOTH",
"368 774 OFFCURVE",
"354 787 OFFCURVE",
"354 801 CURVE SMOOTH",
"354 808 OFFCURVE",
"358 816 OFFCURVE",
"366 822 CURVE SMOOTH",
"409 853 OFFCURVE",
"475 937 OFFCURVE",
"475 999 CURVE",
"416 999 OFFCURVE",
"367 1027 OFFCURVE",
"367 1092 CURVE SMOOTH",
"367 1156 OFFCURVE",
"418 1187 OFFCURVE"
);
},
{
closed = 1;
nodes = (
"761 1187 CURVE SMOOTH",
"821 1187 OFFCURVE",
"873 1146 OFFCURVE",
"873 1066 CURVE SMOOTH",
"873 950 OFFCURVE",
"770 817 OFFCURVE",
"688 776 CURVE SMOOTH",
"685 774 OFFCURVE",
"681 774 OFFCURVE",
"678 774 CURVE SMOOTH",
"664 774 OFFCURVE",
"650 787 OFFCURVE",
"650 801 CURVE SMOOTH",
"650 808 OFFCURVE",
"654 816 OFFCURVE",
"662 822 CURVE SMOOTH",
"705 853 OFFCURVE",
"771 937 OFFCURVE",
"771 999 CURVE",
"712 999 OFFCURVE",
"663 1027 OFFCURVE",
"663 1092 CURVE SMOOTH",
"663 1156 OFFCURVE",
"714 1187 OFFCURVE"
);
}
);
width = 1240;
}
);
unicode = 201D;
},
{
glyphname = quoteleft;
lastChange = "2016-08-10 13:30:31 +0000";
layers = (
{
layerId = "840BD324-B0A6-42B0-BD23-CB5E8C19394F";
paths = (
{
closed = 1;
nodes = (
"633 774 CURVE SMOOTH",
"573 774 OFFCURVE",
"521 815 OFFCURVE",
"521 895 CURVE SMOOTH",
"521 1011 OFFCURVE",
"624 1144 OFFCURVE",
"706 1185 CURVE SMOOTH",
"709 1187 OFFCURVE",
"713 1187 OFFCURVE",
"716 1187 CURVE SMOOTH",
"730 1187 OFFCURVE",
"744 1174 OFFCURVE",
"744 1160 CURVE SMOOTH",
"744 1153 OFFCURVE",
"740 1145 OFFCURVE",
"732 1139 CURVE SMOOTH",
"689 1108 OFFCURVE",
"623 1024 OFFCURVE",
"623 962 CURVE",
"682 962 OFFCURVE",
"731 934 OFFCURVE",
"731 869 CURVE SMOOTH",
"731 805 OFFCURVE",
"680 774 OFFCURVE"
);
}
);
width = 1240;
}
);
unicode = 2018;
},
{
glyphname = quoteright;
lastChange = "2016-08-10 13:30:31 +0000";
layers = (
{
layerId = "840BD324-B0A6-42B0-BD23-CB5E8C19394F";
paths = (
{
closed = 1;
nodes = (
"649 1187 CURVE SMOOTH",
"709 1187 OFFCURVE",
"761 1146 OFFCURVE",
"761 1066 CURVE SMOOTH",
"761 950 OFFCURVE",
"658 817 OFFCURVE",
"576 776 CURVE SMOOTH",
"573 774 OFFCURVE",
"569 774 OFFCURVE",
"566 774 CURVE SMOOTH",
"552 774 OFFCURVE",
"538 787 OFFCURVE",
"538 801 CURVE SMOOTH",
"538 808 OFFCURVE",
"542 816 OFFCURVE",
"550 822 CURVE SMOOTH",
"593 853 OFFCURVE",
"659 937 OFFCURVE",
"659 999 CURVE",
"600 999 OFFCURVE",
"551 1027 OFFCURVE",
"551 1092 CURVE SMOOTH",
"551 1156 OFFCURVE",
"602 1187 OFFCURVE"
);
}
);
width = 1240;
}
);
unicode = 2019;
},
{
glyphname = quotesinglbase;
lastChange = "2016-08-10 13:30:31 +0000";
layers = (
{
layerId = "840BD324-B0A6-42B0-BD23-CB5E8C19394F";
paths = (
{
closed = 1;
nodes = (
"616 180 CURVE SMOOTH",
"676 180 OFFCURVE",
"728 139 OFFCURVE",
"728 59 CURVE SMOOTH",
"728 -57 OFFCURVE",
"625 -167 OFFCURVE",
"543 -208 CURVE SMOOTH",
"540 -210 OFFCURVE",
"536 -210 OFFCURVE",
"533 -210 CURVE SMOOTH",
"519 -210 OFFCURVE",
"505 -197 OFFCURVE",
"505 -183 CURVE SMOOTH",
"505 -176 OFFCURVE",
"509 -168 OFFCURVE",
"517 -162 CURVE SMOOTH",
"560 -131 OFFCURVE",
"626 -70 OFFCURVE",
"626 -8 CURVE",
"567 -8 OFFCURVE",
"518 20 OFFCURVE",
"518 85 CURVE SMOOTH",
"518 149 OFFCURVE",
"569 180 OFFCURVE"
);
}
);
width = 1240;
}
);
unicode = 201A;
},
{
glyphname = .notdef;
lastChange = "2016-08-10 13:30:31 +0000";
layers = (
{
layerId = "840BD324-B0A6-42B0-BD23-CB5E8C19394F";
paths = (
{
closed = 1;
nodes = (
"204 102 LINE",
"820 102 LINE",
"820 990 LINE",
"204 990 LINE"
);
},
{
closed = 1;
nodes = (
"102 0 LINE",
"102 1092 LINE",
"922 1092 LINE",
"922 0 LINE"
);
}
);
width = 1240;
}
);
},
{
glyphname = Euro;
lastChange = "2016-08-10 13:30:31 +0000";
layers = (
{
layerId = "840BD324-B0A6-42B0-BD23-CB5E8C19394F";
paths = (
{
closed = 1;
nodes = (
"659 -17 CURVE SMOOTH",
"402 -17 OFFCURVE",
"242 151 OFFCURVE",
"196 429 CURVE",
"117 429 LINE SMOOTH",
"77 429 OFFCURVE",
"60 441 OFFCURVE",
"60 466 CURVE SMOOTH",
"60 491 OFFCURVE",
"77 505 OFFCURVE",
"117 505 CURVE SMOOTH",
"186 505 LINE",
"183 538 OFFCURVE",
"182 572 OFFCURVE",
"182 607 CURVE SMOOTH",
"182 625 OFFCURVE",
"182 643 OFFCURVE",
"183 661 CURVE",
"117 661 LINE SMOOTH",
"77 661 OFFCURVE",
"60 675 OFFCURVE",
"60 700 CURVE SMOOTH",
"60 726 OFFCURVE",
"77 739 OFFCURVE",
"117 739 CURVE SMOOTH",
"191 739 LINE",
"232 1012 OFFCURVE",
"401 1187 OFFCURVE",
"668 1187 CURVE SMOOTH",
"827 1187 OFFCURVE",
"918 1113 OFFCURVE",
"972 1015 CURVE",
"972 1121 LINE SMOOTH",
"972 1154 OFFCURVE",
"997 1171 OFFCURVE",
"1021 1171 CURVE SMOOTH",
"1046 1171 OFFCURVE",
"1070 1154 OFFCURVE",
"1070 1120 CURVE SMOOTH",
"1070 827 LINE SMOOTH",
"1070 795 OFFCURVE",
"1047 780 OFFCURVE",
"1024 780 CURVE SMOOTH",
"1000 780 OFFCURVE",
"985 797 OFFCURVE",
"980 827 CURVE SMOOTH",
"949 991 OFFCURVE",
"850 1101 OFFCURVE",
"671 1101 CURVE SMOOTH",
"442 1101 OFFCURVE",
"322 955 OFFCURVE",
"288 739 CURVE",
"489 739 LINE SMOOTH",
"529 739 OFFCURVE",
"544 726 OFFCURVE",
"544 700 CURVE SMOOTH",
"544 675 OFFCURVE",
"529 661 OFFCURVE",
"489 661 CURVE SMOOTH",
"280 661 LINE",
"279 641 OFFCURVE",
"278 621 OFFCURVE",
"278 600 CURVE SMOOTH",
"278 567 OFFCURVE",
"279 535 OFFCURVE",
"282 505 CURVE",
"489 505 LINE SMOOTH",
"529 505 OFFCURVE",
"544 491 OFFCURVE",
"544 466 CURVE SMOOTH",
"544 441 OFFCURVE",
"529 429 OFFCURVE",
"489 429 CURVE SMOOTH",
"293 429 LINE",
"335 198 OFFCURVE",
"468 69 OFFCURVE",
"660 69 CURVE SMOOTH",
"853 69 OFFCURVE",
"950 164 OFFCURVE",
"1016 356 CURVE SMOOTH",
"1023 376 OFFCURVE",
"1037 384 OFFCURVE",
"1054 384 CURVE SMOOTH",
"1077 384 OFFCURVE",
"1097 367 OFFCURVE",
"1097 347 CURVE SMOOTH",
"1097 343 OFFCURVE",
"1096 340 OFFCURVE",
"1095 336 CURVE SMOOTH",
"1040 173 OFFCURVE",
"949 -17 OFFCURVE"
);
}
);
width = 1240;
}
);
unicode = 20AC;
},
{
glyphname = cent;
lastChange = "2016-08-10 13:30:31 +0000";
layers = (
{
components = (
{
name = c;
}
);
layerId = "840BD324-B0A6-42B0-BD23-CB5E8C19394F";
paths = (
{
closed = 1;
nodes = (
"634 990 CURVE SMOOTH",
"659 990 OFFCURVE",
"660 978 OFFCURVE",
"660 956 CURVE SMOOTH",
"660 951 LINE SMOOTH",
"660 -189 LINE SMOOTH",
"660 -216 OFFCURVE",
"657 -236 OFFCURVE",
"634 -236 CURVE SMOOTH",
"610 -236 OFFCURVE",
"607 -222 OFFCURVE",
"607 -190 CURVE SMOOTH",
"607 951 LINE SMOOTH",
"607 977 OFFCURVE",
"610 990 OFFCURVE"
);
}
);
width = 1240;
}
);
unicode = 00A2;
},
{
glyphname = currency;
lastChange = "2016-08-10 13:30:31 +0000";
layers = (
{
layerId = "840BD324-B0A6-42B0-BD23-CB5E8C19394F";
paths = (
{
closed = 1;
nodes = (
"616 368 CURVE SMOOTH",
"738 368 OFFCURVE",
"801 453 OFFCURVE",
"801 560 CURVE SMOOTH",
"801 667 OFFCURVE",
"740 756 OFFCURVE",
"615 756 CURVE SMOOTH",
"490 756 OFFCURVE",
"430 667 OFFCURVE",
"430 560 CURVE SMOOTH",
"430 455 OFFCURVE",
"496 368 OFFCURVE"
);
},
{
closed = 1;
nodes = (
"459 358 CURVE",
"371 271 LINE SMOOTH",
"340 240 OFFCURVE",
"296 282 OFFCURVE",
"328 314 CURVE SMOOTH",
"414 400 LINE",
"378 444 OFFCURVE",
"361 501 OFFCURVE",
"361 558 CURVE SMOOTH",
"361 615 OFFCURVE",
"379 672 OFFCURVE",
"414 717 CURVE",
"328 803 LINE SMOOTH",
"296 835 OFFCURVE",
"341 876 OFFCURVE",
"372 845 CURVE SMOOTH",
"457 760 LINE",
"498 791 OFFCURVE",
"551 811 OFFCURVE",
"616 811 CURVE SMOOTH",
"682 811 OFFCURVE",
"734 792 OFFCURVE",
"774 760 CURVE",
"858 843 LINE SMOOTH",
"890 875 OFFCURVE",
"933 831 OFFCURVE",
"901 799 CURVE SMOOTH",
"817 715 LINE",
"848 671 OFFCURVE",
"863 617 OFFCURVE",
"863 563 CURVE SMOOTH",
"863 507 OFFCURVE",
"845 450 OFFCURVE",
"810 405 CURVE",
"900 315 LINE SMOOTH",
"931 284 OFFCURVE",
"890 240 OFFCURVE",
"857 273 CURVE SMOOTH",
"768 362 LINE",
"728 332 OFFCURVE",
"675 313 OFFCURVE",
"611 313 CURVE SMOOTH",
"549 313 OFFCURVE",
"498 330 OFFCURVE"
);
}
);
width = 1240;
}
);
unicode = 00A4;
},
{
glyphname = dollar;
lastChange = "2016-08-10 13:30:31 +0000";
layers = (
{
components = (
{
name = S;
}
);
layerId = "840BD324-B0A6-42B0-BD23-CB5E8C19394F";
paths = (
{
closed = 1;
nodes = (
"640 1315 LINE SMOOTH",
"640 1334 OFFCURVE",
"657 1344 OFFCURVE",
"674 1344 CURVE SMOOTH",
"690 1344 OFFCURVE",
"707 1334 OFFCURVE",
"707 1315 CURVE SMOOTH",
"707 -141 LINE SMOOTH",
"707 -158 OFFCURVE",
"690 -167 OFFCURVE",
"674 -167 CURVE SMOOTH",
"657 -167 OFFCURVE",
"640 -158 OFFCURVE",
"640 -141 CURVE SMOOTH"
);
}
);
width = 1240;
}
);
unicode = 0024;
},
{
glyphname = florin;
lastChange = "2016-08-10 13:30:31 +0000";
layers = (
{
layerId = "840BD324-B0A6-42B0-BD23-CB5E8C19394F";
paths = (
{
closed = 1;
nodes = (
"623 48 LINE SMOOTH",
"602 -193 OFFCURVE",
"422 -211 OFFCURVE",
"296 -211 CURVE SMOOTH",
"270 -211 OFFCURVE",
"262 -198 OFFCURVE",
"262 -174 CURVE SMOOTH",
"262 -170 OFFCURVE",
"263 -166 OFFCURVE",
"263 -161 CURVE SMOOTH",
"273 -43 LINE SMOOTH",
"275 -23 OFFCURVE",
"298 -13 OFFCURVE",
"318 -13 CURVE SMOOTH",
"337 -13 OFFCURVE",
"353 -21 OFFCURVE",
"353 -36 CURVE SMOOTH",
"353 -39 LINE",
"345 -137 LINE",
"430 -137 OFFCURVE",
"514 -103 OFFCURVE",
"527 46 CURVE SMOOTH",
"581 690 LINE",
"436 690 LINE SMOOTH",
"413 690 OFFCURVE",
"403 709 OFFCURVE",
"403 729 CURVE SMOOTH",
"403 734 LINE",
"405 754 OFFCURVE",
"417 774 OFFCURVE",
"439 774 CURVE SMOOTH",
"588 774 LINE",
"594 838 LINE",
"614 1079 OFFCURVE",
"743 1188 OFFCURVE",
"988 1188 CURVE SMOOTH",
"1016 1188 OFFCURVE",
"1041 1171 OFFCURVE",
"1041 1142 CURVE SMOOTH",
"1041 1137 LINE",
"1031 1020 LINE SMOOTH",
"1029 1000 OFFCURVE",
"1005 990 OFFCURVE",
"981 990 CURVE SMOOTH",
"961 990 OFFCURVE",
"941 998 OFFCURVE",
"941 1014 CURVE SMOOTH",
"941 1016 LINE",
"949 1118 LINE",
"803 1105 OFFCURVE",
"709 1062 OFFCURVE",
"690 841 CURVE SMOOTH",
"684 774 LINE",
"854 774 LINE SMOOTH",
"874 774 OFFCURVE",
"883 757 OFFCURVE",
"883 739 CURVE SMOOTH",
"883 734 LINE",
"881 712 OFFCURVE",
"868 690 OFFCURVE",
"846 690 CURVE SMOOTH",
"677 690 LINE"
);
}
);
width = 1240;
}
);
unicode = 0192;
},
{
glyphname = sterling;
lastChange = "2016-08-10 13:30:31 +0000";
layers = (
{
layerId = "840BD324-B0A6-42B0-BD23-CB5E8C19394F";
paths = (
{
closed = 1;
nodes = (
"404 48 CURVE SMOOTH",
"439 48 OFFCURVE",
"483 67 OFFCURVE",
"531 116 CURVE",
"474 171 OFFCURVE",
"429 191 OFFCURVE",
"396 191 CURVE SMOOTH",
"354 191 OFFCURVE",
"331 159 OFFCURVE",
"329 128 CURVE",
"329 122 LINE SMOOTH",
"329 81 OFFCURVE",
"358 48 OFFCURVE"
);
},
{
closed = 1;
nodes = (
"250 130 CURVE SMOOTH",
"250 199 OFFCURVE",
"310 251 OFFCURVE",
"390 251 CURVE SMOOTH",
"446 251 OFFCURVE",
"512 225 OFFCURVE",
"574 161 CURVE",
"582 176 OFFCURVE",
"586 199 OFFCURVE",
"586 229 CURVE SMOOTH",
"586 335 OFFCURVE",
"537 515 OFFCURVE",
"456 618 CURVE",
"287 618 LINE SMOOTH",
"271 618 OFFCURVE",
"262 638 OFFCURVE",
"262 658 CURVE SMOOTH",
"262 677 OFFCURVE",
"269 695 OFFCURVE",
"285 695 CURVE SMOOTH",
"427 695 LINE",
"398 764 OFFCURVE",
"353 824 OFFCURVE",
"353 921 CURVE SMOOTH",
"353 1079 OFFCURVE",
"491 1184 OFFCURVE",
"649 1184 CURVE SMOOTH",
"767 1184 OFFCURVE",
"855 1171 OFFCURVE",
"911 1104 CURVE SMOOTH",
"926 1086 OFFCURVE",
"933 1079 OFFCURVE",
"933 1053 CURVE SMOOTH",
"933 1007 OFFCURVE",
"893 977 OFFCURVE",
"849 977 CURVE SMOOTH",
"798 977 OFFCURVE",
"800 1121 OFFCURVE",
"651 1121 CURVE SMOOTH",
"558 1121 OFFCURVE",
"458 1062 OFFCURVE",
"458 923 CURVE SMOOTH",
"458 840 OFFCURVE",
"491 762 OFFCURVE",
"522 695 CURVE",
"757 695 LINE SMOOTH",
"773 695 OFFCURVE",
"781 676 OFFCURVE",
"781 657 CURVE SMOOTH",
"781 638 OFFCURVE",
"772 618 OFFCURVE",
"756 618 CURVE SMOOTH",
"551 618 LINE",
"569 567 OFFCURVE",
"674 420 OFFCURVE",
"674 263 CURVE SMOOTH",
"674 218 OFFCURVE",
"666 172 OFFCURVE",
"644 128 CURVE",
"720 67 OFFCURVE",
"784 53 OFFCURVE",
"872 53 CURVE SMOOTH",
"898 53 OFFCURVE",
"934 139 OFFCURVE",
"995 139 CURVE SMOOTH",
"1022 139 OFFCURVE",
"1047 110 OFFCURVE",
"1047 82 CURVE SMOOTH",
"1047 -10 OFFCURVE",
"941 -17 OFFCURVE",
"848 -17 CURVE SMOOTH",
"735 -17 OFFCURVE",
"678 12 OFFCURVE",
"587 72 CURVE",
"523 11 OFFCURVE",
"454 -16 OFFCURVE",
"395 -16 CURVE SMOOTH",
"313 -16 OFFCURVE",
"250 39 OFFCURVE"
);
}
);
width = 1240;
}
);
unicode = 00A3;
},
{
glyphname = yen;
lastChange = "2016-08-10 13:30:31 +0000";
layers = (
{
layerId = "840BD324-B0A6-42B0-BD23-CB5E8C19394F";
paths = (
{
closed = 1;
nodes = (
"956 578 LINE SMOOTH",
"989 578 OFFCURVE",
"995 560 OFFCURVE",
"995 542 CURVE SMOOTH",
"995 524 OFFCURVE",
"989 506 OFFCURVE",
"956 506 CURVE SMOOTH",
"689 506 LINE",
"689 369 LINE",
"956 369 LINE SMOOTH",
"989 369 OFFCURVE",
"995 351 OFFCURVE",
"995 333 CURVE SMOOTH",
"995 315 OFFCURVE",
"989 297 OFFCURVE",
"956 297 CURVE SMOOTH",
"689 297 LINE",
"689 86 LINE",
"921 86 LINE SMOOTH",
"953 86 OFFCURVE",
"969 65 OFFCURVE",
"969 44 CURVE SMOOTH",
"969 22 OFFCURVE",
"952 0 OFFCURVE",
"919 0 CURVE SMOOTH",
"334 0 LINE SMOOTH",
"300 0 OFFCURVE",
"282 22 OFFCURVE",
"282 44 CURVE SMOOTH",
"282 65 OFFCURVE",
"299 86 OFFCURVE",
"332 86 CURVE SMOOTH",
"593 86 LINE",
"593 297 LINE",
"318 297 LINE SMOOTH",
"285 297 OFFCURVE",
"279 315 OFFCURVE",
"279 333 CURVE SMOOTH",
"279 351 OFFCURVE",
"285 369 OFFCURVE",
"318 369 CURVE SMOOTH",
"593 369 LINE",
"593 506 LINE",
"318 506 LINE SMOOTH",
"285 506 OFFCURVE",
"279 524 OFFCURVE",
"279 542 CURVE SMOOTH",
"279 560 OFFCURVE",
"285 578 OFFCURVE",
"318 578 CURVE SMOOTH",
"578 578 LINE",
"258 1095 LINE",
"174 1095 LINE SMOOTH",
"141 1095 OFFCURVE",
"124 1114 OFFCURVE",
"124 1133 CURVE SMOOTH",
"124 1152 OFFCURVE",
"142 1171 OFFCURVE",
"175 1171 CURVE SMOOTH",
"505 1171 LINE SMOOTH",
"539 1171 OFFCURVE",
"556 1152 OFFCURVE",
"556 1133 CURVE SMOOTH",
"556 1114 OFFCURVE",
"539 1095 OFFCURVE",
"506 1095 CURVE SMOOTH",
"370 1095 LINE",
"646 633 LINE",
"914 1095 LINE",
"803 1095 LINE SMOOTH",
"770 1095 OFFCURVE",
"753 1114 OFFCURVE",
"753 1133 CURVE SMOOTH",
"753 1152 OFFCURVE",
"771 1171 OFFCURVE",
"804 1171 CURVE SMOOTH",
"1065 1171 LINE SMOOTH",
"1099 1171 OFFCURVE",
"1116 1151 OFFCURVE",
"1116 1132 CURVE SMOOTH",
"1116 1113 OFFCURVE",
"1100 1095 OFFCURVE",
"1067 1095 CURVE SMOOTH",
"1012 1095 LINE",
"707 578 LINE"
);
}
);
width = 1240;
}
);
unicode = 00A5;
},
{
glyphname = plus;
lastChange = "2016-08-10 13:30:31 +0000";
layers = (
{
layerId = "840BD324-B0A6-42B0-BD23-CB5E8C19394F";
paths = (
{
closed = 1;
nodes = (
"924 538 LINE SMOOTH",
"957 538 OFFCURVE",
"967 517 OFFCURVE",
"967 497 CURVE SMOOTH",
"967 476 OFFCURVE",
"957 456 OFFCURVE",
"924 456 CURVE SMOOTH",
"669 456 LINE",
"669 195 LINE SMOOTH",
"669 160 OFFCURVE",
"645 143 OFFCURVE",
"621 143 CURVE SMOOTH",
"597 143 OFFCURVE",
"573 160 OFFCURVE",
"573 195 CURVE SMOOTH",
"573 456 LINE",
"316 456 LINE SMOOTH",
"284 456 OFFCURVE",
"273 476 OFFCURVE",
"273 497 CURVE SMOOTH",
"273 517 OFFCURVE",
"284 538 OFFCURVE",
"316 538 CURVE SMOOTH",
"573 538 LINE",
"573 804 LINE SMOOTH",
"573 839 OFFCURVE",
"597 856 OFFCURVE",
"621 856 CURVE SMOOTH",
"645 856 OFFCURVE",
"669 839 OFFCURVE",
"669 804 CURVE SMOOTH",
"669 538 LINE"
);
}
);
width = 1240;
}
);
unicode = 002B;
},
{
glyphname = minus;
lastChange = "2016-08-10 13:30:31 +0000";
layers = (
{
layerId = "840BD324-B0A6-42B0-BD23-CB5E8C19394F";
paths = (
{
closed = 1;
nodes = (
"898 503 LINE SMOOTH",
"928 503 OFFCURVE",
"943 482 OFFCURVE",
"943 460 CURVE SMOOTH",
"943 439 OFFCURVE",
"928 417 OFFCURVE",
"898 417 CURVE SMOOTH",
"343 417 LINE SMOOTH",
"313 417 OFFCURVE",
"298 439 OFFCURVE",
"298 460 CURVE SMOOTH",
"298 482 OFFCURVE",
"313 503 OFFCURVE",
"343 503 CURVE SMOOTH"
);
}
);
width = 1240;
}
);
unicode = 2212;
},
{
glyphname = multiply;
lastChange = "2016-08-10 13:30:31 +0000";
layers = (
{
layerId = "840BD324-B0A6-42B0-BD23-CB5E8C19394F";
paths = (
{
closed = 1;
nodes = (
"919 757 CURVE SMOOTH",
"946 757 OFFCURVE",
"969 733 OFFCURVE",
"969 707 CURVE SMOOTH",
"969 694 OFFCURVE",
"964 681 OFFCURVE",
"954 671 CURVE SMOOTH",
"770 488 LINE",
"954 303 LINE SMOOTH",
"964 293 OFFCURVE",
"969 280 OFFCURVE",
"969 268 CURVE SMOOTH",
"969 241 OFFCURVE",
"946 218 OFFCURVE",
"919 218 CURVE SMOOTH",
"906 218 OFFCURVE",
"893 223 OFFCURVE",
"883 233 CURVE SMOOTH",
"699 417 LINE",
"516 233 LINE SMOOTH",
"506 223 OFFCURVE",
"493 218 OFFCURVE",
"480 218 CURVE SMOOTH",
"453 218 OFFCURVE",
"430 241 OFFCURVE",
"430 268 CURVE SMOOTH",
"430 280 OFFCURVE",
"435 293 OFFCURVE",
"445 303 CURVE SMOOTH",
"628 488 LINE",
"445 671 LINE SMOOTH",
"435 681 OFFCURVE",
"430 694 OFFCURVE",
"430 707 CURVE SMOOTH",
"430 733 OFFCURVE",
"453 757 OFFCURVE",
"480 757 CURVE SMOOTH",
"493 757 OFFCURVE",
"506 752 OFFCURVE",
"516 742 CURVE SMOOTH",
"699 558 LINE",
"883 742 LINE SMOOTH",
"893 752 OFFCURVE",
"906 757 OFFCURVE"
);
}
);
width = 1240;
}
);
unicode = 00D7;
},
